0
SECTION
2
HEADER
9
$INSUNITS
70
4
9
$ACADVER
1
AC1014
9
$HANDSEED
5
FFFF
0
ENDSEC
0
SECTION
2
TABLES
0
TABLE
2
VPORT
5
8
100
AcDbSymbolTable
0
ENDTAB
0
TABLE
2
LTYPE
5
5
100
AcDbSymbolTable
0
LTYPE
5
14
100
AcDbSymbolTableRecord
100
AcDbLinetypeTableRecord
2
BYBLOCK
70
0
0
LTYPE
5
15
100
AcDbSymbolTableRecord
100
AcDbLinetypeTableRecord
2
BYLAYER
70
0
0
ENDTAB
0
TABLE
2
LAYER
5
2
100
AcDbSymbolTable
70
2
0
LAYER
5
50
100
AcDbSymbolTableRecord
100
AcDbLayerTableRecord
2
0
70
0
6
CONTINUOUS
0
ENDTAB
0
TABLE
2
STYLE
5
3
100
AcDbSymbolTable
70
1
0
STYLE
5
11
100
AcDbSymbolTableRecord
100
AcDbTextStyleTableRecord
2
STANDARD
70
0
0
ENDTAB
0
TABLE
2
VIEW
5
6
100
AcDbSymbolTable
70
0
0
ENDTAB
0
TABLE
2
UCS
5
7
100
AcDbSymbolTable
70
0
0
ENDTAB
0
TABLE
2
APPID
5
9
100
AcDbSymbolTable
70
2
0
APPID
5
12
100
AcDbSymbolTableRecord
100
AcDbRegAppTableRecord
2
ACAD
70
0
0
ENDTAB
0
TABLE
2
DIMSTYLE
5
A
100
AcDbSymbolTable
70
1
0
ENDTAB
0
TABLE
2
BLOCK_RECORD
5
1
100
AcDbSymbolTable
70
1
0
BLOCK_RECORD
5
1F
100
AcDbSymbolTableRecord
100
AcDbBlockTableRecord
2
*MODEL_SPACE
0
BLOCK_RECORD
5
1B
100
AcDbSymbolTableRecord
100
AcDbBlockTableRecord
2
*PAPER_SPACE
0
ENDTAB
0
ENDSEC
0
SECTION
2
BLOCKS
0
BLOCK
5
20
100
AcDbEntity
100
AcDbBlockBegin
2
*MODEL_SPACE
0
ENDBLK
5
21
100
AcDbEntity
100
AcDbBlockEnd
0
BLOCK
5
1C
100
AcDbEntity
100
AcDbBlockBegin
2
*PAPER_SPACE
0
ENDBLK
5
1D
100
AcDbEntity
100
AcDbBlockEnd
0
ENDSEC
0
SECTION
2
ENTITIES
0
LWPOLYLINE
5
100
100
AcDbEntity
8
0
100
AcDbPolyline
90
8
70
1
43
0.0
10
178
20
0
10
102
20
-4.9960036108132044e-15
42
-0.41421356237309703
10
100
20
2.0000000000000018
10
100
20
51.999999999999972
42
-0.41421356237309637
10
102.00000000000001
20
53.999999999999986
10
178
20
53.999999999999979
42
-0.41421356237309509
10
180
20
51.999999999999986
10
180
20
2.0000000000000013
42
-0.41421356237309526
0
LWPOLYLINE
5
101
100
AcDbEntity
8
0
100
AcDbPolyline
90
8
70
1
43
0.0
10
190
20
2.0000000000000018
10
190.00000000000003
20
51.999999999999972
42
-0.41421356237309637
10
192.00000000000003
20
53.999999999999986
10
268
20
53.999999999999979
42
-0.41421356237309509
10
270
20
51.999999999999986
10
270
20
2.0000000000000013
42
-0.41421356237309526
10
268
20
0
10
192
20
-4.9960036108132044e-15
42
-0.41421356237309703
0
LWPOLYLINE
5
102
100
AcDbEntity
8
0
100
AcDbPolyline
90
8
70
1
43
0.0
10
180.69999999999999
20
170
10
180.69999999999999
20
76
42
-0.41421356237309509
10
170.69999999999999
20
66
10
110.8
20
66
42
-0.41421356237309509
10
100.8
20
76
10
100.8
20
170
42
-0.41421356237309509
10
110.8
20
180
10
170.69999999999999
20
180
42
-0.41421356237309509
0
CIRCLE
5
103
100
AcDbEntity
8
0
100
AcDbCircle
10
171.38908729652601
20
173.88908729652599
30
0
40
2.1000000000000001
210
0
220
0
230
1
0
CIRCLE
5
104
100
AcDbEntity
8
0
100
AcDbCircle
10
110.11091270347399
20
173.88908729652599
30
0
40
2.1000000000000001
210
0
220
0
230
1
0
CIRCLE
5
105
100
AcDbEntity
8
0
100
AcDbCircle
10
110.11091270347399
20
72.110912703473971
30
0
40
2.1000000000000001
210
0
220
0
230
1
0
CIRCLE
5
106
100
AcDbEntity
8
0
100
AcDbCircle
10
171.38908729652601
20
72.110912703473986
30
0
40
2.1000000000000001
210
0
220
0
230
1
0
LWPOLYLINE
5
107
100
AcDbEntity
8
0
100
AcDbPolyline
90
8
70
1
43
0.0
10
270.69999999999999
20
76
42
-0.41421356237309509
10
260.69999999999999
20
66
10
200.79999999999998
20
66
42
-0.41421356237309509
10
190.79999999999998
20
76
10
190.79999999999998
20
170
42
-0.41421356237309509
10
200.79999999999998
20
180
10
260.69999999999999
20
180
42
-0.41421356237309509
10
270.69999999999999
20
170
0
CIRCLE
5
108
100
AcDbEntity
8
0
100
AcDbCircle
10
200.11091270347401
20
72.110912703473971
30
0
40
2.1000000000000001
210
0
220
0
230
1
0
CIRCLE
5
109
100
AcDbEntity
8
0
100
AcDbCircle
10
261.38908729652604
20
72.110912703473986
30
0
40
2.1000000000000001
210
0
220
0
230
1
0
CIRCLE
5
110
100
AcDbEntity
8
0
100
AcDbCircle
10
261.38908729652604
20
173.88908729652599
30
0
40
2.1000000000000001
210
0
220
0
230
1
0
CIRCLE
5
111
100
AcDbEntity
8
0
100
AcDbCircle
10
200.11091270347401
20
173.88908729652599
30
0
40
2.1000000000000001
210
0
220
0
230
1
0
CIRCLE
5
112
100
AcDbEntity
8
0
100
AcDbCircle
10
140.15204330068539
20
138.76033194931745
30
1.8692610559602199
40
4.588988503407367
210
0
220
-0
230
1
0
SPLINE
5
113
100
AcDbEntity
8
0
100
AcDbSpline
70
4
71
5
72
41
73
35
74
0
42
0.000000001
43
0.0000000001
44
0.0000000001
40
0
40
0
40
0
40
0
40
0
40
0
40
0.033333333333333333
40
0.066666666666666666
40
0.10000000000000001
40
0.13333333333333333
40
0.16666666666666666
40
0.19999999999999998
40
0.23333333333333331
40
0.26666666666666666
40
0.29999999999999999
40
0.33333333333333331
40
0.36666666666666664
40
0.39999999999999997
40
0.43333333333333329
40
0.46666666666666662
40
0.49999999999999994
40
0.53333333333333333
40
0.56666666666666665
40
0.59999999999999998
40
0.6333333333333333
40
0.66666666666666663
40
0.69999999999999996
40
0.73333333333333328
40
0.76666666666666661
40
0.79999999999999993
40
0.83333333333333326
40
0.86666666666666659
40
0.89999999999999991
40
0.93333333333333324
40
0.96666666666666656
40
1
40
1
40
1
40
1
40
1
40
1
41
1
41
1
41
1
41
1
41
1
41
1
41
1
41
1
41
1
41
1
41
1
41
1
41
1
41
1
41
1
41
1
41
1
41
1
41
1
41
1
41
1
41
1
41
1
41
1
41
1
41
1
41
1
41
1
41
1
41
1
41
1
41
1
41
1
41
1
41
1
10
138.23889555564182
20
122.73084029164231
30
1.8692610559602199
10
138.16659831274328
20
122.82000307658841
30
1.8692610559608926
10
138.01908581144858
20
122.99917723659877
30
1.8692610559620879
10
137.78906299870164
20
123.27048426613216
30
1.8692610559634226
10
137.46482621146703
20
123.63732760910989
30
1.8692610559643021
10
137.03039189263254
20
124.10415589118142
30
1.8692610559641452
10
136.56742827159212
20
124.57847923733138
30
1.8692610559631215
10
136.07739908567478
20
125.05866914270553
30
1.8692610559616984
10
135.56299016811897
20
125.54192374980778
30
1.8692610559602998
10
135.02844520457492
20
126.02398508048418
30
1.8692610559592584
10
134.48002373727425
20
126.49872241735736
30
1.8692610559587126
10
133.92545429774162
20
126.95886886351347
30
1.8692610559586509
10
133.37323498309803
20
127.39693964290618
30
1.8692610559589551
10
132.83200711855957
20
127.80607147544148
30
1.8692610559594662
10
132.30987646922199
20
128.1809345880323
30
1.8692610559600027
10
131.81380891309595
20
128.5185543610215
30
1.8692610559604086
10
131.34884535113559
20
128.819378286377
30
1.8692610559606069
10
130.91786756114976
20
129.08761260722093
30
1.8692610559606146
10
130.52218195460719
20
129.33044001675935
30
1.869261055960487
10
130.16188584765527
20
129.55757698713165
30
1.8692610559603005
10
129.83631214987344
20
129.78062504088109
30
1.8692610559601222
10
129.54440547894561
20
130.01276463796449
30
1.8692610559600142
10
129.2852108904226
20
130.26731995318264
30
1.8692610559600102
10
129.05851066526384
20
130.55508958894521
30
1.8692610559601206
10
128.86532480654793
20
130.88233450777346
30
1.869261055960316
10
128.70868635384488
20
131.24768715081959
30
1.869261055960515
10
128.59341855708226
20
131.64260239477332
30
1.8692610559605987
10
128.52496539304838
20
132.05507622737551
30
1.8692610559604801
10
128.50854688727478
20
132.47225590600192
30
1.8692610559601381
10
128.54802693326442
20
132.88386799733269
30
1.8692610559596765
10
128.64535100881358
20
133.28408133546591
30
1.8692610559593328
10
128.77008921269777
20
133.59279178237543
30
1.8692610559593636
10
128.89002313670565
20
133.81747917503981
30
1.8692610559596725
10
128.98168308098172
20
133.96423219166604
30
1.8692610559600151
10
129.03043901586815
20
134.03684915147829
30
1.8692610559602199
0
SPLINE
5
114
100
AcDbEntity
8
0
100
AcDbSpline
70
4
71
5
72
36
73
30
74
0
42
0.000000001
43
0.0000000001
44
0.0000000001
40
0
40
0
40
0
40
0
40
0
40
0
40
0.040000000000000001
40
0.080000000000000002
40
0.12
40
0.16
40
0.20000000000000001
40
0.24000000000000002
40
0.28000000000000003
40
0.32000000000000001
40
0.35999999999999999
40
0.39999999999999997
40
0.43999999999999995
40
0.47999999999999993
40
0.51999999999999991
40
0.55999999999999994
40
0.59999999999999998
40
0.64000000000000001
40
0.68000000000000005
40
0.72000000000000008
40
0.76000000000000012
40
0.80000000000000016
40
0.84000000000000019
40
0.88000000000000023
40
0.92000000000000026
40
0.9600000000000003
40
1
40
1
40
1
40
1
40
1
40
1
41
1
41
1
41
1
41
1
41
1
41
1
41
1
41
1
41
1
41
1
41
1
41
1
41
1
41
1
41
1
41
1
41
1
41
1
41
1
41
1
41
1
41
1
41
1
41
1
41
1
41
1
41
1
41
1
41
1
41
1
10
129.03043901586815
20
134.03684915147829
30
1.8692610559602199
10
129.09747244562948
20
134.11956284409885
30
1.869261055961178
10
129.23497294456419
20
134.27822896223336
30
1.8692610559627709
10
129.45152459215876
20
134.49594448378338
30
1.8692610559641585
10
129.76091583171464
20
134.74555745530529
30
1.8692610559642155
10
130.18234282174507
20
134.98864466896183
30
1.8692610559624609
10
130.63869681028055
20
135.16044105153981
30
1.8692610559602278
10
131.13002787314235
20
135.25708266811785
30
1.8692610559586489
10
131.65603256350096
20
135.27277842898971
30
1.8692610559581511
10
132.21557076709536
20
135.20182935154511
30
1.8692610559586276
10
132.80608112704567
20
135.04105783044557
30
1.8692610559596528
10
133.42311083879341
20
134.79184322555471
30
1.8692610559606992
10
134.05951176919643
20
134.46312743463585
30
1.8692610559613843
10
134.70565902264133
20
134.07149156213273
30
1.869261055961593
10
135.35106026984784
20
133.63729030839431
30
1.8692610559613643
10
135.98557723060341
20
133.18188803136854
30
1.8692610559608669
10
136.60085926684741
20
132.72437785489836
30
1.8692610559602993
10
137.19157501238954
20
132.27878036876854
30
1.8692610559598508
10
137.75710438033454
20
131.85031877502692
30
1.8692610559596143
10
138.30070953876574
20
131.43677395776874
30
1.8692610559596101
10
138.82807350136648
20
131.03112253900642
30
1.8692610559597898
10
139.34604825875203
20
130.62375341349704
30
1.8692610559600737
10
139.86143480846798
20
130.20465532153003
30
1.8692610559603671
10
140.3795261158773
20
129.76601015403244
30
1.8692610559606009
10
140.90364750474404
20
129.30304976309509
30
1.869261055960723
10
141.43576310487128
20
128.81304985550676
30
1.869261055960717
10
141.86857529794364
20
128.39849608179139
30
1.869261055960592
10
142.19730565361274
20
128.0747848085397
30
1.8692610559604312
10
142.41828576494586
20
127.85330561205603
30
1.8692610559602949
10
142.5292324754636
20
127.7411480587147
30
1.8692610559602199
0
SPLINE
5
115
100
AcDbEntity
8
0
100
AcDbSpline
70
4
71
5
72
21
73
15
74
0
42
0.000000001
43
0.0000000001
44
0.0000000001
40
0
40
0
40
0
40
0
40
0
40
0
40
0.10000000000000001
40
0.20000000000000001
40
0.30000000000000004
40
0.40000000000000002
40
0.5
40
0.59999999999999998
40
0.69999999999999996
40
0.79999999999999993
40
0.89999999999999991
40
1
40
1
40
1
40
1
40
1
40
1
41
1
41
1
41
1
41
1
41
1
41
1
41
1
41
1
41
1
41
1
41
1
41
1
41
1
41
1
41
1
10
146.45468054674564
20
106.99235111050925
30
1.8692610559602199
10
146.41145142884486
20
107.19181668470017
30
1.8692610559601439
10
146.32128244058586
20
107.59128814166259
30
1.8692610559600147
10
146.17489670997054
20
108.19211625151651
30
1.8692610559598917
10
145.95708487259654
20
108.99651559207911
30
1.8692610559598331
10
145.64459673152305
20
110.00787153625618
30
1.8692610559598877
10
145.28850636206036
20
111.02557623536539
30
1.869261055960036
10
144.88558939783456
20
112.05009917713591
30
1.8692610559602532
10
144.43470902372891
20
113.0816058888872
30
1.8692610559605007
10
143.93842729296031
20
114.11972331976928
30
1.8692610559607081
10
143.40045742434802
20
115.1639108020823
30
1.8692610559607923
10
142.93960763537882
20
116.00369797591208
30
1.8692610559606968
10
142.57793975036154
20
116.63587250280764
30
1.8692610559605072
10
142.32982006338571
20
117.0583425612507
30
1.8692610559603249
10
142.20400818467712
20
117.26983269766627
30
1.8692610559602199
0
SPLINE
5
116
100
AcDbEntity
8
0
100
AcDbSpline
70
4
71
5
72
46
73
40
74
0
42
0.000000001
43
0.0000000001
44
0.0000000001
40
0
40
0
40
0
40
0
40
0
40
0
40
0.028571428571428571
40
0.057142857142857141
40
0.085714285714285715
40
0.11428571428571428
40
0.14285714285714285
40
0.17142857142857143
40
0.20000000000000001
40
0.22857142857142859
40
0.25714285714285717
40
0.28571428571428575
40
0.31428571428571433
40
0.34285714285714292
40
0.3714285714285715
40
0.40000000000000008
40
0.42857142857142866
40
0.45714285714285724
40
0.48571428571428582
40
0.51428571428571435
40
0.54285714285714293
40
0.57142857142857151
40
0.60000000000000009
40
0.62857142857142867
40
0.65714285714285725
40
0.68571428571428583
40
0.71428571428571441
40
0.74285714285714299
40
0.77142857142857157
40
0.80000000000000016
40
0.82857142857142874
40
0.85714285714285732
40
0.8857142857142859
40
0.91428571428571448
40
0.94285714285714306
40
0.97142857142857164
40
1
40
1
40
1
40
1
40
1
40
1
41
1
41
1
41
1
41
1
41
1
41
1
41
1
41
1
41
1
41
1
41
1
41
1
41
1
41
1
41
1
41
1
41
1
41
1
41
1
41
1
41
1
41
1
41
1
41
1
41
1
41
1
41
1
41
1
41
1
41
1
41
1
41
1
41
1
41
1
41
1
41
1
41
1
41
1
41
1
41
1
10
147.01545884264317
20
122.41375424768904
30
1.8692610559602199
10
147.13460212110337
20
122.27434492420747
30
1.8692610559612663
10
147.37036833546085
20
121.99062343286542
30
1.8692610559631397
10
147.71645662345244
20
121.5503326401212
30
1.8692610559652882
10
148.16276554735816
20
120.93382220690802
30
1.8692610559668603
10
148.69533126641184
20
120.1144086517057
30
1.8692610559670184
10
149.20253024014988
20
119.24757452416776
30
1.8692610559658447
10
149.68442288180435
20
118.33632995496103
30
1.8692610559639025
10
150.14125598857385
20
117.38599530844377
30
1.869261055961736
10
150.57352759241604
20
116.40480821739345
30
1.8692610559598279
10
150.98209678004383
20
115.40468993432765
30
1.8692610559584975
10
151.36817801688355
20
114.40161707447729
30
1.8692610559578604
10
151.73265135969589
20
113.4135797701806
30
1.8692610559578759
10
152.07543702901236
20
112.45880675325664
30
1.8692610559583736
10
152.39487453888256
20
111.55393338626753
30
1.8692610559591221
10
152.68702353856818
20
110.71208661578453
30
1.869261055959879
10
152.94515451558209
20
109.94121196752936
30
1.8692610559604461
10
153.15874614662749
20
109.24170982970757
30
1.869261055960715
10
153.31399677697067
20
108.60615581243751
30
1.8692610559607095
10
153.39732227133678
20
108.02329003947939
30
1.8692610559605183
10
153.39843935821833
20
107.48121587649484
30
1.8692610559602616
10
153.31319398206278
20
106.97061828136655
30
1.8692610559600651
10
153.14766179782146
20
106.48869138430683
30
1.8692610559599923
10
152.91466813598475
20
106.03831585559138
30
1.869261055960052
10
152.62752004498881
20
105.62552685424642
30
1.8692610559602016
10
152.29497481057834
20
105.25763644301622
30
1.8692610559603713
10
151.91492370209968
20
104.94090643713915
30
1.8692610559604659
10
151.48018178813342
20
104.68121714970354
30
1.8692610559604246
10
150.98511765580332
20
104.48492245891933
30
1.8692610559602238
10
150.43231499761399
20
104.35969200500119
30
1.8692610559599212
10
149.83836882243634
20
104.31520372065093
30
1.8692610559596721
10
149.22800060547357
20
104.36186282658167
30
1.8692610559596636
10
148.6288970940995
20
104.50961535148383
30
1.8692610559600165
10
148.06663231127442
20
104.76680779355037
30
1.8692610559607183
10
147.55870407715531
20
105.13877132721578
30
1.8692610559615275
10
147.11513319236531
20
105.62823944209202
30
1.8692610559620384
10
146.81565378359014
20
106.11463552963397
30
1.8692610559618665
10
146.62282357369145
20
106.53277589031207
30
1.8692610559612512
10
146.50837711578308
20
106.83521320768162
30
1.8692610559606024
10
146.45468054674564
20
106.99235111050925
30
1.8692610559602199
0
SPLINE
5
117
100
AcDbEntity
8
0
100
AcDbSpline
70
4
71
5
72
56
73
50
74
0
42
0.000000001
43
0.0000000001
44
0.0000000001
40
0
40
0
40
0
40
0
40
0
40
0
40
0.022222222222222223
40
0.044444444444444446
40
0.066666666666666666
40
0.088888888888888892
40
0.11111111111111112
40
0.13333333333333333
40
0.15555555555555556
40
0.17777777777777778
40
0.20000000000000001
40
0.22222222222222224
40
0.24444444444444446
40
0.26666666666666666
40
0.28888888888888886
40
0.31111111111111106
40
0.33333333333333326
40
0.35555555555555546
40
0.37777777777777766
40
0.39999999999999986
40
0.42222222222222205
40
0.44444444444444425
40
0.46666666666666645
40
0.48888888888888865
40
0.51111111111111085
40
0.5333333333333331
40
0.55555555555555536
40
0.57777777777777761
40
0.59999999999999987
40
0.62222222222222212
40
0.64444444444444438
40
0.66666666666666663
40
0.68888888888888888
40
0.71111111111111114
40
0.73333333333333339
40
0.75555555555555565
40
0.7777777777777779
40
0.80000000000000016
40
0.82222222222222241
40
0.84444444444444466
40
0.86666666666666692
40
0.88888888888888917
40
0.91111111111111143
40
0.93333333333333368
40
0.95555555555555594
40
0.97777777777777819
40
1
40
1
40
1
40
1
40
1
40
1
41
1
41
1
41
1
41
1
41
1
41
1
41
1
41
1
41
1
41
1
41
1
41
1
41
1
41
1
41
1
41
1
41
1
41
1
41
1
41
1
41
1
41
1
41
1
41
1
41
1
41
1
41
1
41
1
41
1
41
1
41
1
41
1
41
1
41
1
41
1
41
1
41
1
41
1
41
1
41
1
41
1
41
1
41
1
41
1
41
1
41
1
41
1
41
1
41
1
41
1
10
142.5292324754636
20
127.7411480587147
30
1.8692610559602199
10
142.60751472757431
20
127.8632137002984
30
1.8692610559614113
10
142.76420372991228
20
128.10971978777744
30
1.8692610559635137
10
142.99961077555
20
128.48660338546438
30
1.8692610559658052
10
143.31423411086388
20
129.00337478230608
30
1.8692610559671952
10
143.70829265640418
20
129.67245825894935
30
1.8692610559667278
10
144.10171744168267
20
130.36259328759422
30
1.8692610559648428
10
144.49168775634138
20
131.06956737105375
30
1.8692610559624163
10
144.8734620731218
20
131.78623711897518
30
1.8692610559602238
10
145.2399752259586
20
132.50186459171985
30
1.8692610559588052
10
145.58113267598671
20
133.20110771034092
30
1.8692610559583049
10
145.88628933770605
20
133.86664675976724
30
1.8692610559585534
10
146.14698430816685
20
134.48212161658719
30
1.8692610559592262
10
146.35980278925234
20
135.03516156237754
30
1.8692610559599645
10
146.52872167424778
20
135.51993397189679
30
1.869261055960467
10
146.66887003295653
20
135.94103098033327
30
1.8692610559606182
10
146.80548321175718
20
136.31279514621531
30
1.8692610559604927
10
146.965423243369
20
136.65158381934094
30
1.8692610559602483
10
147.17105594022445
20
136.97028012416672
30
1.8692610559600569
10
147.43184281669522
20
137.27062335288608
30
1.8692610559600076
10
147.74673562416066
20
137.54587068840056
30
1.8692610559600964
10
148.10874320517775
20
137.78550841746426
30
1.8692610559602663
10
148.50917643180165
20
137.97973735691241
30
1.8692610559604237
10
148.94067734859294
20
138.1225748495398
30
1.8692610559604792
10
149.39584562923574
20
138.21012089600833
30
1.869261055960372
10
149.86681954617995
20
138.23988373082838
30
1.8692610559601133
10
150.34424916177872
20
138.20942838839429
30
1.869261055959814
10
150.81736859735989
20
138.11631247141935
30
1.8692610559596869
10
151.27524939734036
20
137.95948046177995
30
1.8692610559598912
10
151.70763921123867
20
137.74007896623533
30
1.8692610559604548
10
152.10624778820358
20
137.46302500889456
30
1.8692610559611387
10
152.4647920675736
20
137.13631960741878
30
1.8692610559614673
10
152.77761071129825
20
136.76765009556703
30
1.8692610559610316
10
153.03876843819083
20
136.36199636483843
30
1.8692610559596925
10
153.24069757368463
20
135.91814240283861
30
1.8692610559578915
10
153.37402190550827
20
135.42817121187565
30
1.8692610559566183
10
153.42872462112953
20
134.88041383629096
30
1.8692610559570038
10
153.39495577906945
20
134.26146461549783
30
1.8692610559600125
10
153.26403432948405
20
133.55867084672207
30
1.8692610559660896
10
153.02924249808274
20
132.76213029620286
30
1.869261055974845
10
152.68550490009596
20
131.86420504455731
30
1.8692610559852749
10
152.22917719053007
20
130.85926789220804
30
1.8692610559959011
10
151.65780268304471
20
129.7433719482265
30
1.8692610560049425
10
150.96989173722559
20
128.51396350872091
30
1.869261056010467
10
150.16469989615413
20
127.16958619894511
30
1.8692610560105636
10
149.24201441947773
20
125.7095978784298
30
1.8692610560034864
10
148.40995837359839
20
124.44903169035868
30
1.8692610559909573
10
147.73319490703369
20
123.45160120782823
30
1.8692610559772804
10
147.25860634981427
20
122.76355242287975
30
1.8692610559662282
10
147.01545884264317
20
122.41375424768906
30
1.8692610559602203
0
SPLINE
5
118
100
AcDbEntity
8
0
100
AcDbSpline
70
4
71
5
72
71
73
65
74
0
42
0.000000001
43
0.0000000001
44
0.0000000001
40
0
40
0
40
0
40
0
40
0
40
0
40
0.016666666666666666
40
0.033333333333333333
40
0.050000000000000003
40
0.066666666666666666
40
0.083333333333333329
40
0.099999999999999992
40
0.11666666666666665
40
0.13333333333333333
40
0.14999999999999999
40
0.16666666666666666
40
0.18333333333333332
40
0.19999999999999998
40
0.21666666666666665
40
0.23333333333333331
40
0.24999999999999997
40
0.26666666666666666
40
0.28333333333333333
40
0.29999999999999999
40
0.31666666666666665
40
0.33333333333333331
40
0.34999999999999998
40
0.36666666666666664
40
0.3833333333333333
40
0.39999999999999997
40
0.41666666666666663
40
0.43333333333333329
40
0.44999999999999996
40
0.46666666666666662
40
0.48333333333333328
40
0.49999999999999994
40
0.51666666666666661
40
0.53333333333333333
40
0.55000000000000004
40
0.56666666666666676
40
0.58333333333333348
40
0.6000000000000002
40
0.61666666666666692
40
0.63333333333333364
40
0.65000000000000036
40
0.66666666666666707
40
0.68333333333333379
40
0.70000000000000051
40
0.71666666666666723
40
0.73333333333333395
40
0.75000000000000067
40
0.76666666666666738
40
0.7833333333333341
40
0.80000000000000082
40
0.81666666666666754
40
0.83333333333333426
40
0.85000000000000098
40
0.8666666666666677
40
0.88333333333333441
40
0.90000000000000113
40
0.91666666666666785
40
0.93333333333333457
40
0.95000000000000129
40
0.96666666666666801
40
0.98333333333333472
40
1
40
1
40
1
40
1
40
1
40
1
41
1
41
1
41
1
41
1
41
1
41
1
41
1
41
1
41
1
41
1
41
1
41
1
41
1
41
1
41
1
41
1
41
1
41
1
41
1
41
1
41
1
41
1
41
1
41
1
41
1
41
1
41
1
41
1
41
1
41
1
41
1
41
1
41
1
41
1
41
1
41
1
41
1
41
1
41
1
41
1
41
1
41
1
41
1
41
1
41
1
41
1
41
1
41
1
41
1
41
1
41
1
41
1
41
1
41
1
41
1
41
1
41
1
41
1
41
1
41
1
41
1
41
1
41
1
41
1
41
1
10
142.20400818467712
20
117.26983269766627
30
1.8692610559602199
10
142.06908204315906
20
117.1501161987586
30
1.8692610559601206
10
141.79887164673474
20
116.91265190233867
30
1.8692610559599454
10
141.39248171950786
20
116.5623615602253
30
1.8692610559597473
10
140.84847877999306
20
116.10712533228931
30
1.8692610559596021
10
140.16502555139724
20
115.55781288298772
30
1.8692610559595573
10
139.47853134008864
20
115.02829062776664
30
1.8692610559596234
10
138.78982334482038
20
114.51863245725855
30
1.8692610559597713
10
138.10028353280697
20
114.02892627575892
30
1.8692610559599701
10
137.41200350739521
20
113.55926768014599
30
1.8692610559601739
10
136.72789839452329
20
113.10976193914837
30
1.8692610559603327
10
136.05192680520378
20
112.68050454503918
30
1.8692610559604181
10
135.38881274582369
20
112.27166334071997
30
1.8692610559604297
10
134.743522808829
20
111.88361248446915
30
1.8692610559603906
10
134.12082494815496
20
111.51704622832197
30
1.869261055960324
10
133.52480416754827
20
111.17310998408487
30
1.8692610559602552
10
132.95841583338358
20
110.85350449121562
30
1.8692610559602003
10
132.42297103172888
20
110.56065038999546
30
1.8692610559601741
10
131.91780966209976
20
110.29767468441193
30
1.8692610559601708
10
131.44051283894851
20
110.0679484750688
30
1.8692610559601892
10
130.98696612620256
20
109.87468542595218
30
1.8692610559602074
10
130.55157397390505
20
109.72056464847606
30
1.8692610559602314
10
130.12717341609192
20
109.60722298200832
30
1.8692610559602478
10
129.70597784214976
20
109.53525595482714
30
1.8692610559602485
10
129.28194200027744
20
109.50489252423876
30
1.8692610559602321
10
128.85248457822533
20
109.51641616085682
30
1.8692610559602072
10
128.42111937873955
20
109.57086887168428
30
1.8692610559601894
10
127.99714349585413
20
109.66990500273343
30
1.8692610559601899
10
127.59243144794043
20
109.81477952472659
30
1.8692610559602099
10
127.21922542097666
20
110.00569613963745
30
1.8692610559602361
10
126.88704596284209
20
110.24071091676666
30
1.8692610559602527
10
126.60212618460803
20
110.51617730814569
30
1.8692610559602456
10
126.36833764526601
20
110.82821043197647
30
1.8692610559602225
10
126.1876915329641
20
111.17376245270036
30
1.869261055960195
10
126.06096479196496
20
111.5520702812147
30
1.869261055960175
10
125.98882718353823
20
111.96220917550067
30
1.8692610559601888
10
125.97290455848994
20
112.40060632916808
30
1.8692610559602238
10
126.01713094348655
20
112.85817240570105
30
1.8692610559602718
10
126.12819468333697
20
113.31873382509038
30
1.8692610559603051
10
126.31183330753741
20
113.7634894676257
30
1.8692610559602971
10
126.56973131008714
20
114.17461155018727
30
1.8692610559602301
10
126.89612516847558
20
114.53919493000669
30
1.8692610559601155
10
127.27464911787069
20
114.85302427673057
30
1.8692610559600142
10
127.68421963948913
20
115.11921326411075
30
1.8692610559600007
10
128.10516049064412
20
115.34690714243246
30
1.8692610559601242
10
128.52459974914154
20
115.5499235991314
30
1.8692610559603884
10
128.94377176706857
20
115.74556079615823
30
1.8692610559606826
10
129.37542137525611
20
115.95256761306123
30
1.8692610559608414
10
129.83707093529398
20
116.18871064006473
30
1.8692610559607004
10
130.34587006157483
20
116.46858271190139
30
1.8692610559601641
10
130.91225402952017
20
116.80104948738075
30
1.8692610559592702
10
131.53573103341367
20
117.1876221716962
30
1.8692610559582352
10
132.20793205267643
20
117.62434908041753
30
1.8692610559573666
10
132.91458470150073
20
118.10317386109857
30
1.8692610559569942
10
133.63786718593215
20
118.61347601244964
30
1.8692610559574041
10
134.35865142110592
20
119.14356611952336
30
1.8692610559587439
10
135.05865029721306
20
119.68210662333652
30
1.8692610559609668
10
135.72294583527008
20
120.21978453513752
30
1.8692610559637337
10
136.34118542567336
20
120.75011652753851
30
1.8692610559664122
10
136.9064643512051
20
121.26875191235003
30
1.8692610559682257
10
137.41474127575975
20
121.77312098988071
30
1.8692610559683671
10
137.77418463847226
20
122.16418259391088
30
1.869261055966567
10
138.01696043685641
20
122.4503014943505
30
1.869261055963922
10
138.16690200091773
20
122.63785879212713
30
1.8692610559615539
10
138.23889555564182
20
122.73084029164231
30
1.8692610559602199
0
SPLINE
5
119
100
AcDbEntity
8
0
100
AcDbSpline
70
4
71
5
72
56
73
50
74
0
42
0.000000001
43
0.0000000001
44
0.0000000001
40
0
40
0
40
0
40
0
40
0
40
0
40
0.022222222222222223
40
0.044444444444444446
40
0.066666666666666666
40
0.088888888888888892
40
0.11111111111111112
40
0.13333333333333333
40
0.15555555555555556
40
0.17777777777777778
40
0.20000000000000001
40
0.22222222222222224
40
0.24444444444444446
40
0.26666666666666666
40
0.28888888888888886
40
0.31111111111111106
40
0.33333333333333326
40
0.35555555555555546
40
0.37777777777777766
40
0.39999999999999986
40
0.42222222222222205
40
0.44444444444444425
40
0.46666666666666645
40
0.48888888888888865
40
0.51111111111111085
40
0.5333333333333331
40
0.55555555555555536
40
0.57777777777777761
40
0.59999999999999987
40
0.62222222222222212
40
0.64444444444444438
40
0.66666666666666663
40
0.68888888888888888
40
0.71111111111111114
40
0.73333333333333339
40
0.75555555555555565
40
0.7777777777777779
40
0.80000000000000016
40
0.82222222222222241
40
0.84444444444444466
40
0.86666666666666692
40
0.88888888888888917
40
0.91111111111111143
40
0.93333333333333368
40
0.95555555555555594
40
0.97777777777777819
40
1
40
1
40
1
40
1
40
1
40
1
41
1
41
1
41
1
41
1
41
1
41
1
41
1
41
1
41
1
41
1
41
1
41
1
41
1
41
1
41
1
41
1
41
1
41
1
41
1
41
1
41
1
41
1
41
1
41
1
41
1
41
1
41
1
41
1
41
1
41
1
41
1
41
1
41
1
41
1
41
1
41
1
41
1
41
1
41
1
41
1
41
1
41
1
41
1
41
1
41
1
41
1
41
1
41
1
41
1
41
1
10
232.5292324754636
20
127.7411480587147
30
1.8692610559602199
10
232.60751472762166
20
127.8632137002984
30
1.8692610559614113
10
232.76420373004285
20
128.10971978777744
30
1.8692610559635137
10
232.99961077577112
20
128.48660338546438
30
1.8692610559658052
10
233.31423411113974
20
129.00337478230608
30
1.8692610559671952
10
233.70829265666228
20
129.67245825894935
30
1.8692610559667278
10
234.10171744186724
20
130.36259328759422
30
1.8692610559648428
10
234.49168775643028
20
131.06956737105375
30
1.8692610559624163
10
234.87346207312245
20
131.78623711897518
30
1.8692610559602238
10
235.23997522590051
20
132.50186459171985
30
1.8692610559588052
10
235.58113267590684
20
133.20110771034092
30
1.8692610559583049
10
235.88628933763596
20
133.86664675976724
30
1.8692610559585534
10
236.14698430812462
20
134.48212161658719
30
1.8692610559592262
10
236.35980278924137
20
135.03516156237754
30
1.8692610559599645
10
236.52872167425824
20
135.51993397189679
30
1.869261055960467
10
236.66887003297435
20
135.94103098033327
30
1.8692610559606182
10
236.80548321176963
20
136.31279514621531
30
1.8692610559604927
10
236.96542324337042
20
136.65158381934094
30
1.8692610559602483
10
237.17105594021692
20
136.97028012416672
30
1.8692610559600569
10
237.43184281668522
20
137.27062335288608
30
1.8692610559600076
10
237.7467356241547
20
137.54587068840056
30
1.8692610559600964
10
238.10874320517999
20
137.78550841746426
30
1.8692610559602663
10
238.50917643181165
20
137.97973735691241
30
1.8692610559604237
10
238.94067734860567
20
138.1225748495398
30
1.8692610559604792
10
239.39584562924313
20
138.21012089600833
30
1.869261055960372
10
239.86681954617472
20
138.23988373082838
30
1.8692610559601133
10
240.34424916175908
20
138.20942838839429
30
1.869261055959814
10
240.81736859733428
20
138.11631247141935
30
1.8692610559596869
10
241.27524939732481
20
137.95948046177995
30
1.8692610559598912
10
241.70763921124978
20
137.74007896623533
30
1.8692610559604548
10
242.106247788247
20
137.46302500889456
30
1.8692610559611387
10
242.46479206763229
20
137.13631960741878
30
1.8692610559614673
10
242.77761071133631
20
136.76765009556703
30
1.8692610559610316
10
243.03876843816613
20
136.36199636483843
30
1.8692610559596925
10
243.24069757357535
20
135.91814240283861
30
1.8692610559578915
10
243.37402190533913
20
135.42817121187565
30
1.8692610559566183
10
243.42872462097841
20
134.88041383629096
30
1.8692610559570038
10
243.39495577905973
20
134.26146461549783
30
1.8692610559600125
10
243.26403432975968
20
133.55867084672207
30
1.8692610559660896
10
243.02924249876986
20
132.76213029620286
30
1.869261055974845
10
242.6855049012737
20
131.86420504455731
30
1.8692610559852749
10
242.22917719220803
20
130.85926789220804
30
1.8692610559959011
10
241.65780268514854
20
129.7433719482265
30
1.8692610560049425
10
240.96989173959028
20
128.51396350872091
30
1.869261056010467
10
240.16469989852467
20
127.16958619894511
30
1.8692610560105636
10
239.24201442151644
20
125.7095978784298
30
1.8692610560034864
10
238.40995837504761
20
124.44903169035868
30
1.8692610559909573
10
237.73319490783837
20
123.45160120782823
30
1.8692610559772804
10
237.25860635009766
20
122.76355242287975
30
1.8692610559662282
10
237.0154588426432
20
122.41375424768906
30
1.8692610559602203
0
SPLINE
5
120
100
AcDbEntity
8
0
100
AcDbSpline
70
4
71
5
72
41
73
35
74
0
42
0.000000001
43
0.0000000001
44
0.0000000001
40
0
40
0
40
0
40
0
40
0
40
0
40
0.033333333333333333
40
0.066666666666666666
40
0.10000000000000001
40
0.13333333333333333
40
0.16666666666666666
40
0.19999999999999998
40
0.23333333333333331
40
0.26666666666666666
40
0.29999999999999999
40
0.33333333333333331
40
0.36666666666666664
40
0.39999999999999997
40
0.43333333333333329
40
0.46666666666666662
40
0.49999999999999994
40
0.53333333333333333
40
0.56666666666666665
40
0.59999999999999998
40
0.6333333333333333
40
0.66666666666666663
40
0.69999999999999996
40
0.73333333333333328
40
0.76666666666666661
40
0.79999999999999993
40
0.83333333333333326
40
0.86666666666666659
40
0.89999999999999991
40
0.93333333333333324
40
0.96666666666666656
40
1
40
1
40
1
40
1
40
1
40
1
41
1
41
1
41
1
41
1
41
1
41
1
41
1
41
1
41
1
41
1
41
1
41
1
41
1
41
1
41
1
41
1
41
1
41
1
41
1
41
1
41
1
41
1
41
1
41
1
41
1
41
1
41
1
41
1
41
1
41
1
41
1
41
1
41
1
41
1
41
1
10
228.23889555564182
20
122.73084029164231
30
1.8692610559602199
10
228.16659831274424
20
122.82000307658841
30
1.8692610559608926
10
228.0190858114513
20
122.99917723659877
30
1.8692610559620879
10
227.78906299870667
20
123.27048426613216
30
1.8692610559634226
10
227.46482621147396
20
123.63732760910989
30
1.8692610559643021
10
227.03039189263922
20
124.10415589118142
30
1.8692610559641452
10
226.56742827159658
20
124.57847923733138
30
1.8692610559631215
10
226.07739908567675
20
125.05866914270553
30
1.8692610559616984
10
225.56299016811897
20
125.54192374980778
30
1.8692610559602998
10
225.02844520457381
20
126.02398508048418
30
1.8692610559592584
10
224.48002373727377
20
126.49872241735736
30
1.8692610559587126
10
223.92545429774202
20
126.95886886351347
30
1.8692610559586509
10
223.37323498309883
20
127.39693964290618
30
1.8692610559589551
10
222.83200711856034
20
127.80607147544148
30
1.8692610559594662
10
222.30987646922244
20
128.1809345880323
30
1.8692610559600027
10
221.81380891309558
20
128.5185543610215
30
1.8692610559604086
10
221.3488453511346
20
128.819378286377
30
1.8692610559606069
10
220.91786756114891
20
129.08761260722093
30
1.8692610559606146
10
220.52218195460716
20
129.33044001675935
30
1.869261055960487
10
220.16188584765575
20
129.55757698713165
30
1.8692610559603005
10
219.83631214987312
20
129.78062504088109
30
1.8692610559601222
10
219.54440547894376
20
130.01276463796449
30
1.8692610559600142
10
219.28521089041971
20
130.26731995318264
30
1.8692610559600102
10
219.05851066526213
20
130.55508958894521
30
1.8692610559601206
10
218.86532480654935
20
130.88233450777346
30
1.869261055960316
10
218.70868635385111
20
131.24768715081959
30
1.869261055960515
10
218.59341855709104
20
131.64260239477332
30
1.8692610559605987
10
218.52496539305477
20
132.05507622737551
30
1.8692610559604801
10
218.50854688727284
20
132.47225590600192
30
1.8692610559601381
10
218.5480269332507
20
132.88386799733269
30
1.8692610559596765
10
218.64535100879118
20
133.28408133546591
30
1.8692610559593328
10
218.7700892126762
20
133.59279178237543
30
1.8692610559593636
10
218.89002313669207
20
133.81747917503981
30
1.8692610559596725
10
218.98168308097667
20
133.96423219166604
30
1.8692610559600151
10
219.03043901586815
20
134.03684915147829
30
1.8692610559602199
0
SPLINE
5
121
100
AcDbEntity
8
0
100
AcDbSpline
70
4
71
5
72
36
73
30
74
0
42
0.000000001
43
0.0000000001
44
0.0000000001
40
0
40
0
40
0
40
0
40
0
40
0
40
0.040000000000000001
40
0.080000000000000002
40
0.12
40
0.16
40
0.20000000000000001
40
0.24000000000000002
40
0.28000000000000003
40
0.32000000000000001
40
0.35999999999999999
40
0.39999999999999997
40
0.43999999999999995
40
0.47999999999999993
40
0.51999999999999991
40
0.55999999999999994
40
0.59999999999999998
40
0.64000000000000001
40
0.68000000000000005
40
0.72000000000000008
40
0.76000000000000012
40
0.80000000000000016
40
0.84000000000000019
40
0.88000000000000023
40
0.92000000000000026
40
0.9600000000000003
40
1
40
1
40
1
40
1
40
1
40
1
41
1
41
1
41
1
41
1
41
1
41
1
41
1
41
1
41
1
41
1
41
1
41
1
41
1
41
1
41
1
41
1
41
1
41
1
41
1
41
1
41
1
41
1
41
1
41
1
41
1
41
1
41
1
41
1
41
1
41
1
10
219.03043901586815
20
134.03684915147829
30
1.8692610559602199
10
219.09747244568285
20
134.11956284409885
30
1.869261055961178
10
219.23497294470644
20
134.27822896223336
30
1.8692610559627709
10
219.45152459237897
20
134.49594448378338
30
1.8692610559641585
10
219.76091583193866
20
134.74555745530529
30
1.8692610559642155
10
220.18234282187134
20
134.98864466896183
30
1.8692610559624609
10
220.63869681028135
20
135.16044105153981
30
1.8692610559602278
10
221.13002787305311
20
135.25708266811785
30
1.8692610559586489
10
221.65603256338204
20
135.27277842898971
30
1.8692610559581511
10
222.21557076700279
20
135.20182935154511
30
1.8692610559586276
10
222.80608112701213
20
135.04105783044557
30
1.8692610559596528
10
223.42311083882146
20
134.79184322555471
30
1.8692610559606992
10
224.05951176926632
20
134.46312743463585
30
1.8692610559613843
10
224.70565902272591
20
134.07149156213273
30
1.869261055961593
10
225.35106026992094
20
133.63729030839431
30
1.8692610559613643
10
225.98557723064692
20
133.18188803136854
30
1.8692610559608669
10
226.60085926685412
20
132.72437785489836
30
1.8692610559602993
10
227.19157501236324
20
132.27878036876854
30
1.8692610559598508
10
227.75710438028639
20
131.85031877502692
30
1.8692610559596143
10
228.30070953871194
20
131.43677395776874
30
1.8692610559596101
10
228.82807350132353
20
131.03112253900642
30
1.8692610559597898
10
229.3460482587343
20
130.62375341349704
30
1.8692610559600737
10
229.86143480848375
20
130.20465532153003
30
1.8692610559603671
10
230.37952611592797
20
129.76601015403244
30
1.8692610559606009
10
230.9036475048205
20
129.30304976309509
30
1.869261055960723
10
231.43576310495507
20
128.81304985550676
30
1.869261055960717
10
231.86857529801117
20
128.39849608179139
30
1.869261055960592
10
232.19730565365273
20
128.0747848085397
30
1.8692610559604312
10
232.41828576496033
20
127.85330561205603
30
1.8692610559602949
10
232.5292324754636
20
127.7411480587147
30
1.8692610559602199
0
CIRCLE
5
122
100
AcDbEntity
8
0
100
AcDbCircle
10
230.15204330068539
20
138.76033194931745
30
1.8692610559602199
40
4.588988503407367
210
0
220
-0
230
1
0
SPLINE
5
123
100
AcDbEntity
8
0
100
AcDbSpline
70
4
71
5
72
71
73
65
74
0
42
0.000000001
43
0.0000000001
44
0.0000000001
40
0
40
0
40
0
40
0
40
0
40
0
40
0.016666666666666666
40
0.033333333333333333
40
0.050000000000000003
40
0.066666666666666666
40
0.083333333333333329
40
0.099999999999999992
40
0.11666666666666665
40
0.13333333333333333
40
0.14999999999999999
40
0.16666666666666666
40
0.18333333333333332
40
0.19999999999999998
40
0.21666666666666665
40
0.23333333333333331
40
0.24999999999999997
40
0.26666666666666666
40
0.28333333333333333
40
0.29999999999999999
40
0.31666666666666665
40
0.33333333333333331
40
0.34999999999999998
40
0.36666666666666664
40
0.3833333333333333
40
0.39999999999999997
40
0.41666666666666663
40
0.43333333333333329
40
0.44999999999999996
40
0.46666666666666662
40
0.48333333333333328
40
0.49999999999999994
40
0.51666666666666661
40
0.53333333333333333
40
0.55000000000000004
40
0.56666666666666676
40
0.58333333333333348
40
0.6000000000000002
40
0.61666666666666692
40
0.63333333333333364
40
0.65000000000000036
40
0.66666666666666707
40
0.68333333333333379
40
0.70000000000000051
40
0.71666666666666723
40
0.73333333333333395
40
0.75000000000000067
40
0.76666666666666738
40
0.7833333333333341
40
0.80000000000000082
40
0.81666666666666754
40
0.83333333333333426
40
0.85000000000000098
40
0.8666666666666677
40
0.88333333333333441
40
0.90000000000000113
40
0.91666666666666785
40
0.93333333333333457
40
0.95000000000000129
40
0.96666666666666801
40
0.98333333333333472
40
1
40
1
40
1
40
1
40
1
40
1
41
1
41
1
41
1
41
1
41
1
41
1
41
1
41
1
41
1
41
1
41
1
41
1
41
1
41
1
41
1
41
1
41
1
41
1
41
1
41
1
41
1
41
1
41
1
41
1
41
1
41
1
41
1
41
1
41
1
41
1
41
1
41
1
41
1
41
1
41
1
41
1
41
1
41
1
41
1
41
1
41
1
41
1
41
1
41
1
41
1
41
1
41
1
41
1
41
1
41
1
41
1
41
1
41
1
41
1
41
1
41
1
41
1
41
1
41
1
41
1
41
1
41
1
41
1
41
1
41
1
10
232.20400818467712
20
117.26983269766627
30
1.8692610559602199
10
232.06908204307723
20
117.1501161987586
30
1.8692610559601206
10
231.79887164650611
20
116.91265190233867
30
1.8692610559599454
10
231.39248171910953
20
116.5623615602253
30
1.8692610559597473
10
230.84847877946643
20
116.10712533228931
30
1.8692610559596021
10
230.16502555084662
20
115.55781288298772
30
1.8692610559595573
10
229.47853133961505
20
115.02829062776664
30
1.8692610559596234
10
228.78982334448435
20
114.51863245725855
30
1.8692610559597713
10
228.10028353262999
20
114.02892627575892
30
1.8692610559599701
10
227.41200350736455
20
113.55926768014599
30
1.8692610559601739
10
226.72789839460106
20
113.10976193914837
30
1.8692610559603327
10
226.05192680534088
20
112.68050454503918
30
1.8692610559604181
10
225.38881274597273
20
112.27166334071997
30
1.8692610559604297
10
224.74352280895226
20
111.88361248446915
30
1.8692610559603906
10
224.12082494823113
20
111.51704622832197
30
1.869261055960324
10
223.52480416757379
20
111.17310998408487
30
1.8692610559602552
10
222.95841583336977
20
110.85350449121562
30
1.8692610559602003
10
222.42297103169557
20
110.56065038999546
30
1.8692610559601741
10
221.91780966206568
20
110.29767468441193
30
1.8692610559601708
10
221.44051283892665
20
110.0679484750688
30
1.8692610559601892
10
220.98696612619665
20
109.87468542595218
30
1.8692610559602074
10
220.55157397391142
20
109.72056464847606
30
1.8692610559602314
10
220.12717341610261
20
109.60722298200832
30
1.8692610559602478
10
219.70597784215806
20
109.53525595482714
30
1.8692610559602485
10
219.28194200027971
20
109.50489252423876
30
1.8692610559602321
10
218.85248457822246
20
109.51641616085682
30
1.8692610559602072
10
218.42111937873449
20
109.57086887168428
30
1.8692610559601894
10
217.99714349585028
20
109.66990500273343
30
1.8692610559601899
10
217.59243144793965
20
109.81477952472659
30
1.8692610559602099
10
217.21922542097826
20
110.00569613963745
30
1.8692610559602361
10
216.88704596284438
20
110.24071091676666
30
1.8692610559602527
10
216.60212618460963
20
110.51617730814569
30
1.8692610559602456
10
216.36833764526614
20
110.82821043197647
30
1.8692610559602225
10
216.1876915329623
20
111.17376245270036
30
1.869261055960195
10
216.06096479196211
20
111.5520702812147
30
1.869261055960175
10
215.98882718353647
20
111.96220917550067
30
1.8692610559601888
10
215.97290455849014
20
112.40060632916808
30
1.8692610559602238
10
216.01713094348983
20
112.85817240570105
30
1.8692610559602718
10
216.12819468334249
20
113.31873382509038
30
1.8692610559603051
10
216.31183330754251
20
113.7634894676257
30
1.8692610559602971
10
216.56973131008772
20
114.17461155018727
30
1.8692610559602301
10
216.89612516846896
20
114.53919493000669
30
1.8692610559601155
10
217.27464911785785
20
114.85302427673057
30
1.8692610559600142
10
217.68421963947577
20
115.11921326411075
30
1.8692610559600007
10
218.10516049063858
20
115.34690714243246
30
1.8692610559601242
10
218.52459974915155
20
115.5499235991314
30
1.8692610559603884
10
218.94377176709554
20
115.74556079615823
30
1.8692610559606826
10
219.37542137529215
20
115.95256761306123
30
1.8692610559608414
10
219.83707093532183
20
116.18871064006473
30
1.8692610559607004
10
220.34587006157142
20
116.46858271190139
30
1.8692610559601641
10
220.91225402946566
20
116.80104948738075
30
1.8692610559592702
10
221.5357310332999
20
117.1876221716962
30
1.8692610559582352
10
222.20793205251309
20
117.62434908041753
30
1.8692610559573666
10
222.91458470131624
20
118.10317386109857
30
1.8692610559569942
10
223.6378671857708
20
118.61347601244964
30
1.8692610559574041
10
224.35865142102125
20
119.14356611952336
30
1.8692610559587439
10
225.05865029725584
20
119.68210662333652
30
1.8692610559609668
10
225.72294583547202
20
120.21978453513752
30
1.8692610559637337
10
226.34118542602982
20
120.75011652753851
30
1.8692610559664122
10
226.90646435166681
20
121.26875191235003
30
1.8692610559682257
10
227.41474127623036
20
121.77312098988071
30
1.8692610559683671
10
227.77418463883942
20
122.16418259391088
30
1.869261055966567
10
228.01696043707065
20
122.4503014943505
30
1.869261055963922
10
228.16690200099498
20
122.63785879212713
30
1.8692610559615539
10
228.23889555564182
20
122.73084029164231
30
1.8692610559602199
0
SPLINE
5
124
100
AcDbEntity
8
0
100
AcDbSpline
70
4
71
5
72
21
73
15
74
0
42
0.000000001
43
0.0000000001
44
0.0000000001
40
0
40
0
40
0
40
0
40
0
40
0
40
0.10000000000000001
40
0.20000000000000001
40
0.30000000000000004
40
0.40000000000000002
40
0.5
40
0.59999999999999998
40
0.69999999999999996
40
0.79999999999999993
40
0.89999999999999991
40
1
40
1
40
1
40
1
40
1
40
1
41
1
41
1
41
1
41
1
41
1
41
1
41
1
41
1
41
1
41
1
41
1
41
1
41
1
41
1
41
1
10
236.45468054674564
20
106.99235111050925
30
1.8692610559602199
10
236.4114514288751
20
107.19181668470017
30
1.8692610559601439
10
236.3212824406676
20
107.59128814166259
30
1.8692610559600147
10
236.1748967101023
20
108.19211625151651
30
1.8692610559598917
10
235.9570848727451
20
108.99651559207911
30
1.8692610559598331
10
235.64459673163452
20
110.00787153625618
30
1.8692610559598877
10
235.28850636210765
20
111.02557623536539
30
1.869261055960036
10
234.8855893978199
20
112.05009917713591
30
1.8692610559602532
10
234.43470902367449
20
113.0816058888872
30
1.8692610559605007
10
233.93842729289264
20
114.11972331976928
30
1.8692610559607081
10
233.40045742428984
20
115.1639108020823
30
1.8692610559607923
10
232.93960763534017
20
116.00369797591208
30
1.8692610559606968
10
232.5779397503409
20
116.63587250280764
30
1.8692610559605072
10
232.32982006337863
20
117.0583425612507
30
1.8692610559603249
10
232.20400818467712
20
117.26983269766627
30
1.8692610559602199
0
SPLINE
5
125
100
AcDbEntity
8
0
100
AcDbSpline
70
4
71
5
72
46
73
40
74
0
42
0.000000001
43
0.0000000001
44
0.0000000001
40
0
40
0
40
0
40
0
40
0
40
0
40
0.028571428571428571
40
0.057142857142857141
40
0.085714285714285715
40
0.11428571428571428
40
0.14285714285714285
40
0.17142857142857143
40
0.20000000000000001
40
0.22857142857142859
40
0.25714285714285717
40
0.28571428571428575
40
0.31428571428571433
40
0.34285714285714292
40
0.3714285714285715
40
0.40000000000000008
40
0.42857142857142866
40
0.45714285714285724
40
0.48571428571428582
40
0.51428571428571435
40
0.54285714285714293
40
0.57142857142857151
40
0.60000000000000009
40
0.62857142857142867
40
0.65714285714285725
40
0.68571428571428583
40
0.71428571428571441
40
0.74285714285714299
40
0.77142857142857157
40
0.80000000000000016
40
0.82857142857142874
40
0.85714285714285732
40
0.8857142857142859
40
0.91428571428571448
40
0.94285714285714306
40
0.97142857142857164
40
1
40
1
40
1
40
1
40
1
40
1
41
1
41
1
41
1
41
1
41
1
41
1
41
1
41
1
41
1
41
1
41
1
41
1
41
1
41
1
41
1
41
1
41
1
41
1
41
1
41
1
41
1
41
1
41
1
41
1
41
1
41
1
41
1
41
1
41
1
41
1
41
1
41
1
41
1
41
1
41
1
41
1
41
1
41
1
41
1
41
1
10
237.01545884264317
20
122.41375424768904
30
1.8692610559602199
10
237.13460212092679
20
122.27434492420747
30
1.8692610559612663
10
237.37036833496842
20
121.99062343286542
30
1.8692610559631397
10
237.71645662259917
20
121.5503326401212
30
1.8692610559652882
10
238.16276554624113
20
120.93382220690802
30
1.8692610559668603
10
238.69533126527119
20
120.1144086517057
30
1.8692610559670184
10
239.20253023920876
20
119.24757452416776
30
1.8692610559658447
10
239.68442288119164
20
118.33632995496103
30
1.8692610559639025
10
240.14125598832396
20
117.38599530844377
30
1.869261055961736
10
240.57352759248189
20
116.40480821739345
30
1.8692610559598279
10
240.98209678032478
20
115.40468993432765
30
1.8692610559584975
10
241.36817801726289
20
114.40161707447729
30
1.8692610559578604
10
241.73265136006805
20
113.4135797701806
30
1.8692610559578759
10
242.07543702930141
20
112.45880675325664
30
1.8692610559583736
10
242.39487453905105
20
111.55393338626753
30
1.8692610559591221
10
242.68702353861826
20
110.71208661578453
30
1.869261055959879
10
242.94515451554798
20
109.94121196752936
30
1.8692610559604461
10
243.15874614655701
20
109.24170982970757
30
1.869261055960715
10
243.31399677690538
20
108.60615581243751
30
1.8692610559607095
10
243.39732227130085
20
108.02329003947939
30
1.8692610559605183
10
243.39843935821517
20
107.48121587649484
30
1.8692610559602616
10
243.31319398207944
20
106.97061828136655
30
1.8692610559600651
10
243.1476617978407
20
106.48869138430683
30
1.8692610559599923
10
242.91466813599487
20
106.03831585559138
30
1.869261055960052
10
242.62752004498805
20
105.62552685424642
30
1.8692610559602016
10
242.29497481057282
20
105.25763644301622
30
1.8692610559603713
10
241.91492370209556
20
104.94090643713915
30
1.8692610559604659
10
241.48018178813319
20
104.68121714970354
30
1.8692610559604246
10
240.9851176558044
20
104.48492245891933
30
1.8692610559602238
10
240.43231499761148
20
104.35969200500119
30
1.8692610559599212
10
239.83836882242852
20
104.31520372065093
30
1.8692610559596721
10
239.22800060546354
20
104.36186282658167
30
1.8692610559596636
10
238.62889709409501
20
104.50961535148383
30
1.8692610559600165
10
238.06663231128437
20
104.76680779355037
30
1.8692610559607183
10
237.55870407718331
20
105.13877132721578
30
1.8692610559615275
10
237.11513319240535
20
105.62823944209202
30
1.8692610559620384
10
236.81565378362689
20
106.11463552963397
30
1.8692610559618665
10
236.6228235737145
20
106.53277589031207
30
1.8692610559612512
10
236.5083771157916
20
106.83521320768162
30
1.8692610559606024
10
236.45468054674564
20
106.99235111050925
30
1.8692610559602199
0
SPLINE
5
126
100
AcDbEntity
8
0
100
AcDbSpline
70
4
71
5
72
56
73
50
74
0
42
0.000000001
43
0.0000000001
44
0.0000000001
40
0
40
0
40
0
40
0
40
0
40
0
40
0.022222222222222223
40
0.044444444444444446
40
0.066666666666666666
40
0.088888888888888892
40
0.11111111111111112
40
0.13333333333333333
40
0.15555555555555556
40
0.17777777777777778
40
0.20000000000000001
40
0.22222222222222224
40
0.24444444444444446
40
0.26666666666666666
40
0.28888888888888886
40
0.31111111111111106
40
0.33333333333333326
40
0.35555555555555546
40
0.37777777777777766
40
0.39999999999999986
40
0.42222222222222205
40
0.44444444444444425
40
0.46666666666666645
40
0.48888888888888865
40
0.51111111111111085
40
0.5333333333333331
40
0.55555555555555536
40
0.57777777777777761
40
0.59999999999999987
40
0.62222222222222212
40
0.64444444444444438
40
0.66666666666666663
40
0.68888888888888888
40
0.71111111111111114
40
0.73333333333333339
40
0.75555555555555565
40
0.7777777777777779
40
0.80000000000000016
40
0.82222222222222241
40
0.84444444444444466
40
0.86666666666666692
40
0.88888888888888917
40
0.91111111111111143
40
0.93333333333333368
40
0.95555555555555594
40
0.97777777777777819
40
1
40
1
40
1
40
1
40
1
40
1
41
1
41
1
41
1
41
1
41
1
41
1
41
1
41
1
41
1
41
1
41
1
41
1
41
1
41
1
41
1
41
1
41
1
41
1
41
1
41
1
41
1
41
1
41
1
41
1
41
1
41
1
41
1
41
1
41
1
41
1
41
1
41
1
41
1
41
1
41
1
41
1
41
1
41
1
41
1
41
1
41
1
41
1
41
1
41
1
41
1
41
1
41
1
41
1
41
1
41
1
10
140.48758597250438
20
28.201434933596726
30
0.66818635831983575
10
140.51663158833799
20
28.246106294593591
30
0.66818635832048301
10
140.57470622714877
20
28.336358837657194
30
0.66818635832162165
10
140.66176840150499
20
28.474467107917491
30
0.668186358322854
10
140.77775170012697
20
28.664074837417107
30
0.66818635832358153
10
140.92238827984193
20
28.909914121929297
30
0.66818635832328488
10
141.06615392493489
20
29.163711356588177
30
0.66818635832222373
10
141.20798969146765
20
29.423685498837855
30
0.6681863583208798
10
141.34613161830961
20
29.686837631275644
30
0.66818635831968676
10
141.47792170551844
20
29.948621434181817
30
0.6681863583189408
10
141.59965345605752
20
30.202660205113155
30
0.66818635831871098
10
141.7075759932977
20
30.442002946479985
30
0.66818635831890349
10
141.79881767372638
20
30.660280317338504
30
0.66818635831932693
10
141.87242180867949
20
30.852988554541518
30
0.66818635831976381
10
141.93015985456788
20
31.01852172001561
30
0.66818635832003692
10
141.97790755757774
20
31.159836048021276
30
0.66818635832009554
10
142.02446278000019
20
31.283243314775291
30
0.66818635831999529
10
142.07894731247561
20
31.395615881101762
30
0.66818635831984063
10
142.1487741768581
20
31.502227214736571
30
0.66818635831973316
10
142.23707007467033
20
31.603982595864618
30
0.66818635831971107
10
142.34364453013359
20
31.69862241078819
30
0.66818635831976469
10
142.46637130211218
20
31.782383364809455
30
0.66818635831985207
10
142.60250242122896
20
31.851599518952099
30
0.66818635831992679
10
142.74976310061453
20
31.904024240248987
30
0.66818635831995521
10
142.90590314899023
20
31.938237672988823
30
0.6681863583199168
10
143.06847539462768
20
31.95333486873405
30
0.6681863583198191
10
143.23447570449824
20
31.948452952076313
30
0.66818635831969886
10
143.40018855412862
20
31.92253323587359
30
0.66818635831962792
10
143.56171272399089
20
31.874848066601245
30
0.66818635831966844
10
143.71536955103676
20
31.805391259486843
30
0.6681863583198393
10
143.85819473271863
20
31.715381559787062
30
0.66818635832009632
10
143.98828970902869
20
31.607559220169847
30
0.6681863583202865
10
144.10417657744981
20
31.484958330121387
30
0.66818635832025086
10
144.20424698561061
20
31.34982338569284
30
0.66818635831989825
10
144.2861733760088
20
31.202465221220809
30
0.66818635831928064
10
144.34634110397172
20
31.04014921616271
30
0.66818635831868023
10
144.38034995841249
20
30.858068453362634
30
0.66818635831848794
10
144.38353245257741
20
30.650343409347876
30
0.66818635831907969
10
144.35142791004083
20
30.410940474318551
30
0.66818635832070472
10
144.28036869240572
20
30.134789580541167
30
0.66818635832334106
10
144.16758747269665
20
29.818039243781783
30
0.66818635832669937
10
144.01103681367692
20
29.457792647949454
30
0.66818635833029583
10
143.80930016548908
20
29.052006149669364
30
0.6681863583335107
10
143.56146913960811
20
28.599325432793606
30
0.66818635833565165
10
143.26703907026581
20
28.098952899939832
30
0.66818635833601969
10
142.92580019783267
20
27.550505695321945
30
0.66818635833396978
10
142.6153471582989
20
27.073206273096307
30
0.66818635832997297
10
142.3614662469769
20
26.693571654821792
30
0.66818635832549234
10
142.18286821321416
20
26.430862964921815
30
0.66818635832183293
10
142.09123317273148
20
26.297103883327082
30
0.66818635831983597
0
SPLINE
5
127
100
AcDbEntity
8
0
100
AcDbSpline
70
4
71
5
72
41
73
35
74
0
42
0.000000001
43
0.0000000001
44
0.0000000001
40
0
40
0
40
0
40
0
40
0
40
0
40
0.033333333333333333
40
0.066666666666666666
40
0.10000000000000001
40
0.13333333333333333
40
0.16666666666666666
40
0.19999999999999998
40
0.23333333333333331
40
0.26666666666666666
40
0.29999999999999999
40
0.33333333333333331
40
0.36666666666666664
40
0.39999999999999997
40
0.43333333333333329
40
0.46666666666666662
40
0.49999999999999994
40
0.53333333333333333
40
0.56666666666666665
40
0.59999999999999998
40
0.6333333333333333
40
0.66666666666666663
40
0.69999999999999996
40
0.73333333333333328
40
0.76666666666666661
40
0.79999999999999993
40
0.83333333333333326
40
0.86666666666666659
40
0.89999999999999991
40
0.93333333333333324
40
0.96666666666666656
40
1
40
1
40
1
40
1
40
1
40
1
41
1
41
1
41
1
41
1
41
1
41
1
41
1
41
1
41
1
41
1
41
1
41
1
41
1
41
1
41
1
41
1
41
1
41
1
41
1
41
1
41
1
41
1
41
1
41
1
41
1
41
1
41
1
41
1
41
1
41
1
41
1
41
1
41
1
41
1
41
1
10
138.9539614457
20
26.410449511701252
30
0.66818635831983575
10
138.92774890873292
20
26.443168157910378
30
0.66818635832007967
10
138.87410603014081
20
26.508982346823583
30
0.66818635832050821
10
138.78998830494956
20
26.6088343137151
30
0.66818635832097473
10
138.67051123303443
20
26.744235785173291
30
0.66818635832125861
10
138.50902501306547
20
26.917158894874277
30
0.6681863583211628
10
138.33571371946545
20
27.09339822734783
30
0.66818635832077156
10
138.15131340523874
20
27.272208254537361
30
0.66818635832025519
10
137.95714672422827
20
27.452316070658611
30
0.66818635831977202
10
137.75530600259
20
27.631767784282012
30
0.66818635831943374
10
137.54880664588291
20
27.807808085182959
30
0.66818635831927942
10
137.34123296521858
20
27.977293349598682
30
0.66818635831929662
10
137.13641584734432
20
28.137074145313115
30
0.66818635831943607
10
136.93810438466639
20
28.284385816469722
30
0.66818635831963558
10
136.74963286304808
20
28.417248442349088
30
0.66818635831983009
10
136.57360252498512
20
28.534849754680039
30
0.66818635831996998
10
136.41150636773398
20
28.638001820509871
30
0.66818635832002971
10
136.26390242994384
20
28.728905915560379
30
0.66818635832001216
10
136.1306499637823
20
28.810838614917653
30
0.66818635831993634
10
136.01111504312982
20
28.887876620514756
30
0.66818635831983508
10
135.90438089565166
20
28.964615057092331
30
0.66818635831974171
10
135.80945211543528
20
29.045893323396832
30
0.66818635831969297
10
135.72549270142341
20
29.136123648931491
30
0.66818635831971096
10
135.65207656600546
20
29.23857533303465
30
0.66818635831980056
10
135.58940645229305
20
29.354739957759932
30
0.66818635831993767
10
135.53861748484132
20
29.483461029497452
30
0.66818635832006368
10
135.50151037889643
20
29.62158646248438
30
0.66818635832010109
10
135.48012765147905
20
29.76502511674369
30
0.66818635831999584
10
135.47641461804656
20
29.909586394476939
30
0.6681863583197396
10
135.4917674613572
20
30.052067657437405
30
0.66818635831941453
10
135.52689050594546
20
30.190658288963078
30
0.66818635831918449
10
135.57102896256998
20
30.297690116305734
30
0.66818635831922268
10
135.6131618536094
20
30.37568056813673
30
0.6681863583194475
10
135.64525636614675
20
30.426660606942374
30
0.66818635831969075
10
135.66230508692718
20
30.451897260852007
30
0.66818635831983575
0
SPLINE
5
128
100
AcDbEntity
8
0
100
AcDbSpline
70
4
71
5
72
36
73
30
74
0
42
0.000000001
43
0.0000000001
44
0.0000000001
40
0
40
0
40
0
40
0
40
0
40
0
40
0.040000000000000001
40
0.080000000000000002
40
0.12
40
0.16
40
0.20000000000000001
40
0.24000000000000002
40
0.28000000000000003
40
0.32000000000000001
40
0.35999999999999999
40
0.39999999999999997
40
0.43999999999999995
40
0.47999999999999993
40
0.51999999999999991
40
0.55999999999999994
40
0.59999999999999998
40
0.64000000000000001
40
0.68000000000000005
40
0.72000000000000008
40
0.76000000000000012
40
0.80000000000000016
40
0.84000000000000019
40
0.88000000000000023
40
0.92000000000000026
40
0.9600000000000003
40
1
40
1
40
1
40
1
40
1
40
1
41
1
41
1
41
1
41
1
41
1
41
1
41
1
41
1
41
1
41
1
41
1
41
1
41
1
41
1
41
1
41
1
41
1
41
1
41
1
41
1
41
1
41
1
41
1
41
1
41
1
41
1
41
1
41
1
41
1
41
1
10
135.66230508692718
20
30.451897260852007
30
0.66818635831983575
10
135.6853625303616
20
30.479777795124839
30
0.66818635831978868
10
135.73258482365335
20
30.533441922189986
30
0.66818635831970963
10
135.80674042637267
20
30.607647448966226
30
0.66818635831963769
10
135.91227671071215
20
30.693972615590415
30
0.66818635831962792
10
136.05545533562864
20
30.780415835030141
30
0.66818635831970841
10
136.21018882971819
20
30.844391092441175
30
0.66818635831981876
10
136.37691955302768
20
30.884186605523482
30
0.66818635831990147
10
136.55629834156417
20
30.89706824541053
30
0.66818635831993634
10
136.74889351992437
20
30.879972352135368
30
0.66818635831992423
10
136.95476171114467
20
30.830576277884848
30
0.66818635831988016
10
137.17307997821135
20
30.7482083188067
30
0.66818635831982531
10
137.40167965696494
20
30.634975991280157
30
0.66818635831977835
10
137.63677689146283
20
30.496479738181151
30
0.66818635831975015
10
137.87378696255493
20
30.340278598132038
30
0.66818635831974726
10
138.1079764459212
20
30.174691338475171
30
0.66818635831977125
10
138.33520791380059
20
30.007430175964668
30
0.6681863583198151
10
138.55257025568463
20
29.844442554487365
30
0.66818635831986872
10
138.75927290045709
20
29.688313639469332
30
0.66818635831991613
10
138.95648312498585
20
29.538446372638013
30
0.66818635831994433
10
139.14657957556548
20
29.392224833179064
30
0.66818635831993833
10
139.3325849742165
20
29.245877441576052
30
0.6681863583198917
10
139.51757630836875
20
29.095387680317188
30
0.66818635831980466
10
139.70401446203402
20
28.937521879494689
30
0.66818635831969631
10
139.89344079575065
20
28.770305517490556
30
0.66818635831960138
10
140.08676537108829
20
28.592605149454727
30
0.66818635831956286
10
140.24487801161246
20
28.441670308157285
30
0.6681863583196086
10
140.365458087153
20
28.323485470840151
30
0.66818635831969875
10
140.44672926148709
20
28.242486616249323
30
0.66818635831978557
10
140.48758597250438
20
28.201434933596726
30
0.66818635831983575
0
CIRCLE
5
129
100
AcDbEntity
8
0
100
AcDbCircle
10
139.63783554697247
20
32.140354183019703
30
0.66818635831983575
40
1.6403805700045657
210
0
220
0
230
1
0
SPLINE
5
130
100
AcDbEntity
8
0
100
AcDbSpline
70
4
71
5
72
71
73
65
74
0
42
0.000000001
43
0.0000000001
44
0.0000000001
40
0
40
0
40
0
40
0
40
0
40
0
40
0.016666666666666666
40
0.033333333333333333
40
0.050000000000000003
40
0.066666666666666666
40
0.083333333333333329
40
0.099999999999999992
40
0.11666666666666665
40
0.13333333333333333
40
0.14999999999999999
40
0.16666666666666666
40
0.18333333333333332
40
0.19999999999999998
40
0.21666666666666665
40
0.23333333333333331
40
0.24999999999999997
40
0.26666666666666666
40
0.28333333333333333
40
0.29999999999999999
40
0.31666666666666665
40
0.33333333333333331
40
0.34999999999999998
40
0.36666666666666664
40
0.3833333333333333
40
0.39999999999999997
40
0.41666666666666663
40
0.43333333333333329
40
0.44999999999999996
40
0.46666666666666662
40
0.48333333333333328
40
0.49999999999999994
40
0.51666666666666661
40
0.53333333333333333
40
0.55000000000000004
40
0.56666666666666676
40
0.58333333333333348
40
0.6000000000000002
40
0.61666666666666692
40
0.63333333333333364
40
0.65000000000000036
40
0.66666666666666707
40
0.68333333333333379
40
0.70000000000000051
40
0.71666666666666723
40
0.73333333333333395
40
0.75000000000000067
40
0.76666666666666738
40
0.7833333333333341
40
0.80000000000000082
40
0.81666666666666754
40
0.83333333333333426
40
0.85000000000000098
40
0.8666666666666677
40
0.88333333333333441
40
0.90000000000000113
40
0.91666666666666785
40
0.93333333333333457
40
0.95000000000000129
40
0.96666666666666801
40
0.98333333333333472
40
1
40
1
40
1
40
1
40
1
40
1
41
1
41
1
41
1
41
1
41
1
41
1
41
1
41
1
41
1
41
1
41
1
41
1
41
1
41
1
41
1
41
1
41
1
41
1
41
1
41
1
41
1
41
1
41
1
41
1
41
1
41
1
41
1
41
1
41
1
41
1
41
1
41
1
41
1
41
1
41
1
41
1
41
1
41
1
41
1
41
1
41
1
41
1
41
1
41
1
41
1
41
1
41
1
41
1
41
1
41
1
41
1
41
1
41
1
41
1
41
1
41
1
41
1
41
1
41
1
41
1
41
1
41
1
41
1
41
1
41
1
10
140.37133124510561
20
24.458356857044524
30
0.66818635831983575
10
140.32151547084885
20
24.414280983256511
30
0.6681863583196892
10
140.22176613068137
20
24.326873613531959
30
0.6681863583194283
10
140.07178874704547
20
24.19799569226825
30
0.66818635831913553
10
139.87111182186385
20
24.030626752415284
30
0.6681863583189307
10
139.61914357786742
20
23.828879290038742
30
0.66818635831891637
10
139.36622541768986
20
23.634625005442299
30
0.66818635831907258
10
139.112704783841
20
23.447907516526712
30
0.66818635831931927
10
138.85916249473479
20
23.268785976142951
30
0.66818635831958884
10
138.60647490713455
20
23.097335980811543
30
0.66818635831982875
10
138.35586770842093
20
22.933651419860489
30
0.66818635832000028
10
138.10899308693135
20
22.777843667983614
30
0.66818635832009476
10
137.86776237542881
20
22.630069783595754
30
0.66818635832010576
10
137.63414658463978
20
22.490565332477004
30
0.66818635832004869
10
137.40999110112585
20
22.359673798310272
30
0.66818635831995388
10
137.19681826596124
20
22.237881543689916
30
0.66818635831985618
10
136.99564833508734
20
22.125841117695529
30
0.6681863583197879
10
136.80677657908953
20
22.024423478030151
30
0.66818635831976181
10
136.62974158775395
20
21.934642664994655
30
0.6681863583197718
10
136.46340604849064
20
21.857512990160775
30
0.66818635831980278
10
136.30599009856562
20
21.793921329758458
30
0.66818635831983431
10
136.15514835681961
20
21.744505326860725
30
0.66818635831985418
10
136.00796010683479
20
21.709495765459188
30
0.66818635831985795
10
135.86153211442149
20
21.688847373036737
30
0.66818635831984996
10
135.71378247485887
20
21.682446906726437
30
0.66818635831983708
10
135.56408091741619
20
21.690272452673476
30
0.66818635831982864
10
135.41415761948946
20
21.712627561786711
30
0.66818635831982531
10
135.26752494473786
20
21.749973526631461
30
0.66818635831982764
10
135.12840777594673
20
21.802619623859201
30
0.66818635831983431
10
135.00090580373279
20
21.870496319230721
30
0.66818635831984063
10
134.8878945121491
20
21.952803767467376
30
0.66818635831984463
10
134.79105708784783
20
22.048274335573787
30
0.66818635831984285
10
134.71128159096298
20
22.155655584293132
30
0.66818635831983764
10
134.64893819223326
20
22.27409279906858
30
0.66818635831982764
10
134.60420242697205
20
22.403624949724424
30
0.66818635831981943
10
134.57737134227045
20
22.544344154715148
30
0.66818635831982243
10
134.56917516319098
20
22.695482423880222
30
0.66818635831983497
10
134.58111903836942
20
22.854484565831545
30
0.6681863583198544
10
134.61573673257894
20
23.016188225157066
30
0.66818635831987039
10
134.67541355522212
20
23.174180106891875
30
0.66818635831987161
10
134.7612072858816
20
23.322083391971486
30
0.66818635831984818
10
134.87180552368309
20
23.454796950946172
30
0.66818635831980289
10
135.00206729049575
20
23.569944322486872
30
0.66818635831975537
10
135.14457997387183
20
23.667794827806098
30
0.66818635831973838
10
135.29206404459944
20
23.750838065575344
30
0.66818635831977558
10
135.43925177524653
20
23.823448345574427
30
0.66818635831987216
10
135.5855426393907
20
23.891593481933882
30
0.66818635831999607
10
135.73532848657277
20
23.962246419909246
30
0.66818635832008366
10
135.89528413773806
20
24.04236805473095
30
0.66818635832006545
10
136.07237479949526
20
24.13798048465258
30
0.66818635831989748
10
136.27165218544104
20
24.253240936139214
30
0.66818635831957951
10
136.49393321942284
20
24.389409224225854
30
0.66818635831918116
10
136.73648432462252
20
24.545342575668087
30
0.66818635831881856
10
136.99404233057703
20
24.718150435762528
30
0.66818635831862372
10
137.25970058673207
20
24.903783362476233
30
0.66818635831871853
10
137.52586428545041
20
25.097657324467228
30
0.66818635831917483
10
137.7851365088998
20
25.295237057272971
30
0.66818635831998663
10
138.03132401677482
20
25.492694643920291
30
0.66818635832104023
10
138.26011291282308
20
25.68735618575802
30
0.66818635832208872
10
138.46863025582951
20
25.877431053535652
30
0.66818635832282702
10
138.65519001935166
20
26.061859768710715
30
0.66818635832292816
10
138.78621334747442
20
26.204465341898526
30
0.66818635832226625
10
138.87411630189322
20
26.308566485913552
30
0.66818635832125928
10
138.92811380546942
20
26.376699750631371
30
0.66818635832034967
10
138.9539614457
20
26.410449511701252
30
0.66818635831983575
0
SPLINE
5
131
100
AcDbEntity
8
0
100
AcDbSpline
70
4
71
5
72
21
73
15
74
0
42
0.000000001
43
0.0000000001
44
0.0000000001
40
0
40
0
40
0
40
0
40
0
40
0
40
0.10000000000000001
40
0.20000000000000001
40
0.30000000000000004
40
0.40000000000000002
40
0.5
40
0.59999999999999998
40
0.69999999999999996
40
0.79999999999999993
40
0.89999999999999991
40
1
40
1
40
1
40
1
40
1
40
1
41
1
41
1
41
1
41
1
41
1
41
1
41
1
41
1
41
1
41
1
41
1
41
1
41
1
41
1
41
1
10
141.89077727270305
20
20.784566632546447
30
0.66818635831983575
10
141.87575570944435
20
20.854719578034736
30
0.66818635831978057
10
141.84435309375186
20
20.995319429175364
30
0.66818635831968332
10
141.79317073449909
20
21.207101079500177
30
0.66818635831957773
10
141.7166362479465
20
21.491269436607531
30
0.66818635831951367
10
141.60622673547192
20
21.849667393190764
30
0.66818635831955342
10
141.47981905655897
20
22.211524607627858
30
0.6681863583196791
10
141.33620153693863
20
22.577103078292467
30
0.66818635831985818
10
141.17488765399867
20
22.946508005179748
30
0.66818635832004747
10
140.99676983262367
20
23.319546420682823
30
0.66818635832019591
10
140.80319819930173
20
23.695926389112781
30
0.66818635832024897
10
140.63703268308262
20
23.999475519835492
30
0.66818635832017548
10
140.50645810659526
20
24.228424021806369
30
0.66818635832003881
10
140.4168071015981
20
24.381618828632789
30
0.66818635831990969
10
140.37133124510561
20
24.458356857044524
30
0.66818635831983575
0
SPLINE
5
132
100
AcDbEntity
8
0
100
AcDbSpline
70
4
71
5
72
46
73
40
74
0
42
0.000000001
43
0.0000000001
44
0.0000000001
40
0
40
0
40
0
40
0
40
0
40
0
40
0.028571428571428571
40
0.057142857142857141
40
0.085714285714285715
40
0.11428571428571428
40
0.14285714285714285
40
0.17142857142857143
40
0.20000000000000001
40
0.22857142857142859
40
0.25714285714285717
40
0.28571428571428575
40
0.31428571428571433
40
0.34285714285714292
40
0.3714285714285715
40
0.40000000000000008
40
0.42857142857142866
40
0.45714285714285724
40
0.48571428571428582
40
0.51428571428571435
40
0.54285714285714293
40
0.57142857142857151
40
0.60000000000000009
40
0.62857142857142867
40
0.65714285714285725
40
0.68571428571428583
40
0.71428571428571441
40
0.74285714285714299
40
0.77142857142857157
40
0.80000000000000016
40
0.82857142857142874
40
0.85714285714285732
40
0.8857142857142859
40
0.91428571428571448
40
0.94285714285714306
40
0.97142857142857164
40
1
40
1
40
1
40
1
40
1
40
1
41
1
41
1
41
1
41
1
41
1
41
1
41
1
41
1
41
1
41
1
41
1
41
1
41
1
41
1
41
1
41
1
41
1
41
1
41
1
41
1
41
1
41
1
41
1
41
1
41
1
41
1
41
1
41
1
41
1
41
1
41
1
41
1
41
1
41
1
41
1
41
1
41
1
41
1
41
1
41
1
10
142.09123317273145
20
26.297103883327079
30
0.66818635831983575
10
142.13480264398837
20
26.245991232431912
30
0.66818635832030582
10
142.22105814056118
20
26.141815255622753
30
0.66818635832114348
10
142.34779104328919
20
25.979699239234169
30
0.66818635832208917
10
142.5114605509365
20
25.751825107016643
30
0.66818635832274886
10
142.70716041637792
20
25.447603219973406
30
0.66818635832274442
10
142.8939226387065
20
25.124624188539215
30
0.66818635832214701
10
143.07169883597643
20
24.784247099179595
30
0.66818635832123952
10
143.24046064071314
20
24.428868832561097
30
0.66818635832028472
10
143.40020671481605
20
24.062165293185529
30
0.66818635831950357
10
143.55099856746938
20
23.689496109480139
30
0.66818635831901685
10
143.69290579350204
20
23.317800669769532
30
0.66818635831884354
10
143.8258037702789
20
22.954652100525493
30
0.66818635831893491
10
143.94920117690643
20
22.607500352060093
30
0.66818635831919782
10
144.06206381192743
20
22.282856868153793
30
0.66818635831952411
10
144.16261762602238
20
21.985457541447456
30
0.6681863583198151
10
144.24820666594616
20
21.717520447089495
30
0.66818635831999851
10
144.31499687265972
20
21.477694759781933
30
0.66818635832005313
10
144.35871407215893
20
21.262022677651714
30
0.66818635832000706
10
144.37567383329542
20
21.065427077274865
30
0.6681863583199098
10
144.36366357408528
20
20.882967472083898
30
0.66818635831981443
10
144.32301754692165
20
20.711285967243874
30
0.66818635831975892
10
144.25726393802356
20
20.549690274908905
30
0.66818635831975293
10
144.17109384451996
20
20.39919618831987
30
0.66818635831978768
10
144.06873854471687
20
20.261834265207
30
0.66818635831984574
10
143.95199357992522
20
20.139803407870293
30
0.66818635831990048
10
143.81896988188936
20
20.034857750925564
30
0.66818635831992412
10
143.66664656960438
20
19.948759275824692
30
0.66818635831989948
10
143.49284160982404
20
19.88357737251318
30
0.66818635831982676
10
143.29864635651307
20
19.842096727159038
30
0.66818635831973072
10
143.08998700759918
20
19.828032366860175
30
0.66818635831966111
10
142.87546940120231
20
19.845459699770615
30
0.66818635831966677
10
142.66467677090566
20
19.898329552464112
30
0.66818635831977824
10
142.46640925876508
20
19.989982956145337
30
0.66818635831998807
10
142.2866692977255
20
20.122566906513448
30
0.66818635832022566
10
142.12889896680628
20
20.297200952291156
30
0.66818635832037199
10
142.02159416579221
20
20.470897623477772
30
0.66818635832031936
10
141.95196979287803
20
20.620301780800084
30
0.66818635832013862
10
141.91037176322229
20
20.728396383248754
30
0.66818635831994788
10
141.89077727270305
20
20.784566632546447
30
0.66818635831983575
0
SPLINE
5
133
100
AcDbEntity
8
0
100
AcDbSpline
70
4
71
5
72
71
73
65
74
0
42
0.000000001
43
0.0000000001
44
0.0000000001
40
0
40
0
40
0
40
0
40
0
40
0
40
0.016666666666666666
40
0.033333333333333333
40
0.050000000000000003
40
0.066666666666666666
40
0.083333333333333329
40
0.099999999999999992
40
0.11666666666666665
40
0.13333333333333333
40
0.14999999999999999
40
0.16666666666666666
40
0.18333333333333332
40
0.19999999999999998
40
0.21666666666666665
40
0.23333333333333331
40
0.24999999999999997
40
0.26666666666666666
40
0.28333333333333333
40
0.29999999999999999
40
0.31666666666666665
40
0.33333333333333331
40
0.34999999999999998
40
0.36666666666666664
40
0.3833333333333333
40
0.39999999999999997
40
0.41666666666666663
40
0.43333333333333329
40
0.44999999999999996
40
0.46666666666666662
40
0.48333333333333328
40
0.49999999999999994
40
0.51666666666666661
40
0.53333333333333333
40
0.55000000000000004
40
0.56666666666666676
40
0.58333333333333348
40
0.6000000000000002
40
0.61666666666666692
40
0.63333333333333364
40
0.65000000000000036
40
0.66666666666666707
40
0.68333333333333379
40
0.70000000000000051
40
0.71666666666666723
40
0.73333333333333395
40
0.75000000000000067
40
0.76666666666666738
40
0.7833333333333341
40
0.80000000000000082
40
0.81666666666666754
40
0.83333333333333426
40
0.85000000000000098
40
0.8666666666666677
40
0.88333333333333441
40
0.90000000000000113
40
0.91666666666666785
40
0.93333333333333457
40
0.95000000000000129
40
0.96666666666666801
40
0.98333333333333472
40
1
40
1
40
1
40
1
40
1
40
1
41
1
41
1
41
1
41
1
41
1
41
1
41
1
41
1
41
1
41
1
41
1
41
1
41
1
41
1
41
1
41
1
41
1
41
1
41
1
41
1
41
1
41
1
41
1
41
1
41
1
41
1
41
1
41
1
41
1
41
1
41
1
41
1
41
1
41
1
41
1
41
1
41
1
41
1
41
1
41
1
41
1
41
1
41
1
41
1
41
1
41
1
41
1
41
1
41
1
41
1
41
1
41
1
41
1
41
1
41
1
41
1
41
1
41
1
41
1
41
1
41
1
41
1
41
1
41
1
41
1
10
230.37133124510561
20
24.458356857044524
30
0.66818635831983575
10
230.32151547087298
20
24.414280983254844
30
0.66818635831962436
10
230.22176613074896
20
24.326873613527255
30
0.66818635831924555
10
230.0717887471634
20
24.197995692259845
30
0.66818635831881024
10
229.87111182201974
20
24.030626752403652
30
0.66818635831848483
10
229.61914357802772
20
23.82887929002586
30
0.66818635831842776
10
229.3662254178231
20
23.634625005430632
30
0.66818635831863415
10
229.11270478393016
20
23.447907516518217
30
0.66818635831900342
10
228.8591624947762
20
23.26878597613868
30
0.66818635831943141
10
228.60647490713515
20
23.097335980811387
30
0.66818635831982343
10
228.3558677083941
20
22.933651419863391
30
0.66818635832010576
10
228.1089930868919
20
22.777843667987938
30
0.66818635832024764
10
227.86776237538925
20
22.630069783600028
30
0.66818635832025408
10
227.63414658460937
20
22.490565332480177
30
0.66818635832015771
10
227.40999110110945
20
22.359673798311977
30
0.66818635832001183
10
227.19681826595857
20
22.237881543690197
30
0.6681863583198665
10
226.9956483350939
20
22.125841117694861
30
0.66818635831976469
10
226.80677657909962
20
22.02442347802905
30
0.66818635831972317
10
226.62974158776285
20
21.934642664993635
30
0.66818635831973672
10
226.46340604849519
20
21.857512990160167
30
0.66818635831978246
10
226.30599009856576
20
21.793921329758398
30
0.66818635831983209
10
226.15514835681728
20
21.744505326861088
30
0.66818635831986606
10
226.00796010683226
20
21.709495765459671
30
0.66818635831987394
10
225.8615321144199
20
21.688847373037063
30
0.66818635831986051
10
225.7137824748585
20
21.682446906726472
30
0.66818635831983841
10
225.56408091741716
20
21.690272452673298
30
0.6681863583198232
10
225.41415761949114
20
21.712627561786547
30
0.66818635831981821
10
225.26752494473922
20
21.749973526631411
30
0.66818635831982354
10
225.12840777594693
20
21.802619623859208
30
0.6681863583198332
10
225.00090580373208
20
21.870496319230732
30
0.66818635831984274
10
224.88789451214788
20
21.952803767467309
30
0.66818635831984607
10
224.79105708784675
20
22.048274335573687
30
0.6681863583198433
10
224.71128159096287
20
22.155655584293118
30
0.66818635831983708
10
224.64893819223397
20
22.274092799068661
30
0.66818635831982764
10
224.60420242697256
20
22.403624949724566
30
0.66818635831981987
10
224.5773713422704
20
22.544344154715251
30
0.66818635831982376
10
224.56917516319072
20
22.695482423880208
30
0.66818635831983497
10
224.58111903837025
20
22.854484565831466
30
0.6681863583198534
10
224.61573673258144
20
23.016188225156977
30
0.66818635831986872
10
224.67541355522502
20
23.174180106891807
30
0.66818635831986928
10
224.76120728588296
20
23.322083391971479
30
0.66818635831984774
10
224.87180552368005
20
23.454796950946196
30
0.668186358319805
10
225.00206729048816
20
23.569944322486911
30
0.66818635831975937
10
225.14457997386211
20
23.667794827806116
30
0.6681863583197416
10
225.29206404459302
20
23.750838065575337
30
0.6681863583197768
10
225.43925177525028
20
23.82344834557443
30
0.6681863583198715
10
225.58554263940835
20
23.891593481933949
30
0.66818635831999473
10
225.73532848660082
20
23.962246419909384
30
0.66818635832008311
10
225.89528413776469
20
24.042368054731114
30
0.66818635832006634
10
226.07237479950257
20
24.137980484652637
30
0.66818635831989837
10
226.27165218541086
20
24.253240936138994
30
0.66818635831957729
10
226.49393321934514
20
24.389409224225243
30
0.66818635831917372
10
226.73648432450136
20
24.545342575667167
30
0.66818635831880657
10
226.99404233043253
20
24.718150435761448
30
0.66818635831860962
10
227.25970058659883
20
24.903783362475259
30
0.66818635831870576
10
227.52586428537131
20
25.097657324466663
30
0.66818635831916717
10
227.78513650891779
20
25.295237057273091
30
0.66818635831998829
10
228.03132401691886
20
25.492694643921268
30
0.66818635832105411
10
228.26011291309379
20
25.687356185759821
30
0.66818635832211659
10
228.46863025618973
20
25.87743105353794
30
0.6681863583228641
10
228.65519001972515
20
26.061859768712981
30
0.66818635832296702
10
228.78621334776858
20
26.204465341900232
30
0.66818635832229623
10
228.87411630206586
20
26.308566485914525
30
0.66818635832127682
10
228.92811380553184
20
26.376699750631715
30
0.66818635832035611
10
228.9539614457
20
26.410449511701252
30
0.66818635831983575
0
SPLINE
5
134
100
AcDbEntity
8
0
100
AcDbSpline
70
4
71
5
72
21
73
15
74
0
42
0.000000001
43
0.0000000001
44
0.0000000001
40
0
40
0
40
0
40
0
40
0
40
0
40
0.10000000000000001
40
0.20000000000000001
40
0.30000000000000004
40
0.40000000000000002
40
0.5
40
0.59999999999999998
40
0.69999999999999996
40
0.79999999999999993
40
0.89999999999999991
40
1
40
1
40
1
40
1
40
1
40
1
41
1
41
1
41
1
41
1
41
1
41
1
41
1
41
1
41
1
41
1
41
1
41
1
41
1
41
1
41
1
10
231.89077727270302
20
20.784566632546447
30
0.66818635831983575
10
231.87575570943832
20
20.854719578034793
30
0.66818635831978068
10
231.84435309373515
20
20.995319429175531
30
0.66818635831968365
10
231.79317073446941
20
21.207101079500497
30
0.66818635831957907
10
231.71663624790659
20
21.491269436607972
30
0.66818635831951634
10
231.60622673543375
20
21.849667393191243
30
0.66818635831955753
10
231.47981905653552
20
22.211524607628192
30
0.66818635831968298
10
231.33620153694093
20
22.577103078292438
30
0.66818635831985784
10
231.17488765403291
20
22.94650800517925
30
0.66818635832004092
10
230.99676983268697
20
23.319546420681977
30
0.66818635832018458
10
230.80319819937853
20
23.695926389111833
30
0.66818635832023621
10
230.63703268314794
20
23.99947551983475
30
0.66818635832016549
10
230.50645810663494
20
24.228424021805939
30
0.66818635832003292
10
230.41680710161268
20
24.381618828632639
30
0.66818635831990747
10
230.37133124510561
20
24.458356857044524
30
0.66818635831983575
0
SPLINE
5
135
100
AcDbEntity
8
0
100
AcDbSpline
70
4
71
5
72
36
73
30
74
0
42
0.000000001
43
0.0000000001
44
0.0000000001
40
0
40
0
40
0
40
0
40
0
40
0
40
0.040000000000000001
40
0.080000000000000002
40
0.12
40
0.16
40
0.20000000000000001
40
0.24000000000000002
40
0.28000000000000003
40
0.32000000000000001
40
0.35999999999999999
40
0.39999999999999997
40
0.43999999999999995
40
0.47999999999999993
40
0.51999999999999991
40
0.55999999999999994
40
0.59999999999999998
40
0.64000000000000001
40
0.68000000000000005
40
0.72000000000000008
40
0.76000000000000012
40
0.80000000000000016
40
0.84000000000000019
40
0.88000000000000023
40
0.92000000000000026
40
0.9600000000000003
40
1
40
1
40
1
40
1
40
1
40
1
41
1
41
1
41
1
41
1
41
1
41
1
41
1
41
1
41
1
41
1
41
1
41
1
41
1
41
1
41
1
41
1
41
1
41
1
41
1
41
1
41
1
41
1
41
1
41
1
41
1
41
1
41
1
41
1
41
1
41
1
10
225.66230508692718
20
30.451897260852007
30
0.66818635831983575
10
225.68536253036876
20
30.479777795124605
30
0.66818635831978668
10
225.73258482367251
20
30.533441922189368
30
0.66818635831970408
10
225.80674042640248
20
30.607647448965245
30
0.66818635831962891
10
225.91227671074338
20
30.693972615589402
30
0.66818635831961948
10
226.05545533564839
20
30.780415835029554
30
0.66818635831970452
10
226.21018882972095
20
30.844391092441086
30
0.66818635831981832
10
226.37691955301727
20
30.884186605523809
30
0.66818635831990369
10
226.5562983415472
20
30.897068245410985
30
0.66818635831993922
10
226.74889351990899
20
30.879972352135681
30
0.6681863583199249
10
226.95476171113694
20
30.830576277884987
30
0.66818635831988005
10
227.1730799782132
20
30.748208318806643
30
0.66818635831982509
10
227.40167965697447
20
30.634975991280008
30
0.66818635831977946
10
227.6367768914759
20
30.496479738180994
30
0.66818635831975381
10
227.8737869625671
20
30.340278598131817
30
0.66818635831975115
10
228.10797644592913
20
30.174691338474915
30
0.66818635831977358
10
228.33520791380283
20
30.007430175964537
30
0.66818635831981532
10
228.55257025568082
20
29.844442554487536
30
0.66818635831986795
10
228.75927290044856
20
29.688313639470021
30
0.66818635831991924
10
228.95648312497454
20
29.538446372639029
30
0.6681863583199501
10
229.14657957555463
20
29.392224833180055
30
0.66818635831994522
10
229.33258497421025
20
29.245877441576532
30
0.66818635831989537
10
229.51757630837207
20
29.095387680316897
30
0.66818635831980244
10
229.7040144620492
20
28.937521879493463
30
0.6681863583196872
10
229.89344079577626
20
28.770305517488616
30
0.66818635831958684
10
230.0867653711187
20
28.592605149452591
30
0.66818635831954698
10
230.24487801163821
20
28.441670308155558
30
0.66818635831959594
10
230.36545808716858
20
28.323485470839152
30
0.66818635831969175
10
230.44672926149278
20
28.242486616248964
30
0.66818635831978312
10
230.48758597250435
20
28.201434933596726
30
0.66818635831983575
0
SPLINE
5
136
100
AcDbEntity
8
0
100
AcDbSpline
70
4
71
5
72
56
73
50
74
0
42
0.000000001
43
0.0000000001
44
0.0000000001
40
0
40
0
40
0
40
0
40
0
40
0
40
0.022222222222222223
40
0.044444444444444446
40
0.066666666666666666
40
0.088888888888888892
40
0.11111111111111112
40
0.13333333333333333
40
0.15555555555555556
40
0.17777777777777778
40
0.20000000000000001
40
0.22222222222222224
40
0.24444444444444446
40
0.26666666666666666
40
0.28888888888888886
40
0.31111111111111106
40
0.33333333333333326
40
0.35555555555555546
40
0.37777777777777766
40
0.39999999999999986
40
0.42222222222222205
40
0.44444444444444425
40
0.46666666666666645
40
0.48888888888888865
40
0.51111111111111085
40
0.5333333333333331
40
0.55555555555555536
40
0.57777777777777761
40
0.59999999999999987
40
0.62222222222222212
40
0.64444444444444438
40
0.66666666666666663
40
0.68888888888888888
40
0.71111111111111114
40
0.73333333333333339
40
0.75555555555555565
40
0.7777777777777779
40
0.80000000000000016
40
0.82222222222222241
40
0.84444444444444466
40
0.86666666666666692
40
0.88888888888888917
40
0.91111111111111143
40
0.93333333333333368
40
0.95555555555555594
40
0.97777777777777819
40
1
40
1
40
1
40
1
40
1
40
1
41
1
41
1
41
1
41
1
41
1
41
1
41
1
41
1
41
1
41
1
41
1
41
1
41
1
41
1
41
1
41
1
41
1
41
1
41
1
41
1
41
1
41
1
41
1
41
1
41
1
41
1
41
1
41
1
41
1
41
1
41
1
41
1
41
1
41
1
41
1
41
1
41
1
41
1
41
1
41
1
41
1
41
1
41
1
41
1
41
1
41
1
41
1
41
1
41
1
41
1
10
230.48758597250435
20
28.201434933596726
30
0.66818635831983575
10
230.51663158840299
20
28.246106294593396
30
0.66818635832048345
10
230.57470622732774
20
28.336358837656654
30
0.66818635832162276
10
230.6617684018062
20
28.474467107916549
30
0.66818635832285556
10
230.77775170049878
20
28.664074837415868
30
0.66818635832358386
10
230.9223882801823
20
28.909914121928026
30
0.66818635832328677
10
231.06615392516929
20
29.163711356587175
30
0.66818635832222373
10
231.20798969156994
20
29.423685498837422
30
0.66818635832087925
10
231.34613161829492
20
29.686837631275701
30
0.66818635831968665
10
231.47792170543084
20
29.948621434182201
30
0.66818635831894224
10
231.59965345594782
20
30.202660205113556
30
0.6681863583187122
10
231.70757599320666
20
30.442002946480198
30
0.66818635831890349
10
231.79881767367664
20
30.660280317338497
30
0.66818635831932605
10
231.87242180867247
20
30.85298855454149
30
0.66818635831976336
10
231.93015985458757
20
31.018521720015634
30
0.66818635832003748
10
231.97790755760266
20
31.15983604802129
30
0.66818635832009576
10
232.02446278001531
20
31.283243314775294
30
0.66818635831999551
10
232.07894731247595
20
31.395615881101765
30
0.66818635831984063
10
232.14877417684863
20
31.502227214736589
30
0.6681863583197335
10
232.23707007465921
20
31.603982595864686
30
0.66818635831971207
10
232.34364453012734
20
31.698622410788264
30
0.66818635831976558
10
232.4663713021136
20
31.782383364809462
30
0.66818635831985229
10
232.60250242123706
20
31.851599518951961
30
0.6681863583199259
10
232.74976310062527
20
31.904024240248745
30
0.66818635831995266
10
232.90590314899799
20
31.938237672988684
30
0.66818635831991569
10
233.06847539462649
20
31.953334868734128
30
0.66818635831981987
10
233.23447570448423
20
31.948452952076476
30
0.66818635831970019
10
233.40018855410631
20
31.92253323587375
30
0.66818635831962847
10
233.56171272397231
20
31.874848066601324
30
0.66818635831966744
10
233.71536955103693
20
31.805391259486832
30
0.66818635831983908
10
233.85819473274782
20
31.715381559786941
30
0.66818635832009743
10
233.98828970907971
20
31.607559220169637
30
0.66818635832028805
10
234.10417657749713
20
31.484958330121202
30
0.66818635832025197
10
234.20424698561777
20
31.349823385692822
30
0.66818635831989837
10
234.28617337594522
20
31.202465221221026
30
0.66818635831927931
10
234.34634110383956
20
31.040149216163073
30
0.66818635831867845
10
234.38034995825802
20
30.858068453362986
30
0.66818635831848594
10
234.38353245249067
20
30.650343409348032
30
0.66818635831907891
10
234.35142791014056
20
30.410940474318359
30
0.66818635832070572
10
234.28036869280811
20
30.134789580540556
30
0.66818635832334827
10
234.16758747348521
20
29.818039243780746
30
0.66818635832671336
10
234.01103681487928
20
29.457792647948043
30
0.66818635833031648
10
233.80930016706199
20
29.05200614966769
30
0.66818635833353512
10
233.56146914142835
20
28.599325432791819
30
0.66818635833567674
10
233.26703907212965
20
28.098952899938105
30
0.66818635833604145
10
232.92580019946158
20
27.550505695320481
30
0.66818635833398587
10
232.615347159468
20
27.073206273095277
30
0.66818635832998274
10
232.36146624762972
20
26.693571654821206
30
0.66818635832549744
10
232.18286821344469
20
26.430862964921605
30
0.66818635832183482
10
232.09123317273151
20
26.297103883327082
30
0.66818635831983597
0
SPLINE
5
137
100
AcDbEntity
8
0
100
AcDbSpline
70
4
71
5
72
46
73
40
74
0
42
0.000000001
43
0.0000000001
44
0.0000000001
40
0
40
0
40
0
40
0
40
0
40
0
40
0.028571428571428571
40
0.057142857142857141
40
0.085714285714285715
40
0.11428571428571428
40
0.14285714285714285
40
0.17142857142857143
40
0.20000000000000001
40
0.22857142857142859
40
0.25714285714285717
40
0.28571428571428575
40
0.31428571428571433
40
0.34285714285714292
40
0.3714285714285715
40
0.40000000000000008
40
0.42857142857142866
40
0.45714285714285724
40
0.48571428571428582
40
0.51428571428571435
40
0.54285714285714293
40
0.57142857142857151
40
0.60000000000000009
40
0.62857142857142867
40
0.65714285714285725
40
0.68571428571428583
40
0.71428571428571441
40
0.74285714285714299
40
0.77142857142857157
40
0.80000000000000016
40
0.82857142857142874
40
0.85714285714285732
40
0.8857142857142859
40
0.91428571428571448
40
0.94285714285714306
40
0.97142857142857164
40
1
40
1
40
1
40
1
40
1
40
1
41
1
41
1
41
1
41
1
41
1
41
1
41
1
41
1
41
1
41
1
41
1
41
1
41
1
41
1
41
1
41
1
41
1
41
1
41
1
41
1
41
1
41
1
41
1
41
1
41
1
41
1
41
1
41
1
41
1
41
1
41
1
41
1
41
1
41
1
41
1
41
1
41
1
41
1
41
1
41
1
10
232.09123317273145
20
26.297103883327079
30
0.66818635831983575
10
232.13480264392933
20
26.245991232429816
30
0.66818635832027873
10
232.22105814039637
20
26.141815255616873
30
0.66818635832106765
10
232.3477910430029
20
25.979699239223809
30
0.6681863583219555
10
232.51146055056148
20
25.75182510700273
30
0.66818635832257045
10
232.707160415998
20
25.447603219958921
30
0.66818635832256112
10
232.89392263840082
20
25.12462418852747
30
0.66818635832200224
10
233.07169883578965
20
24.784247099172472
30
0.66818635832115503
10
233.24046064065331
20
24.428868832558926
30
0.66818635832026163
10
233.40020671486042
20
24.062165293187196
30
0.66818635831952289
10
233.55099856757829
20
23.689496109483979
30
0.66818635831905671
10
233.69290579363306
20
23.317800669773906
30
0.66818635831888473
10
233.82580377039744
20
22.954652100529238
30
0.66818635831896667
10
233.94920117699024
20
22.607500352062615
30
0.66818635831921724
10
234.06206381196819
20
22.282856868154962
30
0.6681863583195331
10
234.16261762602488
20
21.985457541447524
30
0.66818635831981554
10
234.24820666592501
20
21.717520447088905
30
0.66818635831999418
10
234.3149968726317
20
21.477694759781162
30
0.66818635832004802
10
234.3587140721377
20
21.262022677651167
30
0.6681863583200045
10
234.37567383328735
20
21.065427077274684
30
0.66818635831991013
10
234.36366357408792
20
20.882967472083966
30
0.66818635831981432
10
234.32301754692887
20
20.711285967244038
30
0.66818635831975792
10
234.25726393802964
20
20.549690274909057
30
0.66818635831975159
10
234.17109384452235
20
20.399196188319969
30
0.66818635831978801
10
234.06873854471596
20
20.261834265206986
30
0.66818635831984563
10
233.95199357992337
20
20.139803407870161
30
0.66818635831989981
10
233.81896988188834
20
20.03485775092534
30
0.6681863583199219
10
233.66664656960464
20
19.948759275824514
30
0.66818635831989825
10
233.49284160982452
20
19.883577372513191
30
0.66818635831982709
10
233.2986463565116
20
19.842096727159358
30
0.66818635831973316
10
233.08998700759486
20
19.828032366860644
30
0.66818635831966211
10
232.8754694011968
20
19.845459699771034
30
0.66818635831966566
10
232.66467677090318
20
19.898329552464222
30
0.66818635831977724
10
232.46640925877088
20
19.989982956145006
30
0.66818635831999007
10
232.28666929774221
20
20.122566906512709
30
0.66818635832023032
10
232.1288989668306
20
20.297200952290208
30
0.6681863583203782
10
232.02159416581532
20
20.470897623476962
30
0.66818635832032469
10
231.9519697928929
20
20.620301780799597
30
0.66818635832014195
10
231.91037176322777
20
20.72839638324858
30
0.66818635831994921
10
231.89077727270302
20
20.784566632546447
30
0.66818635831983575
0
SPLINE
5
138
100
AcDbEntity
8
0
100
AcDbSpline
70
4
71
5
72
41
73
35
74
0
42
0.000000001
43
0.0000000001
44
0.0000000001
40
0
40
0
40
0
40
0
40
0
40
0
40
0.033333333333333333
40
0.066666666666666666
40
0.10000000000000001
40
0.13333333333333333
40
0.16666666666666666
40
0.19999999999999998
40
0.23333333333333331
40
0.26666666666666666
40
0.29999999999999999
40
0.33333333333333331
40
0.36666666666666664
40
0.39999999999999997
40
0.43333333333333329
40
0.46666666666666662
40
0.49999999999999994
40
0.53333333333333333
40
0.56666666666666665
40
0.59999999999999998
40
0.6333333333333333
40
0.66666666666666663
40
0.69999999999999996
40
0.73333333333333328
40
0.76666666666666661
40
0.79999999999999993
40
0.83333333333333326
40
0.86666666666666659
40
0.89999999999999991
40
0.93333333333333324
40
0.96666666666666656
40
1
40
1
40
1
40
1
40
1
40
1
41
1
41
1
41
1
41
1
41
1
41
1
41
1
41
1
41
1
41
1
41
1
41
1
41
1
41
1
41
1
41
1
41
1
41
1
41
1
41
1
41
1
41
1
41
1
41
1
41
1
41
1
41
1
41
1
41
1
41
1
41
1
41
1
41
1
41
1
41
1
10
228.9539614457
20
26.410449511701252
30
0.66818635831983575
10
228.92774890885664
20
26.443168157910616
30
0.66818635832007889
10
228.87410603048241
20
26.508982346824244
30
0.66818635832050632
10
228.78998830552845
20
26.608834313716223
30
0.66818635832097084
10
228.6705112337574
20
26.744235785174688
30
0.66818635832125228
10
228.50902501373798
20
26.91715889487552
30
0.66818635832115358
10
228.33571371993816
20
27.093398227348668
30
0.66818635832076323
10
228.15131340544983
20
27.272208254537734
30
0.66818635832025175
10
227.95714672419589
20
27.452316070658572
30
0.66818635831977313
10
227.75530600238764
20
27.631767784281625
30
0.66818635831943518
10
227.54880664560432
20
27.807808085182355
30
0.66818635831927931
10
227.34123296495147
20
27.977293349598042
30
0.66818635831929651
10
227.13641584715026
20
28.137074145312585
30
0.6681863583194364
10
226.93810438457248
20
28.284385816469406
30
0.66818635831963613
10
226.74963286304722
20
28.417248442349049
30
0.66818635831982987
10
226.57360252504469
20
28.534849754680273
30
0.6681863583199692
10
226.41150636781344
20
28.638001820510283
30
0.66818635832002782
10
226.26390243000952
20
28.728905915560802
30
0.66818635832001028
10
226.13064996381479
20
28.810838614917927
30
0.66818635831993478
10
226.01111504312726
20
28.88787662051476
30
0.66818635831983508
10
225.90438089562605
20
28.964615057092054
30
0.66818635831974349
10
225.80945211540376
20
29.04589332339642
30
0.66818635831969542
10
225.72549270140109
20
29.136123648931157
30
0.66818635831971274
10
225.65207656600131
20
29.238575333034554
30
0.66818635831980044
10
225.58940645230837
20
29.354739957760184
30
0.66818635831993667
10
225.53861748486912
20
29.483461029497949
30
0.66818635832005979
10
225.50151037892482
20
29.621586462484885
30
0.66818635832009621
10
225.4801276514942
20
29.765025116743963
30
0.66818635831999273
10
225.47641461803664
20
29.909586394476754
30
0.66818635831974127
10
225.49176746131917
20
30.052067657436787
30
0.66818635831942153
10
225.5268905058891
20
30.190658288962201
30
0.66818635831919493
10
225.57102896251803
20
30.29769011630497
30
0.66818635831923179
10
225.61316185357683
20
30.375680568136257
30
0.66818635831945306
10
225.6452563661347
20
30.4266606069422
30
0.66818635831969275
10
225.66230508692718
20
30.451897260852007
30
0.66818635831983575
0
CIRCLE
5
139
100
AcDbEntity
8
0
100
AcDbCircle
10
229.63783554697244
20
32.140354183019703
30
0.66818635831983575
40
1.6403805700045657
210
0
220
0
230
1
0
LWPOLYLINE
5
140
100
AcDbEntity
8
0
100
AcDbPolyline
90
8
70
1
43
0.0
10
370.70000000000005
20
180
42
-0.41421356237309509
10
380.70000000000005
20
170
10
380.70000000000005
20
76
42
-0.41421356237309509
10
370.70000000000005
20
66
10
310.80000000000007
20
66
42
-0.41421356237309509
10
300.80000000000007
20
76
10
300.80000000000007
20
170
42
-0.41421356237309509
10
310.80000000000007
20
180
0
CIRCLE
5
141
100
AcDbEntity
8
0
100
AcDbCircle
10
310.11091270347401
20
173.88908729652599
30
-4.2590542832869046e-14
40
2.1000000000000001
210
0
220
0
230
1
0
CIRCLE
5
142
100
AcDbEntity
8
0
100
AcDbCircle
10
461.38908729652604
20
173.88908729652599
30
-4.2590542832869046e-14
40
2.1000000000000001
210
0
220
0
230
1
0
CIRCLE
5
143
100
AcDbEntity
8
0
100
AcDbCircle
10
400.11091270347407
20
173.88908729652599
30
-4.2590542832869046e-14
40
2.1000000000000001
210
0
220
0
230
1
0
SPLINE
5
144
100
AcDbEntity
8
0
100
AcDbSpline
70
4
71
5
72
41
73
35
74
0
42
0.000000001
43
0.0000000001
44
0.0000000001
40
0
40
0
40
0
40
0
40
0
40
0
40
0.033333333333333333
40
0.066666666666666666
40
0.10000000000000001
40
0.13333333333333333
40
0.16666666666666666
40
0.19999999999999998
40
0.23333333333333331
40
0.26666666666666666
40
0.29999999999999999
40
0.33333333333333331
40
0.36666666666666664
40
0.39999999999999997
40
0.43333333333333329
40
0.46666666666666662
40
0.49999999999999994
40
0.53333333333333333
40
0.56666666666666665
40
0.59999999999999998
40
0.6333333333333333
40
0.66666666666666663
40
0.69999999999999996
40
0.73333333333333328
40
0.76666666666666661
40
0.79999999999999993
40
0.83333333333333326
40
0.86666666666666659
40
0.89999999999999991
40
0.93333333333333324
40
0.96666666666666656
40
1
40
1
40
1
40
1
40
1
40
1
41
1
41
1
41
1
41
1
41
1
41
1
41
1
41
1
41
1
41
1
41
1
41
1
41
1
41
1
41
1
41
1
41
1
41
1
41
1
41
1
41
1
41
1
41
1
41
1
41
1
41
1
41
1
41
1
41
1
41
1
41
1
41
1
41
1
41
1
41
1
10
338.66649662472275
20
149.83438225644903
30
1.3533951606635597
10
338.61395224646407
20
149.89936823622602
30
1.3533951606631107
10
338.50666965654398
20
150.02998766186511
30
1.3533951606623162
10
338.33916426476202
20
150.22785920809804
30
1.3533951606614414
10
338.10263694911555
20
150.49557970731064
30
1.3533951606608843
10
337.78507956847352
20
150.83654196061448
30
1.3533951606610133
10
337.44610733316784
20
151.18321779460044
30
1.353395160661697
10
337.08687299781667
20
151.53435591071872
30
1.3533951606626349
10
336.70948083426651
20
151.88780692859274
30
1.3533951606635484
10
336.31725490242832
20
152.2402976732177
30
1.3533951606642245
10
335.91507497809909
20
152.58713413024682
30
1.3533951606645713
10
335.50890984085231
20
152.92280502958073
30
1.3533951606645913
10
335.1052796086787
20
153.24167043961566
30
1.3533951606643577
10
334.71075944740051
20
153.53860685882722
30
1.3533951606640013
10
334.3314455921369
20
153.80970509271728
30
1.3533951606636534
10
333.97248394231775
20
154.0528910859087
30
1.35339516066342
10
333.63743748021795
20
154.26876347087966
30
1.353395160663335
10
333.32822010246218
20
154.46068229311578
30
1.3533951606633718
10
333.04553776302419
20
154.63416967394215
30
1.3533951606634698
10
332.78917121086408
20
154.7965514822148
30
1.3533951606635595
10
332.55831684888494
20
154.95645649444103
30
1.353395160663581
10
332.35187459110477
20
155.12354895347616
30
1.3533951606635453
10
332.16884749416602
20
155.30734586576759
30
1.3533951606635033
10
332.00883586187399
20
155.51539729024717
30
1.3533951606635122
10
331.87242953861471
20
155.75188179501455
30
1.3533951606636028
10
331.76181480183129
20
156.01544859104973
30
1.3533951606637376
10
331.68052205573008
20
156.29983901412564
30
1.3533951606638173
10
331.63255689726975
20
156.59645059604583
30
1.3533951606637482
10
331.62176454608709
20
156.8961733010679
30
1.3533951606634931
10
331.65097319422722
20
157.19180792016897
30
1.353395160663118
10
331.72160780077667
20
157.4792751163935
30
1.3533951606628245
10
331.81170264154048
20
157.701075536063
30
1.3533951606628423
10
331.89817660255216
20
157.86254967708138
30
1.3533951606630974
10
331.96421246550403
20
157.96803461643771
30
1.3533951606633847
10
331.9993270079521
20
158.02023603462095
30
1.3533951606635577
0
SPLINE
5
145
100
AcDbEntity
8
0
100
AcDbSpline
70
4
71
5
72
21
73
15
74
0
42
0.000000001
43
0.0000000001
44
0.0000000001
40
0
40
0
40
0
40
0
40
0
40
0
40
0.10000000000000001
40
0.20000000000000001
40
0.30000000000000004
40
0.40000000000000002
40
0.5
40
0.59999999999999998
40
0.69999999999999996
40
0.79999999999999993
40
0.89999999999999991
40
1
40
1
40
1
40
1
40
1
40
1
41
1
41
1
41
1
41
1
41
1
41
1
41
1
41
1
41
1
41
1
41
1
41
1
41
1
41
1
41
1
10
344.61494540482141
20
138.43929379302415
30
1.3533951606635628
10
344.58387255649495
20
138.58310922851504
30
1.353395160663269
10
344.51902278446687
20
138.87118440444223
30
1.3533951606627628
10
344.41363592155284
20
139.30463007967793
30
1.3533951606622501
10
344.25662859231346
20
139.88526735675285
30
1.3533951606620189
10
344.03105555902079
20
140.61588049713515
30
1.3533951606623076
10
343.77369668070014
20
141.3517163499306
30
1.3533951606629413
10
343.48218660732039
20
142.09316356431688
30
1.3533951606637007
10
343.15566075702498
20
142.84036419918641
30
1.3533951606643844
10
342.79596286243043
20
143.59301531196903
30
1.3533951606648369
10
342.4057935921266
20
144.3506731574787
30
1.3533951606649344
10
342.07137786658632
20
144.9604602975916
30
1.3533951606646488
10
341.80884475308852
20
145.41972657533131
30
1.353395160664199
10
341.62869867075307
20
145.72674601615722
30
1.3533951606637911
10
341.53734456033425
20
145.88046622825806
30
1.3533951606635608
0
SPLINE
5
146
100
AcDbEntity
8
0
100
AcDbSpline
70
4
71
5
72
71
73
65
74
0
42
0.000000001
43
0.0000000001
44
0.0000000001
40
0
40
0
40
0
40
0
40
0
40
0
40
0.016666666666666666
40
0.033333333333333333
40
0.050000000000000003
40
0.066666666666666666
40
0.083333333333333329
40
0.099999999999999992
40
0.11666666666666665
40
0.13333333333333333
40
0.14999999999999999
40
0.16666666666666666
40
0.18333333333333332
40
0.19999999999999998
40
0.21666666666666665
40
0.23333333333333331
40
0.24999999999999997
40
0.26666666666666666
40
0.28333333333333333
40
0.29999999999999999
40
0.31666666666666665
40
0.33333333333333331
40
0.34999999999999998
40
0.36666666666666664
40
0.3833333333333333
40
0.39999999999999997
40
0.41666666666666663
40
0.43333333333333329
40
0.44999999999999996
40
0.46666666666666662
40
0.48333333333333328
40
0.49999999999999994
40
0.51666666666666661
40
0.53333333333333333
40
0.55000000000000004
40
0.56666666666666676
40
0.58333333333333348
40
0.6000000000000002
40
0.61666666666666692
40
0.63333333333333364
40
0.65000000000000036
40
0.66666666666666707
40
0.68333333333333379
40
0.70000000000000051
40
0.71666666666666723
40
0.73333333333333395
40
0.75000000000000067
40
0.76666666666666738
40
0.7833333333333341
40
0.80000000000000082
40
0.81666666666666754
40
0.83333333333333426
40
0.85000000000000098
40
0.8666666666666677
40
0.88333333333333441
40
0.90000000000000113
40
0.91666666666666785
40
0.93333333333333457
40
0.95000000000000129
40
0.96666666666666801
40
0.98333333333333472
40
1
40
1
40
1
40
1
40
1
40
1
41
1
41
1
41
1
41
1
41
1
41
1
41
1
41
1
41
1
41
1
41
1
41
1
41
1
41
1
41
1
41
1
41
1
41
1
41
1
41
1
41
1
41
1
41
1
41
1
41
1
41
1
41
1
41
1
41
1
41
1
41
1
41
1
41
1
41
1
41
1
41
1
41
1
41
1
41
1
41
1
41
1
41
1
41
1
41
1
41
1
41
1
41
1
41
1
41
1
41
1
41
1
41
1
41
1
41
1
41
1
41
1
41
1
41
1
41
1
41
1
41
1
41
1
41
1
41
1
41
1
10
341.53734456033425
20
145.88046622825806
30
1.3533951606635608
10
341.43893252849915
20
145.79320795282769
30
1.3533951606636352
10
341.24185378241719
20
145.62013462598239
30
1.3533951606637706
10
340.94547162135279
20
145.36485430669816
30
1.3533951606639314
10
340.54876658526558
20
145.03314381499362
30
1.3533951606640595
10
340.05043748707192
20
144.63297266113563
30
1.3533951606640713
10
339.54996750574333
20
144.24731388605164
30
1.3533951606639807
10
339.04797762858755
20
143.8762284468427
30
1.3533951606638359
10
338.54550528776838
20
143.51979201340311
30
1.3533951606636927
10
338.04411986597808
20
143.17809174277141
30
1.3533951606635777
10
337.54600957787704
20
142.85122825766686
30
1.3533951606635015
10
337.05414323163524
20
142.53930403141464
30
1.3533951606634576
10
336.57203869045276
20
142.24248411623202
30
1.3533951606634407
10
336.10337889908004
20
141.96108654758362
30
1.3533951606634558
10
335.6516816415193
20
141.69565971466989
30
1.3533951606634931
10
335.21993829055771
20
141.44707292273316
30
1.3533951606635415
10
334.810284089493
20
141.21658410194922
30
1.3533951606635777
10
334.42360622225772
20
141.00596041392438
30
1.3533951606635948
10
334.05933964288442
20
140.81743229197005
30
1.3533951606635939
10
333.71562681421887
20
140.65336354515887
30
1.3533951606635815
10
333.38935929622846
20
140.5159671869506
30
1.353395160663565
10
333.07633855726522
20
140.40704003111509
30
1.3533951606635566
10
332.77119962185657
20
140.32759581366489
30
1.3533951606635557
10
332.46822732367747
20
140.2779328887687
30
1.3533951606635595
10
332.16306054363758
20
140.25811458718849
30
1.3533951606635639
10
331.85394141496312
20
140.26827472217826
30
1.353395160663561
10
331.54363845000421
20
140.30912815091403
30
1.3533951606635599
10
331.23899150821444
20
140.38180615538897
30
1.3533951606635595
10
330.94860463915904
20
140.48714531916022
30
1.3533951606635597
10
330.68122561504958
20
140.62522150891797
30
1.3533951606635644
10
330.4434933561962
20
140.79457141100707
30
1.3533951606635688
10
330.23964086610499
20
140.99256826226144
30
1.3533951606635699
10
330.07221261306017
20
141.21646561045478
30
1.3533951606635644
10
329.94248241850369
20
141.46417606764734
30
1.3533951606635528
10
329.85096632669604
20
141.73531181352553
30
1.3533951606635379
10
329.79818936226224
20
142.02942487410479
30
1.3533951606635428
10
329.78541565933318
20
142.34418896131166
30
1.3533951606635624
10
329.815550038683
20
142.67336529772186
30
1.3533951606635966
10
329.89351076816956
20
143.0055252543151
30
1.3533951606636239
10
330.02361552601053
20
143.32718002315909
30
1.3533951606636214
10
330.20730128872566
20
143.62539272984094
30
1.3533951606635721
10
330.4407619249464
20
143.8905514127583
30
1.3533951606634895
10
330.71246561186888
20
144.11918320271963
30
1.3533951606634105
10
331.0071949603722
20
144.31314778305889
30
1.3533951606633943
10
331.31058614884955
20
144.47871474300018
30
1.3533951606634818
10
331.61298384936629
20
144.62564557681713
30
1.3533951606636718
10
331.91481940087942
20
144.76639945127795
30
1.353395160663893
10
332.22527786459261
20
144.91469860839169
30
1.3533951606640202
10
332.55724680050469
20
145.08369988459316
30
1.3533951606639336
10
332.92353500565156
20
145.28434300192419
30
1.3533951606635573
10
333.33231142371523
20
145.52349812365935
30
1.3533951606629171
10
333.78361839197578
20
145.80255466301028
30
1.353395160662163
10
334.27149403606541
20
146.11876101609258
30
1.35339516066152
10
334.78551305028128
20
146.46626753327439
30
1.3533951606612287
10
335.31252179787907
20
146.83726489581721
30
1.3533951606614973
10
335.83832573820365
20
147.22310396866416
30
1.3533951606624424
10
336.34929730442025
20
147.61535824388028
30
1.3533951606640426
10
336.83425301905118
20
148.00706277578374
30
1.3533951606660639
10
337.28542852309289
20
148.39336719540216
30
1.3533951606680459
10
337.69764586897674
20
148.77101739396306
30
1.3533951606694119
10
338.06787298611334
20
149.13809089177889
30
1.3533951606695573
10
338.32927919847805
20
149.42252481132346
30
1.3533951606682511
10
338.50557038842794
20
149.63052401417809
30
1.3533951606663022
10
338.61431786871378
20
149.76682388222156
30
1.3533951606645489
10
338.66649662472275
20
149.83438225644903
30
1.3533951606635597
0
LWPOLYLINE
5
147
100
AcDbEntity
8
0
100
AcDbPolyline
90
8
70
1
43
0.0
10
460.70000000000005
20
180
42
-0.41421356237309509
10
470.70000000000005
20
170
10
470.70000000000005
20
76
42
-0.41421356237309509
10
460.70000000000005
20
66
10
400.79999999999995
20
66
42
-0.41421356237309509
10
390.79999999999995
20
76
10
390.79999999999995
20
170
42
-0.41421356237309509
10
400.79999999999995
20
180
0
SPLINE
5
148
100
AcDbEntity
8
0
100
AcDbSpline
70
4
71
5
72
46
73
40
74
0
42
0.000000001
43
0.0000000001
44
0.0000000001
40
0
40
0
40
0
40
0
40
0
40
0
40
0.028571428571428571
40
0.057142857142857141
40
0.085714285714285715
40
0.11428571428571428
40
0.14285714285714285
40
0.17142857142857143
40
0.20000000000000001
40
0.22857142857142859
40
0.25714285714285717
40
0.28571428571428575
40
0.31428571428571433
40
0.34285714285714292
40
0.3714285714285715
40
0.40000000000000008
40
0.42857142857142866
40
0.45714285714285724
40
0.48571428571428582
40
0.51428571428571435
40
0.54285714285714293
40
0.57142857142857151
40
0.60000000000000009
40
0.62857142857142867
40
0.65714285714285725
40
0.68571428571428583
40
0.71428571428571441
40
0.74285714285714299
40
0.77142857142857157
40
0.80000000000000016
40
0.82857142857142874
40
0.85714285714285732
40
0.8857142857142859
40
0.91428571428571448
40
0.94285714285714306
40
0.97142857142857164
40
1
40
1
40
1
40
1
40
1
40
1
41
1
41
1
41
1
41
1
41
1
41
1
41
1
41
1
41
1
41
1
41
1
41
1
41
1
41
1
41
1
41
1
41
1
41
1
41
1
41
1
41
1
41
1
41
1
41
1
41
1
41
1
41
1
41
1
41
1
41
1
41
1
41
1
41
1
41
1
41
1
41
1
41
1
41
1
41
1
41
1
10
345.02096393789515
20
149.6048034525511
30
1.3533951606635597
10
345.1076720580445
20
149.50326524216723
30
1.3533951606643344
10
345.27927301293909
20
149.29654909779407
30
1.3533951606657213
10
345.53122858322251
20
148.97555568597838
30
1.3533951606673098
10
345.85626318563357
20
148.52569724451098
30
1.3533951606684695
10
346.24431422586281
20
147.92717593251123
30
1.353395160668567
10
346.61407464169832
20
147.2934968802507
30
1.3533951606676697
10
346.96555731047636
20
146.62696198679373
30
1.3533951606662056
10
347.29888977533727
20
145.93163794143086
30
1.3533951606645964
10
347.61435299591608
20
145.21380590903894
30
1.353395160663202
10
347.91246172663455
20
144.48257349722945
30
1.3533951606622605
10
348.19393209320731
20
143.75005762097948
30
1.3533951606618375
10
348.45919751870349
20
143.02980007422917
30
1.3533951606618833
10
348.70797895467996
20
142.3354321632265
30
1.3533951606622663
10
348.9388591079985
20
141.67928331991078
30
1.3533951606628203
10
349.14879055685719
20
141.07091550612139
30
1.3533951606633667
10
349.33276723922376
20
140.51588303623794
30
1.3533951606637595
10
349.48307138207917
20
140.01385256587909
30
1.3533951606639272
10
349.58995733777317
20
139.55886057314598
30
1.3533951606638992
10
349.64411525645005
20
139.14228839750501
30
1.3533951606637502
10
349.63879740404201
20
138.75520272368158
30
1.3533951606635721
10
349.57186750025664
20
138.39079144259154
30
1.3533951606634507
10
349.44851385616295
20
138.04715815983064
30
1.3533951606634176
10
349.27815945270032
20
137.72634291286215
30
1.3533951606634655
10
349.07024565541417
20
137.43261057130402
30
1.3533951606635608
10
348.83050067529371
20
137.17102685676761
30
1.3533951606636538
10
348.55678572746911
20
136.94586675224218
30
1.3533951606636987
10
348.24363295513712
20
136.76121451058859
30
1.3533951606636681
10
347.886833679235
20
136.62157231176286
30
1.3533951606635608
10
347.48830695011088
20
136.53251689640666
30
1.3533951606634069
10
347.06006120594691
20
136.50118760222219
30
1.3533951606632901
10
346.61989035646678
20
136.53530301437621
30
1.3533951606632919
10
346.18770399219784
20
136.6422696605928
30
1.3533951606634669
10
345.78187050372651
20
136.8283170006558
30
1.3533951606638044
10
345.41494981192318
20
137.09743146285709
30
1.3533951606641854
10
345.09413684796988
20
137.45166659147779
30
1.3533951606644181
10
344.87716643404264
20
137.80377321185935
30
1.3533951606643329
10
344.7372108443966
20
138.10651719390404
30
1.3533951606640438
10
344.65401581325898
20
138.32550802136851
30
1.3533951606637409
10
344.61494540482141
20
138.43929379302415
30
1.3533951606635628
0
CIRCLE
5
149
100
AcDbEntity
8
0
100
AcDbCircle
10
371.38908729652604
20
173.88908729652599
30
-4.2590542832869046e-14
40
2.1000000000000001
210
0
220
0
230
1
0
CIRCLE
5
150
100
AcDbEntity
8
0
100
AcDbCircle
10
340.05166692585357
20
161.44016432108995
30
1.353395160663557
40
3.3225508085396811
210
0
220
0
230
1
0
LWPOLYLINE
5
151
100
AcDbEntity
8
0
100
AcDbPolyline
90
8
70
1
43
0.0
10
392
20
53.999999999999986
10
468.00000000000006
20
53.999999999999943
42
-0.41421356237309509
10
470
20
51.999999999999986
10
470.00000000000006
20
2.0000000000000013
42
-0.41421356237309526
10
468.00000000000006
20
0
10
392
20
-4.0523140398818214e-14
42
-0.41421356237309703
10
390
20
2.0000000000000018
10
390
20
51.999999999999972
42
-0.41421356237309637
0
CIRCLE
5
152
100
AcDbEntity
8
0
100
AcDbCircle
10
461.38908729652604
20
72.110912703473986
30
-1.7662079685180726e-14
40
2.1000000000000001
210
0
220
0
230
1
0
CIRCLE
5
153
100
AcDbEntity
8
0
100
AcDbCircle
10
400.11091270347407
20
72.110912703473971
30
-1.7662079685180723e-14
40
2.1000000000000001
210
0
220
0
230
1
0
SPLINE
5
154
100
AcDbEntity
8
0
100
AcDbSpline
70
4
71
5
72
56
73
50
74
0
42
0.000000001
43
0.0000000001
44
0.0000000001
40
0
40
0
40
0
40
0
40
0
40
0
40
0.022222222222222223
40
0.044444444444444446
40
0.066666666666666666
40
0.088888888888888892
40
0.11111111111111112
40
0.13333333333333333
40
0.15555555555555556
40
0.17777777777777778
40
0.20000000000000001
40
0.22222222222222224
40
0.24444444444444446
40
0.26666666666666666
40
0.28888888888888886
40
0.31111111111111106
40
0.33333333333333326
40
0.35555555555555546
40
0.37777777777777766
40
0.39999999999999986
40
0.42222222222222205
40
0.44444444444444425
40
0.46666666666666645
40
0.48888888888888865
40
0.51111111111111085
40
0.5333333333333331
40
0.55555555555555536
40
0.57777777777777761
40
0.59999999999999987
40
0.62222222222222212
40
0.64444444444444438
40
0.66666666666666663
40
0.68888888888888888
40
0.71111111111111114
40
0.73333333333333339
40
0.75555555555555565
40
0.7777777777777779
40
0.80000000000000016
40
0.82222222222222241
40
0.84444444444444466
40
0.86666666666666692
40
0.88888888888888917
40
0.91111111111111143
40
0.93333333333333368
40
0.95555555555555594
40
0.97777777777777819
40
1
40
1
40
1
40
1
40
1
40
1
41
1
41
1
41
1
41
1
41
1
41
1
41
1
41
1
41
1
41
1
41
1
41
1
41
1
41
1
41
1
41
1
41
1
41
1
41
1
41
1
41
1
41
1
41
1
41
1
41
1
41
1
41
1
41
1
41
1
41
1
41
1
41
1
41
1
41
1
41
1
41
1
41
1
41
1
41
1
41
1
41
1
41
1
41
1
41
1
41
1
41
1
41
1
41
1
41
1
41
1
10
340.48758597250441
20
28.201434933596726
30
0.66818635831982887
10
340.51663158842678
20
28.246106294593879
30
0.66818635832033457
10
340.57470622739413
20
28.336358837658008
30
0.66818635832122453
10
340.66176840192094
20
28.474467107918958
30
0.6681863583221882
10
340.77775170064615
20
28.664074837419143
30
0.6681863583227583
10
340.92238828032407
20
28.909914121931504
30
0.66818635832252871
10
341.06615392527169
20
29.163711356589992
30
0.66818635832169937
10
341.20798969161706
20
29.423685498838875
30
0.66818635832064832
10
341.34613161828844
20
29.686837631275584
30
0.66818635831971207
10
341.47792170538992
20
29.948621434180719
30
0.66818635831912454
10
341.59965345589535
20
30.202660205111421
30
0.66818635831894302
10
341.70757599316238
20
30.442002946478304
30
0.66818635831909345
10
341.79881767365151
20
30.660280317337435
30
0.66818635831942608
10
341.87242180866883
20
30.852988554541334
30
0.66818635831977091
10
341.93015985459749
20
31.018521720016068
30
0.66818635831998741
10
341.97790755761639
20
31.159836048021859
30
0.66818635832003426
10
342.02446278002378
20
31.283243314775653
30
0.66818635831995477
10
342.07894731247649
20
31.395615881101758
30
0.66818635831983231
10
342.14877417684306
20
31.502227214736386
30
0.66818635831974671
10
342.23707007465146
20
31.603982595864473
30
0.66818635831972872
10
342.34364453012182
20
31.698622410788182
30
0.66818635831977014
10
342.46637130211445
20
31.78238336480949
30
0.66818635831984063
10
342.60250242124579
20
31.851599518952035
30
0.66818635831990447
10
342.74976310063886
20
31.904024240248802
30
0.6681863583199309
10
342.90590314900896
20
31.938237672988706
30
0.66818635831990081
10
343.06847539462495
20
31.95333486873411
30
0.66818635831981432
10
343.23447570446348
20
31.948452952076419
30
0.6681863583197013
10
343.4001885540722
20
31.922533235873665
30
0.66818635831963136
10
343.56171272394272
20
31.874848066601238
30
0.66818635831966655
10
343.71536955103716
20
31.805391259486832
30
0.6681863583198302
10
343.8581947327948
20
31.715381559787062
30
0.66818635832008133
10
343.98828970916389
20
31.607559220169957
30
0.66818635832026985
10
344.1041765775766
20
31.484958330121589
30
0.66818635832023843
10
344.20424698563056
20
31.349823385692893
30
0.66818635831989059
10
344.28617337583796
20
31.202465221220503
30
0.66818635831927908
10
344.34634110361429
20
31.040149216161957
30
0.66818635831868434
10
344.38034995799433
20
30.858068453361721
30
0.66818635831849382
10
344.38353245234225
20
30.650343409347343
30
0.66818635831907947
10
344.35142791031069
20
30.410940474319158
30
0.66818635832068862
10
344.28036869349677
20
30.134789580543654
30
0.66818635832330187
10
344.16758747483334
20
29.818039243786536
30
0.66818635832662987
10
344.01103681693178
20
29.457792647956435
30
0.66818635833019047
10
343.80930016974168
20
29.05200614967811
30
0.66818635833337048
10
343.56146914452273
20
28.599325432803312
30
0.66818635833548479
10
343.26703907529111
20
28.098952899949335
30
0.66818635833584339
10
342.92580020221851
20
27.55050569532991
30
0.66818635833381101
10
342.61534716144297
20
27.073206273101874
30
0.66818635832985518
10
342.36146624873084
20
26.693571654824837
30
0.66818635832542306
10
342.18286821383344
20
26.430862964922881
30
0.66818635832180417
10
342.09123317273162
20
26.297103883327082
30
0.66818635831982953
0
LWPOLYLINE
5
155
100
AcDbEntity
8
0
100
AcDbPolyline
90
8
70
1
43
0.0
10
300.00000000000006
20
51.999999999999972
42
-0.41421356237309637
10
302
20
53.999999999999986
10
378.00000000000006
20
53.999999999999943
42
-0.41421356237309509
10
380
20
51.999999999999986
10
380.00000000000006
20
2.0000000000000013
42
-0.41421356237309526
10
378.00000000000006
20
0
10
302
20
-4.9960036108132044e-15
42
-0.41421356237309703
10
300.00000000000006
20
2.0000000000000018
0
CIRCLE
5
156
100
AcDbEntity
8
0
100
AcDbCircle
10
371.38908729652604
20
72.110912703473986
30
-1.7662079685180726e-14
40
2.1000000000000001
210
0
220
0
230
1
0
SPLINE
5
157
100
AcDbEntity
8
0
100
AcDbSpline
70
4
71
5
72
36
73
30
74
0
42
0.000000001
43
0.0000000001
44
0.0000000001
40
0
40
0
40
0
40
0
40
0
40
0
40
0.040000000000000001
40
0.080000000000000002
40
0.12
40
0.16
40
0.20000000000000001
40
0.24000000000000002
40
0.28000000000000003
40
0.32000000000000001
40
0.35999999999999999
40
0.39999999999999997
40
0.43999999999999995
40
0.47999999999999993
40
0.51999999999999991
40
0.55999999999999994
40
0.59999999999999998
40
0.64000000000000001
40
0.68000000000000005
40
0.72000000000000008
40
0.76000000000000012
40
0.80000000000000016
40
0.84000000000000019
40
0.88000000000000023
40
0.92000000000000026
40
0.9600000000000003
40
1
40
1
40
1
40
1
40
1
40
1
41
1
41
1
41
1
41
1
41
1
41
1
41
1
41
1
41
1
41
1
41
1
41
1
41
1
41
1
41
1
41
1
41
1
41
1
41
1
41
1
41
1
41
1
41
1
41
1
41
1
41
1
41
1
41
1
41
1
41
1
10
335.66230508692729
20
30.451897260852007
30
0.66818635831982831
10
335.6853625303512
20
30.479777795125461
30
0.66818635831975903
10
335.73258482362525
20
30.533441922191663
30
0.66818635831964257
10
335.80674042632802
20
30.607647448968855
30
0.66818635831953532
10
335.91227671066412
20
30.693972615593186
30
0.66818635831951911
10
336.05545533559859
20
30.780415835031924
30
0.66818635831963813
10
336.2101888297135
20
30.844391092441445
30
0.66818635831980211
10
336.37691955304399
20
30.88418660552254
30
0.66818635831992768
10
336.55629834158935
20
30.897068245409013
30
0.6681863583199783
10
336.74889351994784
20
30.879972352134061
30
0.66818635831995832
10
336.95476171115718
20
30.830576277884262
30
0.66818635831989159
10
337.17307997820876
20
30.748208318806853
30
0.66818635831981199
10
337.40167965694809
20
30.634975991280836
30
0.66818635831975071
10
337.63677689143668
20
30.49647973818206
30
0.66818635831972129
10
337.8737869625275
20
30.340278598132841
30
0.66818635831972684
10
338.10797644590076
20
30.174691338475643
30
0.6681863583197607
10
338.33520791379431
20
30.00743017596475
30
0.66818635831981044
10
338.55257025569517
20
29.844442554487173
30
0.6681863583198604
10
338.75927290048332
20
29.688313639469122
30
0.6681863583198977
10
338.95648312502135
20
29.538446372637939
30
0.66818635831991491
10
339.14657957559911
20
29.392224833179171
30
0.66818635831990536
10
339.33258497423481
20
29.245877441576184
30
0.66818635831986783
10
339.51757630835851
20
29.095387680317121
30
0.66818635831980566
10
339.70401446198827
20
28.937521879494245
30
0.66818635831973316
10
339.89344079567383
20
28.770305517489767
30
0.66818635831967121
10
340.08676537099916
20
28.592605149453782
30
0.66818635831964845
10
340.24487801153862
20
28.441670308156496
30
0.66818635831968032
10
340.36545808710878
20
28.323485470839689
30
0.66818635831973983
10
340.44672926147098
20
28.24248661624916
30
0.66818635831979645
10
340.48758597250441
20
28.201434933596726
30
0.66818635831982887
0
SPLINE
5
158
100
AcDbEntity
8
0
100
AcDbSpline
70
4
71
5
72
46
73
40
74
0
42
0.000000001
43
0.0000000001
44
0.0000000001
40
0
40
0
40
0
40
0
40
0
40
0
40
0.028571428571428571
40
0.057142857142857141
40
0.085714285714285715
40
0.11428571428571428
40
0.14285714285714285
40
0.17142857142857143
40
0.20000000000000001
40
0.22857142857142859
40
0.25714285714285717
40
0.28571428571428575
40
0.31428571428571433
40
0.34285714285714292
40
0.3714285714285715
40
0.40000000000000008
40
0.42857142857142866
40
0.45714285714285724
40
0.48571428571428582
40
0.51428571428571435
40
0.54285714285714293
40
0.57142857142857151
40
0.60000000000000009
40
0.62857142857142867
40
0.65714285714285725
40
0.68571428571428583
40
0.71428571428571441
40
0.74285714285714299
40
0.77142857142857157
40
0.80000000000000016
40
0.82857142857142874
40
0.85714285714285732
40
0.8857142857142859
40
0.91428571428571448
40
0.94285714285714306
40
0.97142857142857164
40
1
40
1
40
1
40
1
40
1
40
1
41
1
41
1
41
1
41
1
41
1
41
1
41
1
41
1
41
1
41
1
41
1
41
1
41
1
41
1
41
1
41
1
41
1
41
1
41
1
41
1
41
1
41
1
41
1
41
1
41
1
41
1
41
1
41
1
41
1
41
1
41
1
41
1
41
1
41
1
41
1
41
1
41
1
41
1
41
1
41
1
10
342.09123317273156
20
26.297103883327079
30
0.66818635831982942
10
342.13480264393633
20
26.245991232430402
30
0.66818635832037965
10
342.22105814041646
20
26.141815255618525
30
0.66818635832136053
10
342.34779104304039
20
25.979699239226765
30
0.66818635832247009
10
342.51146055061577
20
25.751825107006837
30
0.66818635832324935
10
342.70716041605931
20
25.447603219963391
30
0.6681863583232539
10
342.89392263845491
20
25.124624188531307
30
0.66818635832256379
10
343.07169883582503
20
24.784247099174937
30
0.66818635832150086
10
343.24046064066584
20
24.428868832559761
30
0.66818635832037176
10
343.40020671485172
20
24.062165293186581
30
0.66818635831943229
10
343.55099856755567
20
23.689496109482462
30
0.66818635831883688
10
343.69290579360558
20
23.317800669772105
30
0.66818635831861717
10
343.82580377037289
20
22.954652100527646
30
0.66818635831872319
10
343.9492011769733
20
22.607500352061528
30
0.66818635831904527
10
344.06206381196029
20
22.282856868154454
30
0.66818635831944906
10
344.1626176260246
20
21.985457541447495
30
0.66818635831980622
10
344.24820666592899
20
21.71752044708915
30
0.66818635832002848
10
344.31499687263693
20
21.477694759781492
30
0.66818635832009132
10
344.35871407214154
20
21.262022677651391
30
0.66818635832003315
10
344.37567383328889
20
21.065427077274755
30
0.66818635831991646
10
344.3636635740877
20
20.88296747208393
30
0.66818635831980466
10
344.32301754692685
20
20.711285967243981
30
0.66818635831974504
10
344.25726393802711
20
20.549690274909057
30
0.66818635831974493
10
344.17109384451999
20
20.399196188319998
30
0.66818635831978646
10
344.0687385447161
20
20.261834265206979
30
0.66818635831984208
10
343.95199357992738
20
20.13980340787008
30
0.66818635831988427
10
343.81896988189555
20
20.03485775092523
30
0.66818635831989703
10
343.66664656961098
20
19.948759275824436
30
0.66818635831987505
10
343.49284160982415
20
19.883577372513209
30
0.66818635831982431
10
343.29864635649938
20
19.842096727159444
30
0.66818635831976014
10
343.0899870075724
20
19.828032366860761
30
0.66818635831971496
10
342.87546940117403
20
19.84545969977113
30
0.6681863583197194
10
342.66467677089514
20
19.898329552464261
30
0.66818635831979356
10
342.46640925879177
20
19.989982956144893
30
0.66818635831993123
10
342.28666929779547
20
20.122566906512375
30
0.66818635832008511
10
342.12889896690388
20
20.29720095228976
30
0.6681863583201797
10
342.02159416588103
20
20.470897623476571
30
0.66818635832014628
10
341.95196979293399
20
20.620301780799359
30
0.66818635832002882
10
341.91037176324306
20
20.728396383248491
30
0.66818635831990414
10
341.89077727270308
20
20.784566632546447
30
0.66818635831983064
0
CIRCLE
5
159
100
AcDbEntity
8
0
100
AcDbCircle
10
310.11091270347401
20
72.110912703473971
30
-1.7662079685180723e-14
40
2.1000000000000001
210
0
220
0
230
1
0
SPLINE
5
160
100
AcDbEntity
8
0
100
AcDbSpline
70
4
71
5
72
41
73
35
74
0
42
0.000000001
43
0.0000000001
44
0.0000000001
40
0
40
0
40
0
40
0
40
0
40
0
40
0.033333333333333333
40
0.066666666666666666
40
0.10000000000000001
40
0.13333333333333333
40
0.16666666666666666
40
0.19999999999999998
40
0.23333333333333331
40
0.26666666666666666
40
0.29999999999999999
40
0.33333333333333331
40
0.36666666666666664
40
0.39999999999999997
40
0.43333333333333329
40
0.46666666666666662
40
0.49999999999999994
40
0.53333333333333333
40
0.56666666666666665
40
0.59999999999999998
40
0.6333333333333333
40
0.66666666666666663
40
0.69999999999999996
40
0.73333333333333328
40
0.76666666666666661
40
0.79999999999999993
40
0.83333333333333326
40
0.86666666666666659
40
0.89999999999999991
40
0.93333333333333324
40
0.96666666666666656
40
1
40
1
40
1
40
1
40
1
40
1
41
1
41
1
41
1
41
1
41
1
41
1
41
1
41
1
41
1
41
1
41
1
41
1
41
1
41
1
41
1
41
1
41
1
41
1
41
1
41
1
41
1
41
1
41
1
41
1
41
1
41
1
41
1
41
1
41
1
41
1
41
1
41
1
41
1
41
1
41
1
10
338.95396144569997
20
26.410449511701252
30
0.66818635831982931
10
338.92774890895282
20
26.443168157910961
30
0.66818635831998052
10
338.8741060307479
20
26.508982346825206
30
0.66818635832024609
10
338.78998830597857
20
26.608834313717903
30
0.66818635832053452
10
338.6705112343202
20
26.744235785176929
30
0.66818635832070816
10
338.5090250142631
20
26.917158894877787
30
0.6681863583206461
10
338.33571372030758
20
27.093398227350313
30
0.66818635832040241
10
338.15131340561487
20
27.272208254538487
30
0.66818635832008444
10
337.95714672417023
20
27.452316070658455
30
0.66818635831979001
10
337.75530600223067
20
27.631767784280939
30
0.66818635831958417
10
337.54880664538922
20
27.807808085181463
30
0.66818635831948914
10
337.34123296474581
20
27.977293349597264
30
0.6681863583194998
10
337.13641584700065
20
28.137074145312091
30
0.66818635831958351
10
336.93810438449998
20
28.284385816469243
30
0.6681863583197043
10
336.74963286304637
20
28.417248442349077
30
0.66818635831982387
10
336.57360252509164
20
28.534849754680334
30
0.66818635831991524
10
336.41150636787825
20
28.638001820510294
30
0.66818635831996054
10
336.26390243006608
20
28.728905915560787
30
0.66818635831995676
10
336.13064996384543
20
28.810838614917923
30
0.66818635831990791
10
336.01111504312644
20
28.887876620514781
30
0.6681863583198312
10
335.90438089559882
20
28.964615057092047
30
0.66818635831974804
10
335.80945211536374
20
29.045893323396331
30
0.66818635831969619
10
335.72549270136756
20
29.136123648931047
30
0.66818635831970608
10
335.6520765659925
20
29.238575333034508
30
0.66818635831979023
10
335.58940645233491
20
29.354739957760295
30
0.66818635831993312
10
335.53861748492625
20
29.483461029498162
30
0.66818635832006912
10
335.50151037898991
20
29.62158646248513
30
0.66818635832011364
10
335.48012765153248
20
29.765025116744077
30
0.66818635832000273
10
335.47641461801356
20
29.909586394476676
30
0.66818635831972406
10
335.49176746121867
20
30.052067657436417
30
0.66818635831936601
10
335.52689050573474
20
30.190658288961693
30
0.66818635831911111
10
335.57102896237336
20
30.297690116304512
30
0.66818635831915185
10
335.61316185348517
20
30.375680568135973
30
0.66818635831939943
10
335.6452563661004
20
30.4266606069421
30
0.66818635831966799
10
335.66230508692729
20
30.451897260852007
30
0.66818635831982831
0
CIRCLE
5
161
100
AcDbEntity
8
0
100
AcDbCircle
10
339.6378355469725
20
32.140354183019703
30
0.66818635831982787
40
1.6403805700045657
210
0
220
0
230
1
0
SPLINE
5
162
100
AcDbEntity
8
0
100
AcDbSpline
70
4
71
5
72
71
73
65
74
0
42
0.000000001
43
0.0000000001
44
0.0000000001
40
0
40
0
40
0
40
0
40
0
40
0
40
0.016666666666666666
40
0.033333333333333333
40
0.050000000000000003
40
0.066666666666666666
40
0.083333333333333329
40
0.099999999999999992
40
0.11666666666666665
40
0.13333333333333333
40
0.14999999999999999
40
0.16666666666666666
40
0.18333333333333332
40
0.19999999999999998
40
0.21666666666666665
40
0.23333333333333331
40
0.24999999999999997
40
0.26666666666666666
40
0.28333333333333333
40
0.29999999999999999
40
0.31666666666666665
40
0.33333333333333331
40
0.34999999999999998
40
0.36666666666666664
40
0.3833333333333333
40
0.39999999999999997
40
0.41666666666666663
40
0.43333333333333329
40
0.44999999999999996
40
0.46666666666666662
40
0.48333333333333328
40
0.49999999999999994
40
0.51666666666666661
40
0.53333333333333333
40
0.55000000000000004
40
0.56666666666666676
40
0.58333333333333348
40
0.6000000000000002
40
0.61666666666666692
40
0.63333333333333364
40
0.65000000000000036
40
0.66666666666666707
40
0.68333333333333379
40
0.70000000000000051
40
0.71666666666666723
40
0.73333333333333395
40
0.75000000000000067
40
0.76666666666666738
40
0.7833333333333341
40
0.80000000000000082
40
0.81666666666666754
40
0.83333333333333426
40
0.85000000000000098
40
0.8666666666666677
40
0.88333333333333441
40
0.90000000000000113
40
0.91666666666666785
40
0.93333333333333457
40
0.95000000000000129
40
0.96666666666666801
40
0.98333333333333472
40
1
40
1
40
1
40
1
40
1
40
1
41
1
41
1
41
1
41
1
41
1
41
1
41
1
41
1
41
1
41
1
41
1
41
1
41
1
41
1
41
1
41
1
41
1
41
1
41
1
41
1
41
1
41
1
41
1
41
1
41
1
41
1
41
1
41
1
41
1
41
1
41
1
41
1
41
1
41
1
41
1
41
1
41
1
41
1
41
1
41
1
41
1
41
1
41
1
41
1
41
1
41
1
41
1
41
1
41
1
41
1
41
1
41
1
41
1
41
1
41
1
41
1
41
1
41
1
41
1
41
1
41
1
41
1
41
1
41
1
41
1
10
340.37133124510558
20
24.458356857044524
30
0.66818635831982987
10
340.3215154708995
20
24.414280983255551
30
0.6681863583198876
10
340.22176613082303
20
24.326873613529244
30
0.66818635831999262
10
340.07178874729226
20
24.197995692263401
30
0.66818635832011752
10
339.87111182219024
20
24.030626752408565
30
0.66818635832021533
10
339.61914357820405
20
23.828879290031256
30
0.66818635832022466
10
339.3662254179726
20
23.634625005435478
30
0.66818635832015461
10
339.11270478403191
20
23.44790751652171
30
0.66818635832004114
10
338.85916249482386
20
23.268785976140421
30
0.66818635831992279
10
338.60647490713575
20
23.097335980811408
30
0.66818635831982798
10
338.35586770836363
20
22.933651419862223
30
0.66818635831977546
10
338.10899308684986
20
22.777843667986325
30
0.66818635831976336
10
337.86776237535145
20
22.630069783598621
30
0.66818635831977846
10
337.63414658458339
20
22.490565332479271
30
0.66818635831980056
10
337.40999110109664
20
22.359673798311572
30
0.66818635831982121
10
337.19681826595689
20
22.237881543690161
30
0.66818635831983098
10
336.99564833509851
20
22.125841117694954
30
0.66818635831983209
10
336.80677657910616
20
22.024423478029188
30
0.66818635831982831
10
336.62974158776774
20
21.93464266499371
30
0.66818635831982598
10
336.46340604849775
20
21.857512990160203
30
0.6681863583198272
10
336.30599009856581
20
21.79392132975839
30
0.66818635831982953
10
336.15514835681603
20
21.74450532686107
30
0.66818635831983342
10
336.00796010683109
20
21.709495765459636
30
0.66818635831983608
10
335.86153211441911
20
21.688847373037046
30
0.66818635831983419
10
335.71378247485887
20
21.682446906726469
30
0.66818635831983098
10
335.56408091741724
20
21.690272452673319
30
0.66818635831982864
10
335.41415761949133
20
21.712627561786579
30
0.66818635831982787
10
335.26752494473885
20
21.749973526631422
30
0.66818635831982787
10
335.12840777594658
20
21.802619623859208
30
0.66818635831982942
10
335.00090580373268
20
21.870496319230735
30
0.6681863583198322
10
334.88789451214996
20
21.952803767467366
30
0.66818635831983508
10
334.79105708784948
20
22.048274335573783
30
0.66818635831983564
10
334.71128159096344
20
22.155655584293115
30
0.6681863583198322
10
334.64893819223107
20
22.274092799068583
30
0.66818635831982331
10
334.60420242696716
20
22.403624949724389
30
0.66818635831981343
10
334.57737134226636
20
22.544344154715116
30
0.66818635831981676
10
334.56917516319061
20
22.695482423880222
30
0.66818635831982875
10
334.58111903837596
20
22.854484565831598
30
0.66818635831985118
10
334.61573673259113
20
23.016188225157155
30
0.66818635831987006
10
334.675413555234
20
23.174180106891949
30
0.66818635831987105
10
334.76120728588535
20
23.322083391971486
30
0.6681863583198433
10
334.87180552367283
20
23.454796950946154
30
0.66818635831979356
10
335.00206729047181
20
23.569944322486837
30
0.66818635831974271
10
335.14457997384386
20
23.667794827806091
30
0.66818635831972506
10
335.29206404458245
20
23.750838065575309
30
0.66818635831976436
10
335.43925177525693
20
23.82344834557443
30
0.66818635831986939
10
335.58554263943648
20
23.891593481933992
30
0.66818635832000528
10
335.73532848664286
20
23.962246419909434
30
0.66818635832010131
10
335.89528413780261
20
24.04236805473111
30
0.668186358320082
10
336.07237479951237
20
24.137980484652608
30
0.66818635831989703
10
336.27165218536965
20
24.253240936139026
30
0.66818635831954909
10
336.4939332192431
20
24.389409224225385
30
0.66818635831911732
10
336.73648432434527
20
24.545342575667455
30
0.66818635831872575
10
336.99404233024836
20
24.718150435761835
30
0.66818635831851636
10
337.25970058642997
20
24.903783362475632
30
0.66818635831861961
10
337.52586428527172
20
25.097657324466862
30
0.66818635831911288
10
337.78513650894064
20
25.295237057273038
30
0.66818635831999273
10
338.03132401710013
20
25.492694643920892
30
0.66818635832113549
10
338.26011291343349
20
25.68735618575921
30
0.66818635832227746
10
338.46863025664265
20
25.877431053537268
30
0.66818635832308426
10
338.65519002019533
20
26.061859768712434
30
0.66818635832319884
10
338.78621334813937
20
26.204465341899869
30
0.66818635832247941
10
338.8741163022836
20
26.30856648591433
30
0.66818635832138207
10
338.92811380561051
20
26.376699750631644
30
0.66818635832038997
10
338.95396144569997
20
26.410449511701252
30
0.66818635831982931
0
SPLINE
5
163
100
AcDbEntity
8
0
100
AcDbSpline
70
4
71
5
72
21
73
15
74
0
42
0.000000001
43
0.0000000001
44
0.0000000001
40
0
40
0
40
0
40
0
40
0
40
0
40
0.10000000000000001
40
0.20000000000000001
40
0.30000000000000004
40
0.40000000000000002
40
0.5
40
0.59999999999999998
40
0.69999999999999996
40
0.79999999999999993
40
0.89999999999999991
40
1
40
1
40
1
40
1
40
1
40
1
41
1
41
1
41
1
41
1
41
1
41
1
41
1
41
1
41
1
41
1
41
1
41
1
41
1
41
1
41
1
10
341.89077727270308
20
20.784566632546447
30
0.66818635831983064
10
341.8757557094043
20
20.854719578034732
30
0.66818635831973616
10
341.84435309364255
20
20.995319429175353
30
0.66818635831957118
10
341.79317073431832
20
21.207101079500195
30
0.66818635831939677
10
341.71663624773083
20
21.491269436607617
30
0.6681863583193024
10
341.60622673529394
20
21.849667393190945
30
0.66818635831938256
10
341.47981905646816
20
22.211524607628025
30
0.66818635831959239
10
341.33620153695483
20
22.577103078292474
30
0.66818635831986861
10
341.17488765411315
20
22.946508005179481
30
0.66818635832013962
10
340.99676983280563
20
23.31954642068229
30
0.6681863583203389
10
340.80319819950068
20
23.695926389112152
30
0.66818635832040085
10
340.63703268324173
20
23.999475519835002
30
0.66818635832029427
10
340.50645810668891
20
24.228424021806092
30
0.66818635832010598
10
340.416807101632
20
24.381618828632693
30
0.66818635831993012
10
340.37133124510558
20
24.458356857044524
30
0.66818635831982987
0
SPLINE
5
164
100
AcDbEntity
8
0
100
AcDbSpline
70
4
71
5
72
36
73
30
74
0
42
0.000000001
43
0.0000000001
44
0.0000000001
40
0
40
0
40
0
40
0
40
0
40
0
40
0.040000000000000001
40
0.080000000000000002
40
0.12
40
0.16
40
0.20000000000000001
40
0.24000000000000002
40
0.28000000000000003
40
0.32000000000000001
40
0.35999999999999999
40
0.39999999999999997
40
0.43999999999999995
40
0.47999999999999993
40
0.51999999999999991
40
0.55999999999999994
40
0.59999999999999998
40
0.64000000000000001
40
0.68000000000000005
40
0.72000000000000008
40
0.76000000000000012
40
0.80000000000000016
40
0.84000000000000019
40
0.88000000000000023
40
0.92000000000000026
40
0.9600000000000003
40
1
40
1
40
1
40
1
40
1
40
1
41
1
41
1
41
1
41
1
41
1
41
1
41
1
41
1
41
1
41
1
41
1
41
1
41
1
41
1
41
1
41
1
41
1
41
1
41
1
41
1
41
1
41
1
41
1
41
1
41
1
41
1
41
1
41
1
41
1
41
1
10
331.9993270079521
20
158.02023603462095
30
1.3533951606635577
10
332.04735864998781
20
158.07926362660081
30
1.3533951606640029
10
332.1458521667634
20
158.19258869211072
30
1.3533951606647443
10
332.30088310813125
20
158.3483860977519
30
1.3533951606653969
10
332.52221067787889
20
158.52766014905197
30
1.3533951606654346
10
332.8234584969502
20
158.70348435749119
30
1.3533951606646317
10
333.14957817762667
20
158.82924088279853
30
1.3533951606635972
10
333.50082932909618
20
158.90194892258086
30
1.3533951606628623
10
333.87738597704151
20
158.91704913797113
30
1.3533951606626238
10
334.27890972602592
20
158.86987440602542
30
1.3533951606628281
10
334.70401786415846
20
158.75751382214131
30
1.353395160663283
10
335.14984644263996
20
158.58037421545544
30
1.3533951606637415
10
335.61136366126726
20
158.34440789528915
30
1.3533951606640313
10
336.08138912284903
20
158.06150053230962
30
1.3533951606641039
10
336.55189652305586
20
157.74654955541749
30
1.3533951606639907
10
337.01499246247641
20
157.41537810900056
30
1.3533951606637804
10
337.46407076335691
20
157.08225436509787
30
1.3533951606635755
10
337.89479265306704
20
156.75779324176543
30
1.3533951606634553
10
338.30645673423896
20
156.44611511870875
30
1.353395160663442
10
338.70144066581383
20
156.14569941641952
30
1.3533951606635031
10
339.08403825459948
20
155.85140179414356
30
1.3533951606635792
10
339.45949400998552
20
155.55609410715084
30
1.353395160663605
10
339.83304690026819
20
155.25231056911824
30
1.3533951606635379
10
340.20880140622114
20
154.93417686377143
30
1.3533951606633869
10
340.58933335076063
20
154.5981102128695
30
1.3533951606632169
10
340.97616412352801
20
154.24206067925724
30
1.353395160663124
10
341.2912281457061
20
153.94053919492424
30
1.3533951606631822
10
341.53076562533965
20
153.70493102096756
30
1.3533951606633292
10
341.69189302289595
20
153.54366273139777
30
1.3533951606634742
10
341.77281567330544
20
153.46197951675126
30
1.3533951606635588
0
SPLINE
5
165
100
AcDbEntity
8
0
100
AcDbSpline
70
4
71
5
72
56
73
50
74
0
42
0.000000001
43
0.0000000001
44
0.0000000001
40
0
40
0
40
0
40
0
40
0
40
0
40
0.022222222222222223
40
0.044444444444444446
40
0.066666666666666666
40
0.088888888888888892
40
0.11111111111111112
40
0.13333333333333333
40
0.15555555555555556
40
0.17777777777777778
40
0.20000000000000001
40
0.22222222222222224
40
0.24444444444444446
40
0.26666666666666666
40
0.28888888888888886
40
0.31111111111111106
40
0.33333333333333326
40
0.35555555555555546
40
0.37777777777777766
40
0.39999999999999986
40
0.42222222222222205
40
0.44444444444444425
40
0.46666666666666645
40
0.48888888888888865
40
0.51111111111111085
40
0.5333333333333331
40
0.55555555555555536
40
0.57777777777777761
40
0.59999999999999987
40
0.62222222222222212
40
0.64444444444444438
40
0.66666666666666663
40
0.68888888888888888
40
0.71111111111111114
40
0.73333333333333339
40
0.75555555555555565
40
0.7777777777777779
40
0.80000000000000016
40
0.82222222222222241
40
0.84444444444444466
40
0.86666666666666692
40
0.88888888888888917
40
0.91111111111111143
40
0.93333333333333368
40
0.95555555555555594
40
0.97777777777777819
40
1
40
1
40
1
40
1
40
1
40
1
41
1
41
1
41
1
41
1
41
1
41
1
41
1
41
1
41
1
41
1
41
1
41
1
41
1
41
1
41
1
41
1
41
1
41
1
41
1
41
1
41
1
41
1
41
1
41
1
41
1
41
1
41
1
41
1
41
1
41
1
41
1
41
1
41
1
41
1
41
1
41
1
41
1
41
1
41
1
41
1
41
1
41
1
41
1
41
1
41
1
41
1
41
1
41
1
41
1
41
1
10
341.77281567330544
20
153.46197951675126
30
1.3533951606635588
10
341.82999688664233
20
153.55081462928797
30
1.353395160664649
10
341.94442099433815
20
153.73023879118711
30
1.3533951606665724
10
342.11624222426309
20
154.00463687374531
30
1.3533951606686709
10
342.34570741512238
20
154.38103287708049
30
1.3533951606699521
10
342.63281387245542
20
154.86859117814245
30
1.3533951606695376
10
342.91916120466686
20
155.37165199664707
30
1.3533951606678047
10
343.20268364233124
20
155.8870337990752
30
1.3533951606655554
10
343.47991549270597
20
156.40934952135513
30
1.3533951606635055
10
343.74568052782695
20
156.93048735905037
30
1.3533951606621719
10
343.99261902466185
20
157.43889911871042
30
1.3533951606616967
10
344.21304806995471
20
157.92165910736952
30
1.3533951606619428
10
344.40091001523342
20
158.36664204026786
30
1.3533951606626031
10
344.55385717292779
20
158.76482163141404
30
1.353395160663333
10
344.67492088424683
20
159.11216116724677
30
1.3533951606638264
10
344.77528645017577
20
159.41259767951956
30
1.3533951606639649
10
344.8731196378061
20
159.67711283187546
30
1.3533951606638288
10
344.98761954446536
20
159.91806997730598
30
1.3533951606635797
10
345.13468541196062
20
160.14515635166251
30
1.3533951606633936
10
345.32104405417675
20
160.35979476349681
30
1.3533951606633479
10
345.54604960234605
20
160.5571968887763
30
1.3533951606634353
10
345.80484849078869
20
160.72975937708981
30
1.3533951606635979
10
346.09134106903349
20
160.87030922868448
30
1.3533951606637495
10
346.40037819840575
20
160.97445298026878
30
1.3533951606638028
10
346.72678786065194
20
161.0393340786612
30
1.3533951606637051
10
347.0650444804229
20
161.06312254129534
30
1.3533951606634735
10
347.40852729444714
20
161.04404343013653
30
1.3533951606632089
10
347.74949516421975
20
160.98023226273892
30
1.3533951606630914
10
348.08004336647764
20
160.87076451395532
30
1.3533951606632513
10
348.39275072943371
20
160.71627400902574
30
1.3533951606637111
10
348.68164265241285
20
160.52007262807476
30
1.3533951606642936
10
348.94236102926448
20
160.28791310619997
30
1.3533951606646066
10
349.17105428138416
20
160.02547694908517
30
1.3533951606643098
10
349.36364260981264
20
159.73657453893631
30
1.3533951606632626
10
349.51475754966884
20
159.42063919533217
30
1.3533951606617733
10
349.61740688486066
20
159.07190195324478
30
1.3533951606606287
10
349.66391895729481
20
158.68159830314315
30
1.3533951606607544
10
349.64661255274649
20
158.23951513422605
30
1.3533951606629677
10
349.55858022905949
20
157.73580130588391
30
1.3533951606676777
10
349.39442173694425
20
157.16265459749212
30
1.3533951606746255
10
349.15005269099601
20
156.51407562462379
30
1.3533951606830128
10
348.82251710017448
20
155.78562225827426
30
1.3533951606916428
10
348.40980617437117
20
154.97417351984546
30
1.3533951606990569
10
347.91068144806195
20
154.07769757725845
30
1.3533951607036723
10
347.32450257084855
20
153.09502554698349
30
1.3533951607039121
10
346.65105907737347
20
152.02562968167828
30
1.3533951606983456
10
346.0425365281726
20
151.10065062060943
30
1.3533951606883166
10
345.54697184312852
20
150.36789125317273
30
1.3533951606773154
10
345.19919926079956
20
149.86205447515823
30
1.3533951606684065
10
345.0209639378952
20
149.60480345255112
30
1.3533951606635599
0
LWPOLYLINE
5
166
100
AcDbEntity
8
0
100
AcDbPolyline
90
4
70
1
43
0.0
10
351.00000523030758
20
105.00000156462193
10
329.00000490248203
20
105.00000156462193
10
329.00000490248203
20
83.000001236796379
10
351.00000523030758
20
83.000001236796379
0
LWPOLYLINE
5
167
100
AcDbEntity
8
0
100
AcDbPolyline
90
13
70
1
43
0.0
10
342.50000510364771
20
94.39665866275142
10
340.75
20
94.39665866275142
10
340.75
20
103.7999976798892
10
343.69999231770635
20
103.7999976798892
10
345.40463540994881
20
97.377135259368458
10
347.09999224171054
20
103.79999767988922
10
350.00000521540642
20
103.79999767988922
10
350.00000521540642
20
94.39665866275142
10
348.20679289394752
20
94.39665866275142
10
348.20679289394752
20
101.79690183640304
10
346.37265344987554
20
94.39665866275142
10
344.38566905213088
20
94.39665866275142
10
342.50000510364771
20
101.83511307482121
0
LWPOLYLINE
5
168
100
AcDbEntity
8
0
100
AcDbPolyline
90
25
70
1
43
0.0
10
333.49999254569411
20
84.099998120218515
10
329.99999262392521
20
84.099998120218515
10
329.99999262392544
20
85.060608952361108
10
330.99999260157341
20
85.399998091161223
10
330.99999260157347
20
92.299997936934233
10
330.03572699861246
20
92.54255489134664
10
330.01673597532147
20
93.493817477475915
10
333.37632211981594
20
93.560888315379586
10
335.49999250099063
20
88.699998017400503
10
337.6999924518168
20
93.499997910112143
10
340.75
20
93.560888315379586
10
340.75
20
92.622420203703015
10
339.79999240487814
20
92.299997936934233
10
339.79999240487814
20
85.399998091161251
10
340.75
20
85.08657746263566
10
340.75
20
84.099998120218515
10
336.99999246746302
20
84.099998120218515
10
336.99999246746302
20
85.099998097866774
10
337.99999244511127
20
85.399998091161251
10
337.99999244511127
20
90.899997968226671
10
335.89999249204993
20
86.599998064339161
10
334.5999925211072
20
86.499998066574335
10
332.49999256804585
20
90.999997965991497
10
332.49999256804585
20
85.399998091161251
10
333.49999254569411
20
85.099998097866774
0
LWPOLYLINE
5
169
100
AcDbEntity
8
0
100
AcDbPolyline
90
4
70
1
43
0.0
10
423.74575707814438
20
30.911478537352799
10
423.74575707814438
20
19.30382655650121
10
435.35340905899596
20
19.30382655650121
10
435.35340905899596
20
30.911478537352799
0
LWPOLYLINE
5
170
100
AcDbEntity
8
0
100
AcDbPolyline
90
25
70
1
43
0.0
10
429.94529579797768
20
24.380812416384487
10
429.44405228074959
20
24.210695806940819
10
429.44405228074959
20
20.570114184932329
10
429.94529579797768
20
20.404747024689911
10
429.94529579797768
20
19.88420750252493
10
427.96671481094899
20
19.88420750252493
10
427.96671481094899
20
20.411828027453698
10
428.49433533587774
20
20.570114184932329
10
428.49433533587774
20
23.472027072040547
10
427.38633223352736
20
21.203258814846848
10
426.70042555111991
20
21.150496762353974
10
425.59242244876953
20
23.52478912453342
10
425.59242244876953
20
20.570114184932329
10
426.12004297369828
20
20.411828027453698
10
426.12004297369828
20
19.88420750252493
10
424.27337113644762
20
19.88420750252493
10
424.27337113644768
20
20.391045505360978
10
424.80099166137632
20
20.570114184932308
10
424.80099166137632
20
24.210695806940819
10
424.29222532639955
20
24.338673837413545
10
424.28220527249778
20
24.840579513670633
10
426.05479191721986
20
24.875967465163768
10
427.17528402355583
20
22.31126191719726
10
428.33604917839909
20
24.843840436855338
10
429.94529579797768
20
24.875967465163768
0
LWPOLYLINE
5
171
100
AcDbEntity
8
0
100
AcDbPolyline
90
13
70
1
43
0.0
10
430.86863443003051
20
29.241618373698852
10
430.86863443003051
20
25.316937064420433
10
429.94529579797768
20
25.316937064420433
10
429.94529579797768
20
30.278331843621629
10
431.50177232797171
20
30.278331843621629
10
432.40117703122007
20
26.889497726014881
10
433.29568211272954
20
30.27833184362164
10
434.82578851441178
20
30.27833184362164
10
434.82578851441178
20
25.316937064420433
10
433.87965286690712
20
25.316937064420433
10
433.87965286690712
20
29.221457339575846
10
432.91192322900287
20
25.316937064420433
10
431.86354945460658
20
25.316937064420433
0
ENDSEC
0
SECTION
2
OBJECTS
0
DICTIONARY
5
C
100
AcDbDictionary
3
ACAD_GROUP
350
D
3
ACAD_MLINESTYLE
350
17
0
DICTIONARY
5
D
100
AcDbDictionary
0
DICTIONARY
5
1A
330
C
100
AcDbDictionary
0
DICTIONARY
5
17
100
AcDbDictionary
0
ENDSEC
0
EOF
