0
SECTION
2
HEADER
9
$INSUNITS
70
4
9
$ACADVER
1
AC1014
9
$HANDSEED
5
FFFF
0
ENDSEC
0
SECTION
2
TABLES
0
TABLE
2
VPORT
5
8
100
AcDbSymbolTable
0
ENDTAB
0
TABLE
2
LTYPE
5
5
100
AcDbSymbolTable
0
LTYPE
5
14
100
AcDbSymbolTableRecord
100
AcDbLinetypeTableRecord
2
BYBLOCK
70
0
0
LTYPE
5
15
100
AcDbSymbolTableRecord
100
AcDbLinetypeTableRecord
2
BYLAYER
70
0
0
ENDTAB
0
TABLE
2
LAYER
5
2
100
AcDbSymbolTable
70
2
0
LAYER
5
50
100
AcDbSymbolTableRecord
100
AcDbLayerTableRecord
2
0
70
0
6
CONTINUOUS
0
ENDTAB
0
TABLE
2
STYLE
5
3
100
AcDbSymbolTable
70
1
0
STYLE
5
11
100
AcDbSymbolTableRecord
100
AcDbTextStyleTableRecord
2
STANDARD
70
0
0
ENDTAB
0
TABLE
2
VIEW
5
6
100
AcDbSymbolTable
70
0
0
ENDTAB
0
TABLE
2
UCS
5
7
100
AcDbSymbolTable
70
0
0
ENDTAB
0
TABLE
2
APPID
5
9
100
AcDbSymbolTable
70
2
0
APPID
5
12
100
AcDbSymbolTableRecord
100
AcDbRegAppTableRecord
2
ACAD
70
0
0
ENDTAB
0
TABLE
2
DIMSTYLE
5
A
100
AcDbSymbolTable
70
1
0
ENDTAB
0
TABLE
2
BLOCK_RECORD
5
1
100
AcDbSymbolTable
70
1
0
BLOCK_RECORD
5
1F
100
AcDbSymbolTableRecord
100
AcDbBlockTableRecord
2
*MODEL_SPACE
0
BLOCK_RECORD
5
1B
100
AcDbSymbolTableRecord
100
AcDbBlockTableRecord
2
*PAPER_SPACE
0
ENDTAB
0
ENDSEC
0
SECTION
2
BLOCKS
0
BLOCK
5
20
100
AcDbEntity
100
AcDbBlockBegin
2
*MODEL_SPACE
0
ENDBLK
5
21
100
AcDbEntity
100
AcDbBlockEnd
0
BLOCK
5
1C
100
AcDbEntity
100
AcDbBlockBegin
2
*PAPER_SPACE
0
ENDBLK
5
1D
100
AcDbEntity
100
AcDbBlockEnd
0
ENDSEC
0
SECTION
2
ENTITIES
0
LWPOLYLINE
5
100
100
AcDbEntity
8
0
100
AcDbPolyline
90
8
70
1
43
0.0
10
-120
20
0
10
-30.000000000000014
20
0
42
0.41421356237309515
10
-20.000000000000014
20
10
10
-20.000000000000014
20
100
42
0.41421356237309509
10
-30.000000000000018
20
110
10
-120.00000000000003
20
110.00000000000003
42
0.41421356237309404
10
-130
20
100
10
-130
20
9.9999999999999964
42
0.41421356237309515
0
SPLINE
5
101
100
AcDbEntity
8
0
100
AcDbSpline
70
4
71
5
72
36
73
30
74
0
42
0.000000001
43
0.0000000001
44
0.0000000001
40
0
40
0
40
0
40
0
40
0
40
0
40
0.040000000000000001
40
0.080000000000000002
40
0.12
40
0.16
40
0.20000000000000001
40
0.24000000000000002
40
0.28000000000000003
40
0.32000000000000001
40
0.35999999999999999
40
0.39999999999999997
40
0.43999999999999995
40
0.47999999999999993
40
0.51999999999999991
40
0.55999999999999994
40
0.59999999999999998
40
0.64000000000000001
40
0.68000000000000005
40
0.72000000000000008
40
0.76000000000000012
40
0.80000000000000016
40
0.84000000000000019
40
0.88000000000000023
40
0.92000000000000026
40
0.9600000000000003
40
1
40
1
40
1
40
1
40
1
40
1
41
1
41
1
41
1
41
1
41
1
41
1
41
1
41
1
41
1
41
1
41
1
41
1
41
1
41
1
41
1
41
1
41
1
41
1
41
1
41
1
41
1
41
1
41
1
41
1
41
1
41
1
41
1
41
1
41
1
41
1
10
-79.337694913072738
20
58.451897260852007
30
0.66818635831982831
10
-79.314637469602502
20
58.479777795125798
30
0.66818635831975715
10
-79.267415176250708
20
58.533441922192573
30
0.66818635831963702
10
-79.193259573477107
20
58.607647448970127
30
0.66818635831952666
10
-79.087723289130295
20
58.693972615594269
30
0.66818635831950934
10
-78.944544664274645
20
58.780415835032471
30
0.6681863583196318
10
-78.789811170268507
20
58.84439109244142
30
0.66818635831980056
10
-78.62308044702273
20
58.884186605522359
30
0.66818635831993167
10
-78.443701658512254
20
58.897068245408661
30
0.66818635831998319
10
-78.251106480141715
20
58.87997235213394
30
0.66818635831996231
10
-78.045238288887489
20
58.83057627788429
30
0.66818635831989237
10
-77.826920021780381
20
58.748208318806931
30
0.66818635831981132
10
-77.598320342995507
20
58.634975991280584
30
0.66818635831975126
10
-77.36322310848243
20
58.496479738181371
30
0.6681863583197255
10
-77.126213037392517
20
58.340278598131682
30
0.6681863583197325
10
-76.892023554043348
20
58.174691338474517
30
0.66818635831976658
10
-76.664792086189507
20
58.00743017596421
30
0.66818635831981277
10
-76.447429744332325
20
57.844442554487884
30
0.66818635831985718
10
-76.240727099581179
20
57.688313639471644
30
0.66818635831989059
10
-76.04351687506292
20
57.538446372641978
30
0.66818635831990614
10
-75.8534204244786
20
57.392224833183448
30
0.66818635831989781
10
-75.667415025806349
20
57.245877441578727
30
0.66818635831986373
10
-75.482423691618095
20
57.09538768031581
30
0.66818635831980799
10
-75.295985537910113
20
56.93752187948764
30
0.6681863583197436
10
-75.106559204157293
20
56.770305517478306
30
0.66818635831968842
10
-74.913234628805867
20
56.592605149440161
30
0.66818635831966788
10
-74.755121988300075
20
56.441670308145021
30
0.66818635831969608
10
-74.634541912794489
20
56.323485470832757
30
0.66818635831974904
10
-74.553270738493666
20
56.242486616246616
30
0.66818635831979989
10
-74.512414027495595
20
56.20143493359673
30
0.66818635831982887
0
SPLINE
5
102
100
AcDbEntity
8
0
100
AcDbSpline
70
4
71
5
72
46
73
40
74
0
42
0.000000001
43
0.0000000001
44
0.0000000001
40
0
40
0
40
0
40
0
40
0
40
0
40
0.028571428571428571
40
0.057142857142857141
40
0.085714285714285715
40
0.11428571428571428
40
0.14285714285714285
40
0.17142857142857143
40
0.20000000000000001
40
0.22857142857142859
40
0.25714285714285717
40
0.28571428571428575
40
0.31428571428571433
40
0.34285714285714292
40
0.3714285714285715
40
0.40000000000000008
40
0.42857142857142866
40
0.45714285714285724
40
0.48571428571428582
40
0.51428571428571435
40
0.54285714285714293
40
0.57142857142857151
40
0.60000000000000009
40
0.62857142857142867
40
0.65714285714285725
40
0.68571428571428583
40
0.71428571428571441
40
0.74285714285714299
40
0.77142857142857157
40
0.80000000000000016
40
0.82857142857142874
40
0.85714285714285732
40
0.8857142857142859
40
0.91428571428571448
40
0.94285714285714306
40
0.97142857142857164
40
1
40
1
40
1
40
1
40
1
40
1
41
1
41
1
41
1
41
1
41
1
41
1
41
1
41
1
41
1
41
1
41
1
41
1
41
1
41
1
41
1
41
1
41
1
41
1
41
1
41
1
41
1
41
1
41
1
41
1
41
1
41
1
41
1
41
1
41
1
41
1
41
1
41
1
41
1
41
1
41
1
41
1
41
1
41
1
41
1
41
1
10
-72.908766827268465
20
54.297103883327082
30
0.66818635831982942
10
-72.865197356195367
20
54.245991232462487
30
0.66818635832036466
10
-72.778941859950265
20
54.141815255707726
30
0.66818635832131867
10
-72.652208957593245
20
53.979699239380452
30
0.66818635832239581
10
-72.488539450206872
20
53.751825107205519
30
0.66818635832314788
10
-72.292839584767108
20
53.447603220161739
30
0.66818635832314444
10
-72.10607736220679
20
53.124624188689324
30
0.66818635832246909
10
-71.928301164580404
20
52.784247099271283
30
0.66818635832143924
10
-71.759539359466146
20
52.428868832590851
30
0.66818635832034912
10
-71.599793285051632
20
52.062165293163709
30
0.66818635831944739
10
-71.449001432203175
20
51.68949610942569
30
0.66818635831888096
10
-71.30709420610016
20
51.31780066970294
30
0.66818635831867434
10
-71.174196229359026
20
50.9546521004645
30
0.6681863583187766
10
-71.050798822836953
20
50.607500352016672
30
0.66818635831908335
10
-70.9379361879475
20
50.282856868132555
30
0.66818635831946682
10
-70.837382373969561
20
49.985457541446095
30
0.66818635831980711
10
-70.751793334118929
20
49.717520447100554
30
0.66818635832001982
10
-70.685003127426867
20
49.477694759796762
30
0.66818635832008189
10
-70.641285927908925
20
49.262022677663467
30
0.6681863583200276
10
-70.624326166733454
20
49.065427077279978
30
0.66818635831991435
10
-70.63633642590618
20
48.882967472082434
30
0.66818635831980555
10
-70.676982453048893
20
48.711285967238595
30
0.66818635831974627
10
-70.742736061945848
20
48.549690274903405
30
0.66818635831974538
10
-70.828906155463201
20
48.399196188316857
30
0.66818635831978535
10
-70.931261455286943
20
48.261834265207668
30
0.66818635831984197
10
-71.048006420096215
20
48.139803407874211
30
0.66818635831988704
10
-71.181030118138324
20
48.034857750930648
30
0.66818635831989992
10
-71.333353430414775
20
47.948759275828294
30
0.66818635831987727
10
-71.507158390172904
20
47.883577372512669
30
0.66818635831982354
10
-71.701353643455874
20
47.842096727153162
30
0.6681863583197577
10
-71.91001299234982
20
47.828032366850238
30
0.66818635831971096
10
-72.124530598748734
20
47.845459699760902
30
0.66818635831971618
10
-72.335323229077886
20
47.898329552460758
30
0.66818635831979267
10
-72.533590741278815
20
47.989982956154137
30
0.66818635831993345
10
-72.71333070238623
20
48.122566906536044
30
0.66818635832009132
10
-72.871101033347003
20
48.297200952322271
30
0.66818635832018802
10
-72.978405834345836
20
48.47089762350582
30
0.66818635832015283
10
-73.048030207208299
20
48.620301780817599
30
0.6681863583200327
10
-73.089628236809688
20
48.728396383255237
30
0.66818635831990547
10
-73.10922272729691
20
48.784566632546451
30
0.66818635831983064
0
SPLINE
5
103
100
AcDbEntity
8
0
100
AcDbSpline
70
4
71
5
72
71
73
65
74
0
42
0.000000001
43
0.0000000001
44
0.0000000001
40
0
40
0
40
0
40
0
40
0
40
0
40
0.016666666666666666
40
0.033333333333333333
40
0.050000000000000003
40
0.066666666666666666
40
0.083333333333333329
40
0.099999999999999992
40
0.11666666666666665
40
0.13333333333333333
40
0.14999999999999999
40
0.16666666666666666
40
0.18333333333333332
40
0.19999999999999998
40
0.21666666666666665
40
0.23333333333333331
40
0.24999999999999997
40
0.26666666666666666
40
0.28333333333333333
40
0.29999999999999999
40
0.31666666666666665
40
0.33333333333333331
40
0.34999999999999998
40
0.36666666666666664
40
0.3833333333333333
40
0.39999999999999997
40
0.41666666666666663
40
0.43333333333333329
40
0.44999999999999996
40
0.46666666666666662
40
0.48333333333333328
40
0.49999999999999994
40
0.51666666666666661
40
0.53333333333333333
40
0.55000000000000004
40
0.56666666666666676
40
0.58333333333333348
40
0.6000000000000002
40
0.61666666666666692
40
0.63333333333333364
40
0.65000000000000036
40
0.66666666666666707
40
0.68333333333333379
40
0.70000000000000051
40
0.71666666666666723
40
0.73333333333333395
40
0.75000000000000067
40
0.76666666666666738
40
0.7833333333333341
40
0.80000000000000082
40
0.81666666666666754
40
0.83333333333333426
40
0.85000000000000098
40
0.8666666666666677
40
0.88333333333333441
40
0.90000000000000113
40
0.91666666666666785
40
0.93333333333333457
40
0.95000000000000129
40
0.96666666666666801
40
0.98333333333333472
40
1
40
1
40
1
40
1
40
1
40
1
41
1
41
1
41
1
41
1
41
1
41
1
41
1
41
1
41
1
41
1
41
1
41
1
41
1
41
1
41
1
41
1
41
1
41
1
41
1
41
1
41
1
41
1
41
1
41
1
41
1
41
1
41
1
41
1
41
1
41
1
41
1
41
1
41
1
41
1
41
1
41
1
41
1
41
1
41
1
41
1
41
1
41
1
41
1
41
1
41
1
41
1
41
1
41
1
41
1
41
1
41
1
41
1
41
1
41
1
41
1
41
1
41
1
41
1
41
1
41
1
41
1
41
1
41
1
41
1
41
1
10
-74.628668754894392
20
52.458356857044528
30
0.66818635831982987
10
-74.678484529088692
20
52.414280983218895
30
0.66818635831991324
10
-74.778233869144827
20
52.326873613426834
30
0.66818635832006523
10
-74.928211252654535
20
52.197995692085286
30
0.66818635832024742
10
-75.128888177745694
20
52.03062675217388
30
0.66818635832039641
10
-75.380856421732346
20
51.828879289788006
30
0.6681863583204285
10
-75.633774581974393
20
51.634625005229793
30
0.66818635832034268
10
-75.887295215929726
20
51.447907516380937
30
0.66818635832018236
10
-76.14083750515492
20
51.268785976073168
30
0.66818635831999817
10
-76.393525092862049
20
51.097335980809802
30
0.66818635831983331
10
-76.64413229165288
20
50.933651419906454
30
0.66818635831972062
10
-76.891006913182622
20
50.777843668052512
30
0.66818635831967033
10
-77.132237624688372
20
50.63006978366478
30
0.66818635831967466
10
-77.36585341545134
20
50.490565332529499
30
0.66818635831971274
10
-77.590008898923926
20
50.359673798338505
30
0.6681863583197688
10
-77.803181734047286
20
50.237881543694634
30
0.66818635831982098
10
-78.004351664892425
20
50.125841117684232
30
0.66818635831985429
10
-78.193223420879505
20
50.024423478012736
30
0.6681863583198655
10
-78.370258412219556
20
49.934642664979549
30
0.66818635831986084
10
-78.536593951495931
20
49.857512990152799
30
0.66818635831984718
10
-78.694009901433802
20
49.793921329758064
30
0.66818635831983175
10
-78.844851643187312
20
49.744505326865003
30
0.66818635831982132
10
-78.992039893173086
20
49.709495765464276
30
0.66818635831981887
10
-79.138467885583154
20
49.688847373039934
30
0.66818635831982331
10
-79.286217525141623
20
49.682446906726803
30
0.6681863583198302
10
-79.435919082581236
20
49.69027245267182
30
0.66818635831983386
10
-79.585842380506634
20
49.712627561784558
30
0.66818635831983308
10
-79.732475055258845
20
49.749973526629987
30
0.66818635831982975
10
-79.871592224052307
20
49.802619623859002
30
0.66818635831982887
10
-79.999094196269283
20
49.870496319231499
30
0.6681863583198322
10
-80.112105487854777
20
49.952803767468474
30
0.66818635831983642
10
-80.208942912155578
20
50.048274335574519
30
0.66818635831983675
10
-80.288718409037585
20
50.15565558429315
30
0.66818635831983197
10
-80.351061807763188
20
50.274092799067979
30
0.66818635831982287
10
-80.395797573021383
20
50.403624949723564
30
0.66818635831981343
10
-80.422628657724346
20
50.544344154714544
30
0.66818635831981665
10
-80.430824836808625
20
50.6954824238802
30
0.66818635831982842
10
-80.418880961637598
20
50.854484565832301
30
0.66818635831985151
10
-80.384263267433482
20
51.016188225158217
30
0.66818635831986983
10
-80.324586444790214
20
51.174180106892926
30
0.66818635831987128
10
-80.238792714122482
20
51.322083391971759
30
0.66818635831984374
10
-80.128194476305765
20
51.454796950945351
30
0.66818635831979323
10
-79.997932709478022
20
51.569944322484957
30
0.66818635831974071
10
-79.855420026096738
20
51.66779482780391
30
0.66818635831972295
10
-79.707935955381274
20
51.750838065574015
30
0.66818635831976358
10
-79.560748224765106
20
51.823448345575223
30
0.66818635831986994
10
-79.414457360660279
20
51.891593481937392
30
0.66818635832000739
10
-79.264671513505746
20
51.962246419914571
30
0.6681863583201032
10
-79.104715862334714
20
52.04236805473586
30
0.66818635832008322
10
-78.927625200524162
20
52.13798048465388
30
0.6681863583198977
10
-78.728347814477729
20
52.253240936133778
30
0.66818635831954709
10
-78.506066780370432
20
52.389409224212109
30
0.66818635831911044
10
-78.263515675056681
20
52.545342575646913
30
0.66818635831871442
10
-78.005957669040995
20
52.718150435737378
30
0.66818635831850415
10
-77.740299412916116
20
52.903783362453126
30
0.66818635831861073
10
-77.474135714341415
20
53.0976573244536
30
0.66818635831910933
10
-77.214863491147824
20
53.295237057276069
30
0.6681863583199944
10
-76.968675983604072
20
53.492694643945093
30
0.66818635832113904
10
-76.739887087885364
20
53.68735618580439
30
0.66818635832227791
10
-76.531369745110652
20
53.877431053597192
30
0.66818635832307915
10
-76.344809981620102
20
54.061859768774411
30
0.6681863583231894
10
-76.213786653289034
20
54.204465341948598
30
0.66818635832247009
10
-76.125883698553906
20
54.308566485942926
30
0.66818635832137607
10
-76.071886194691984
20
54.376699750641997
30
0.66818635832038775
10
-76.046038554299997
20
54.410449511701259
30
0.66818635831982931
0
SPLINE
5
104
100
AcDbEntity
8
0
100
AcDbSpline
70
4
71
5
72
41
73
35
74
0
42
0.000000001
43
0.0000000001
44
0.0000000001
40
0
40
0
40
0
40
0
40
0
40
0
40
0.033333333333333333
40
0.066666666666666666
40
0.10000000000000001
40
0.13333333333333333
40
0.16666666666666666
40
0.19999999999999998
40
0.23333333333333331
40
0.26666666666666666
40
0.29999999999999999
40
0.33333333333333331
40
0.36666666666666664
40
0.39999999999999997
40
0.43333333333333329
40
0.46666666666666662
40
0.49999999999999994
40
0.53333333333333333
40
0.56666666666666665
40
0.59999999999999998
40
0.6333333333333333
40
0.66666666666666663
40
0.69999999999999996
40
0.73333333333333328
40
0.76666666666666661
40
0.79999999999999993
40
0.83333333333333326
40
0.86666666666666659
40
0.89999999999999991
40
0.93333333333333324
40
0.96666666666666656
40
1
40
1
40
1
40
1
40
1
40
1
41
1
41
1
41
1
41
1
41
1
41
1
41
1
41
1
41
1
41
1
41
1
41
1
41
1
41
1
41
1
41
1
41
1
41
1
41
1
41
1
41
1
41
1
41
1
41
1
41
1
41
1
41
1
41
1
41
1
41
1
41
1
41
1
41
1
41
1
41
1
10
-76.046038554299997
20
54.410449511701259
30
0.66818635831982931
10
-76.072251091307407
20
54.443168157922941
30
0.66818635831998652
10
-76.125893969970249
20
54.508982346858268
30
0.66818635832026252
10
-76.210011695238535
20
54.608834313773933
30
0.66818635832056361
10
-76.329488767200473
20
54.744235785246943
30
0.66818635832074746
10
-76.490974987154075
20
54.917158894943228
30
0.66818635832068729
10
-76.664286280689666
20
55.093398227396719
30
0.66818635832043616
10
-76.848686594831136
20
55.27220825455953
30
0.66818635832010365
10
-77.042853275761331
20
55.452316070655378
30
0.66818635831978879
10
-77.244693997342225
20
55.63176778426044
30
0.66818635831956186
10
-77.451193354021527
20
55.807808085152402
30
0.66818635831945128
10
-77.658767034686662
20
55.977293349568455
30
0.66818635831945639
10
-77.863584152582959
20
56.137074145290171
30
0.66818635831954643
10
-78.061895615295242
20
56.284385816457942
30
0.66818635831968365
10
-78.250367136949876
20
56.417248442348686
30
0.66818635831982331
10
-78.426397475042094
20
56.53484975468804
30
0.66818635831992867
10
-78.588493632308641
20
56.638001820521737
30
0.66818635831997852
10
-78.736097570098295
20
56.72890591557141
30
0.66818635831997086
10
-78.869350036244271
20
56.810838614924151
30
0.66818635831991458
10
-78.98888495687109
20
56.887876620514803
30
0.66818635831983009
10
-79.095619104321088
20
56.964615057086128
30
0.66818635831974438
10
-79.190547884519646
20
57.045893323387169
30
0.66818635831969342
10
-79.274507298534445
20
57.136123648922926
30
0.66818635831970608
10
-79.347923433981336
20
57.238575333032166
30
0.66818635831979167
10
-79.410593547743048
20
57.354739957767016
30
0.66818635831993212
10
-79.461382515242278
20
57.483461029513407
30
0.66818635832006434
10
-79.498489621202864
20
57.62158646250306
30
0.66818635832010687
10
-79.519872348581842
20
57.765025116755069
30
0.66818635831999884
10
-79.523585381917172
20
57.909586394470089
30
0.66818635831972684
10
-79.508232538480968
20
58.052067657407527
30
0.66818635831937745
10
-79.473109493802724
20
58.190658288916843
30
0.6681863583191272
10
-79.428971037192056
20
58.297690116262224
30
0.66818635831916617
10
-79.386838146239398
20
58.375680568109168
30
0.66818635831940809
10
-79.35474363379663
20
58.426660606932089
30
0.6681863583196711
10
-79.337694913072738
20
58.451897260852007
30
0.66818635831982831
0
CIRCLE
5
105
100
AcDbEntity
8
0
100
AcDbCircle
10
-75.362164453027489
20
60.14035418301971
30
0.66818635831982787
40
1.6403805700045657
210
0
220
0
230
1
0
SPLINE
5
106
100
AcDbEntity
8
0
100
AcDbSpline
70
4
71
5
72
21
73
15
74
0
42
0.000000001
43
0.0000000001
44
0.0000000001
40
0
40
0
40
0
40
0
40
0
40
0
40
0.10000000000000001
40
0.20000000000000001
40
0.30000000000000004
40
0.40000000000000002
40
0.5
40
0.59999999999999998
40
0.69999999999999996
40
0.79999999999999993
40
0.89999999999999991
40
1
40
1
40
1
40
1
40
1
40
1
41
1
41
1
41
1
41
1
41
1
41
1
41
1
41
1
41
1
41
1
41
1
41
1
41
1
41
1
41
1
10
-73.10922272729691
20
48.784566632546451
30
0.66818635831983064
10
-73.124244290528367
20
48.85471957803064
30
0.66818635831973616
10
-73.15564690617316
20
48.995319429164425
30
0.66818635831957118
10
-73.206829265375461
20
49.207101079483124
30
0.66818635831939677
10
-73.283363751901305
20
49.491269436589391
30
0.6681863583193024
10
-73.393773264400338
20
49.849667393178827
30
0.66818635831938256
10
-73.520180943374584
20
50.211524607623979
30
0.66818635831959239
10
-73.663798463072666
20
50.577103078294137
30
0.66818635831986861
10
-73.825112346085888
20
50.946508005182096
30
0.66818635832013962
10
-74.0032301675121
20
51.319546420682187
30
0.6681863583203389
10
-74.196801800847652
20
51.695926389108394
30
0.66818635832040085
10
-74.362967317037359
20
51.99947551983017
30
0.66818635832029427
10
-74.493541893475637
20
52.228424021802653
30
0.66818635832010598
10
-74.583192898427626
20
52.38161882863136
30
0.66818635831993012
10
-74.628668754894392
20
52.458356857044528
30
0.66818635831982987
0
SPLINE
5
107
100
AcDbEntity
8
0
100
AcDbSpline
70
4
71
5
72
56
73
50
74
0
42
0.000000001
43
0.0000000001
44
0.0000000001
40
0
40
0
40
0
40
0
40
0
40
0
40
0.022222222222222223
40
0.044444444444444446
40
0.066666666666666666
40
0.088888888888888892
40
0.11111111111111112
40
0.13333333333333333
40
0.15555555555555556
40
0.17777777777777778
40
0.20000000000000001
40
0.22222222222222224
40
0.24444444444444446
40
0.26666666666666666
40
0.28888888888888886
40
0.31111111111111106
40
0.33333333333333326
40
0.35555555555555546
40
0.37777777777777766
40
0.39999999999999986
40
0.42222222222222205
40
0.44444444444444425
40
0.46666666666666645
40
0.48888888888888865
40
0.51111111111111085
40
0.5333333333333331
40
0.55555555555555536
40
0.57777777777777761
40
0.59999999999999987
40
0.62222222222222212
40
0.64444444444444438
40
0.66666666666666663
40
0.68888888888888888
40
0.71111111111111114
40
0.73333333333333339
40
0.75555555555555565
40
0.7777777777777779
40
0.80000000000000016
40
0.82222222222222241
40
0.84444444444444466
40
0.86666666666666692
40
0.88888888888888917
40
0.91111111111111143
40
0.93333333333333368
40
0.95555555555555594
40
0.97777777777777819
40
1
40
1
40
1
40
1
40
1
40
1
41
1
41
1
41
1
41
1
41
1
41
1
41
1
41
1
41
1
41
1
41
1
41
1
41
1
41
1
41
1
41
1
41
1
41
1
41
1
41
1
41
1
41
1
41
1
41
1
41
1
41
1
41
1
41
1
41
1
41
1
41
1
41
1
41
1
41
1
41
1
41
1
41
1
41
1
41
1
41
1
41
1
41
1
41
1
41
1
41
1
41
1
41
1
41
1
41
1
41
1
10
-74.512414027495595
20
56.20143493359673
30
0.66818635831982887
10
-74.483368411826419
20
56.246106294625108
30
0.6681863583203318
10
-74.425293773305
20
56.336358837744207
30
0.66818635832121653
10
-74.338231599262372
20
56.474467108064665
30
0.66818635832217421
10
-74.222248300826351
20
56.664074837599976
30
0.66818635832274043
10
-74.077611721036988
20
56.909914122097831
30
0.66818635832251028
10
-73.933846075674026
20
57.163711356704809
30
0.66818635832168527
10
-73.792010308798552
20
57.423685498888915
30
0.66818635832064166
10
-73.653868381652345
20
57.686837631268411
30
0.66818635831971296
10
-73.52207829425312
20
57.948621434137912
30
0.66818635831912998
10
-73.400346543655118
20
58.20266020505759
30
0.66818635831894513
10
-73.29242400646396
20
58.442002946433711
30
0.66818635831909157
10
-73.201182326143353
20
58.660280317312996
30
0.66818635831942252
10
-73.127578191301978
20
58.852988554537824
30
0.66818635831976914
10
-73.069840145483582
20
59.018521720025788
30
0.66818635831998996
10
-73.02209244248948
20
59.159836048034407
30
0.6681863583200387
10
-72.975537220041488
20
59.28324331478337
30
0.66818635831995965
10
-72.921052687526029
20
59.395615881102046
30
0.66818635831983331
10
-72.851225823114333
20
59.502227214731391
30
0.66818635831974216
10
-72.762929925295126
20
59.603982595858426
30
0.6681863583197224
10
-72.65635546984592
20
59.698622410784736
30
0.66818635831976669
10
-72.533628697892183
20
59.782383364810329
30
0.66818635831984208
10
-72.397497578798095
20
59.851599518956363
30
0.66818635831990769
10
-72.250236899422077
20
59.90402424025433
30
0.66818635831993345
10
-72.094096851035403
20
59.9382376729924
30
0.66818635831990114
10
-71.931524605367244
20
59.95333486873335
30
0.66818635831981388
10
-71.765524295457311
20
59.94845295207017
30
0.66818635831970119
10
-71.599811445802885
20
59.922533235864172
30
0.66818635831963213
10
-71.438287275953002
20
59.874848066593515
30
0.66818635831966688
10
-71.28463044896435
20
59.805391259487017
30
0.66818635831983053
10
-71.141805267368696
20
59.715381559798985
30
0.66818635832007989
10
-71.01171029112308
20
59.607559220190574
30
0.66818635832026729
10
-70.895823422690484
20
59.484958330140579
30
0.66818635832023521
10
-70.795753014410522
20
59.34982338569575
30
0.66818635831989015
10
-70.713826623803399
20
59.202465221195133
30
0.66818635831928253
10
-70.653658895637278
20
59.040149216109299
30
0.66818635831869089
10
-70.619650041131536
20
58.858068453300511
30
0.66818635831850193
10
-70.616467547166849
20
58.650343409313095
30
0.66818635831908446
10
-70.648572090252998
20
58.410940474358583
30
0.66818635832068363
10
-70.719631308779711
20
58.134789580702446
30
0.66818635832327777
10
-70.832412529623682
20
57.818039244097143
30
0.6681863583265788
10
-70.988963189858069
20
57.457792648429511
30
0.66818635833011075
10
-71.190699839131113
20
57.052006150296464
30
0.6681863583332659
10
-71.438530865734421
20
56.599325433518501
30
0.66818635833536466
10
-71.732960935200396
20
56.09895290068139
30
0.66818635833572149
10
-72.07419980694101
20
55.550505695969576
30
0.66818635833370565
10
-72.384652845124833
20
55.073206273560899
30
0.66818635832978046
10
-72.638533754933491
20
54.69357165508108
30
0.66818635832538165
10
-72.817131787460298
20
54.430862965013382
30
0.66818635832178974
10
-72.908766827268479
20
54.29710388332709
30
0.66818635831982953
0
ENDSEC
0
SECTION
2
OBJECTS
0
DICTIONARY
5
C
100
AcDbDictionary
3
ACAD_GROUP
350
D
3
ACAD_MLINESTYLE
350
17
0
DICTIONARY
5
D
100
AcDbDictionary
0
DICTIONARY
5
1A
330
C
100
AcDbDictionary
0
DICTIONARY
5
17
100
AcDbDictionary
0
ENDSEC
0
EOF
